<?xml version="1.0" encoding="UTF-8" standalone="no"?>
<svg
   xmlns:dc="http://purl.org/dc/elements/1.1/"
   xmlns:cc="http://creativecommons.org/ns#"
   xmlns:rdf="http://www.w3.org/1999/02/22-rdf-syntax-ns#"
   xmlns:svg="http://www.w3.org/2000/svg"
   xmlns="http://www.w3.org/2000/svg"
   xmlns:sodipodi="http://sodipodi.sourceforge.net/DTD/sodipodi-0.dtd"
   xmlns:inkscape="http://www.inkscape.org/namespaces/inkscape"
   sodipodi:docname="bar_meter_horizontal.svg"
   inkscape:version="1.0.2 (e86c870879, 2021-01-15)"
   version="1.1"
   id="svg2"
   viewBox="0 0 30 30"
   height="30"
   width="30">
  <defs
     id="defs4">
    <style
       id="current-color-scheme"
       type="text/css" />
  </defs>
  <sodipodi:namedview
     inkscape:document-rotation="0"
     fit-margin-bottom="0"
     fit-margin-right="0"
     fit-margin-left="0"
     fit-margin-top="0"
     showguides="false"
     inkscape:window-maximized="1"
     inkscape:window-y="0"
     inkscape:window-x="0"
     inkscape:window-height="1007"
     inkscape:window-width="1920"
     units="px"
     borderlayer="true"
     inkscape:showpageshadow="false"
     showgrid="false"
     inkscape:current-layer="layer1"
     inkscape:document-units="px"
     inkscape:cy="14.749452"
     inkscape:cx="-15.017183"
     inkscape:zoom="9.5583339"
     inkscape:pageshadow="2"
     inkscape:pageopacity="0"
     borderopacity="1"
     bordercolor="#000000"
     pagecolor="#ffffff"
     id="base">
    <inkscape:grid
       originy="-117.99998"
       originx="0"
       empspacing="2"
       id="grid3336"
       type="xygrid" />
  </sodipodi:namedview>
  <metadata
     id="metadata7">
    <rdf:RDF>
      <cc:Work
         rdf:about="">
        <dc:format>image/svg+xml</dc:format>
        <dc:type
           rdf:resource="http://purl.org/dc/dcmitype/StillImage" />
        <dc:title />
      </cc:Work>
    </rdf:RDF>
  </metadata>
  <g
     transform="translate(0,-904.36218)"
     id="layer1"
     inkscape:groupmode="layer"
     inkscape:label="Layer 1">
    <path
       inkscape:connector-curvature="0"
       style="fill:#5e81ac;fill-opacity:1;stroke:none;stroke-width:0.421637"
       d="m 13.999996,912.06218 h 2 v 0.8 h -2 z"
       id="bar-active-center" />
    <g
       id="bar-active-top"
       transform="matrix(0.66666667,0,0,0.4,-63.333334,908.46218)"
       style="fill:#5e81ac;fill-opacity:1">
      <path
         id="path3205"
         d="m 119,5 h -3 v 3 h 3 z"
         style="fill:#5e81ac;fill-opacity:1;stroke:none"
         inkscape:connector-curvature="0" />
    </g>
    <g
       id="bar-active-topright"
       transform="matrix(1,0,0,0.4,-103,908.46218)"
       style="fill:#5e81ac;fill-opacity:1">
      <g
         id="g3209"
         style="fill:#5e81ac;fill-opacity:1">
        <path
           inkscape:connector-curvature="0"
           style="fill:#5e81ac;fill-opacity:1;stroke:none"
           d="m 123,8 c 0,-1.662 -1.338,-3 -3,-3 v 3 z"
           id="path3213" />
      </g>
    </g>
    <g
       transform="matrix(1,0,0,-0.4,-103,916.46218)"
       id="bar-active-bottomright"
       style="fill:#5e81ac;fill-opacity:1">
      <g
         id="g3217"
         style="fill:#5e81ac;fill-opacity:1">
        <path
           id="path3221"
           d="m 123,8 c 0,-1.662 -1.338,-3 -3,-3 v 3 z"
           style="fill:#5e81ac;fill-opacity:1;stroke:none"
           inkscape:connector-curvature="0" />
      </g>
    </g>
    <g
       transform="matrix(0.66666667,0,0,-0.4,-63.333334,916.46218)"
       id="bar-active-bottom"
       style="fill:#5e81ac;fill-opacity:1">
      <path
         inkscape:connector-curvature="0"
         style="fill:#5e81ac;fill-opacity:1;stroke:none"
         d="m 119,5 h -3 v 3 h 3 z"
         id="path3227" />
    </g>
    <g
       transform="matrix(-1,0,0,0.4,133,908.46218)"
       id="bar-active-topleft"
       style="fill:#5e81ac;fill-opacity:1">
      <g
         id="g3231"
         style="fill:#5e81ac;fill-opacity:1">
        <path
           id="path3235"
           d="m 123,8 c 0,-1.662 -1.338,-3 -3,-3 v 3 z"
           style="fill:#5e81ac;fill-opacity:1;stroke:none"
           inkscape:connector-curvature="0" />
      </g>
    </g>
    <g
       id="bar-active-bottomleft"
       transform="matrix(-1,0,0,-0.4,133,916.46218)"
       style="fill:#5e81ac;fill-opacity:1">
      <g
         id="g3239"
         style="fill:#5e81ac;fill-opacity:1">
        <path
           inkscape:connector-curvature="0"
           style="fill:#5e81ac;fill-opacity:1;stroke:none"
           d="m 123,8 c 0,-1.662 -1.338,-3 -3,-3 v 3 z"
           id="path3243" />
      </g>
    </g>
    <g
       id="bar-active-left"
       transform="matrix(0,0.2666666,1,0,4.9999963,881.12878)"
       style="fill:#5e81ac;fill-opacity:1">
      <path
         id="path3249"
         d="m 119,5 h -3 v 3 h 3 z"
         style="fill:#5e81ac;fill-opacity:1;stroke:none"
         inkscape:connector-curvature="0" />
    </g>
    <g
       transform="matrix(0,0.2666666,-1,0,24.999996,881.12878)"
       id="bar-active-right"
       style="fill:#5e81ac;fill-opacity:1">
      <path
         inkscape:connector-curvature="0"
         style="fill:#5e81ac;fill-opacity:1;stroke:none"
         d="m 119,5 h -3 v 3 h 3 z"
         id="path3255" />
    </g>
    <path
       id="bar-inactive-center"
       d="m 13.999996,926.06218 h 2 v 0.8 h -2 z"
       style="opacity:1;fill:#a3be8c;fill-opacity:1;stroke:none;stroke-width:0.421637"
       inkscape:connector-curvature="0" />
    <g
       transform="matrix(0.66666667,0,0,0.4,-63.333334,922.46218)"
       id="bar-inactive-top"
       style="opacity:1;fill:#a3be8c;fill-opacity:1">
      <path
         inkscape:connector-curvature="0"
         style="fill:#a3be8c;fill-opacity:1;stroke:none"
         d="m 119,5 h -3 v 3 h 3 z"
         id="path3399" />
    </g>
    <g
       transform="matrix(1,0,0,0.4,-103,922.46218)"
       id="bar-inactive-topright"
       style="opacity:1;fill:#a3be8c;fill-opacity:1">
      <g
         id="g3403"
         style="fill:#a3be8c;fill-opacity:1">
        <path
           id="path3405"
           d="m 123,8 c 0,-1.662 -1.338,-3 -3,-3 v 3 z"
           style="fill:#a3be8c;fill-opacity:1;stroke:none"
           inkscape:connector-curvature="0" />
      </g>
    </g>
    <g
       id="bar-inactive-bottomright"
       transform="matrix(1,0,0,-0.4,-103,930.46218)"
       style="opacity:1;fill:#a3be8c;fill-opacity:1">
      <g
         id="g3409"
         style="fill:#a3be8c;fill-opacity:1">
        <path
           inkscape:connector-curvature="0"
           style="fill:#a3be8c;fill-opacity:1;stroke:none"
           d="m 123,8 c 0,-1.662 -1.338,-3 -3,-3 v 3 z"
           id="path3411" />
      </g>
    </g>
    <g
       id="bar-inactive-bottom"
       transform="matrix(0.66666667,0,0,-0.4,-63.333334,930.46218)"
       style="opacity:1;fill:#a3be8c;fill-opacity:1">
      <path
         id="path3415"
         d="m 119,5 h -3 v 3 h 3 z"
         style="fill:#a3be8c;fill-opacity:1;stroke:none"
         inkscape:connector-curvature="0" />
    </g>
    <g
       id="bar-inactive-topleft"
       transform="matrix(-1,0,0,0.4,133,922.46218)"
       style="opacity:1;fill:#a3be8c;fill-opacity:1">
      <g
         id="g3419"
         style="fill:#a3be8c;fill-opacity:1">
        <path
           inkscape:connector-curvature="0"
           style="fill:#a3be8c;fill-opacity:1;stroke:none"
           d="m 123,8 c 0,-1.662 -1.338,-3 -3,-3 v 3 z"
           id="path3421" />
      </g>
    </g>
    <g
       transform="matrix(-1,0,0,-0.4,133,930.46218)"
       id="bar-inactive-bottomleft"
       style="opacity:1;fill:#a3be8c;fill-opacity:1">
      <g
         id="g3425"
         style="fill:#a3be8c;fill-opacity:1">
        <path
           id="path3427"
           d="m 123,8 c 0,-1.662 -1.338,-3 -3,-3 v 3 z"
           style="fill:#a3be8c;fill-opacity:1;stroke:none"
           inkscape:connector-curvature="0" />
      </g>
    </g>
    <g
       transform="matrix(0,0.26666661,1,0,4.9999963,895.12879)"
       id="bar-inactive-left"
       style="opacity:1;fill:#a3be8c;fill-opacity:1">
      <path
         inkscape:connector-curvature="0"
         style="fill:#a3be8c;fill-opacity:1;stroke:none"
         d="m 119,5 h -3 v 3 h 3 z"
         id="path3431" />
    </g>
    <g
       id="bar-inactive-right"
       transform="matrix(0,0.26666661,-1,0,24.999996,895.12879)"
       style="opacity:1;fill:#a3be8c;fill-opacity:1">
      <path
         id="path3435"
         d="m 119,5 h -3 v 3 h 3 z"
         style="fill:#a3be8c;fill-opacity:1;stroke:none"
         inkscape:connector-curvature="0" />
    </g>
  </g>
</svg>
