<?xml version="1.0" encoding="UTF-8" standalone="no"?>
<svg
   viewBox="0 0 32 32"
   version="1.1"
   id="svg6"
   sodipodi:docname="system-log-out-rtl.svg"
   inkscape:version="1.1.2 (0a00cf5339, 2022-02-04)"
   xmlns:inkscape="http://www.inkscape.org/namespaces/inkscape"
   xmlns:sodipodi="http://sodipodi.sourceforge.net/DTD/sodipodi-0.dtd"
   xmlns:xlink="http://www.w3.org/1999/xlink"
   xmlns="http://www.w3.org/2000/svg"
   xmlns:svg="http://www.w3.org/2000/svg">
  <sodipodi:namedview
     id="namedview8"
     pagecolor="#ffffff"
     bordercolor="#666666"
     borderopacity="1.0"
     inkscape:pageshadow="2"
     inkscape:pageopacity="0.0"
     inkscape:pagecheckerboard="0"
     showgrid="true"
     inkscape:zoom="9.2144852"
     inkscape:cx="-17.852327"
     inkscape:cy="8.5191954"
     inkscape:window-width="1920"
     inkscape:window-height="1015"
     inkscape:window-x="0"
     inkscape:window-y="0"
     inkscape:window-maximized="1"
     inkscape:current-layer="svg6">
    <inkscape:grid
       type="xygrid"
       id="grid1317" />
  </sodipodi:namedview>
  <defs
     id="defs3051">
    <style
       type="text/css"
       id="current-color-scheme">
      .ColorScheme-Text {
        color:#eff0f1;
      }
      </style>
    <linearGradient
       inkscape:collect="always"
       xlink:href="#linearGradient1102"
       id="linearGradient1157-3"
       x1="-83.605736"
       y1="16.156397"
       x2="-65.320297"
       y2="16.156397"
       gradientUnits="userSpaceOnUse"
       gradientTransform="matrix(-0.92280363,0,0,-0.92282554,-55.829761,30.970774)" />
    <linearGradient
       inkscape:collect="always"
       id="linearGradient1102">
      <stop
         style="stop-color:#99eaff;stop-opacity:1"
         offset="0"
         id="stop1087" />
      <stop
         style="stop-color:#9b9be4;stop-opacity:1"
         offset="1"
         id="stop1097" />
    </linearGradient>
    <linearGradient
       inkscape:collect="always"
       xlink:href="#linearGradient1102"
       id="linearGradient1149-5"
       x1="-18.445433"
       y1="-90.02726"
       x2="-17.670717"
       y2="-65.245247"
       gradientUnits="userSpaceOnUse"
       gradientTransform="matrix(0.92282554,0,0,0.92282554,30.768472,56.013371)" />
  </defs>
  <path
     d="m 4.6254191,15.06609 c 0,0 -0.004,-0.0034 -0.004,0.0029 l 7.0640389,6.30854 c 0.672625,0.598126 1.19597,0.497519 1.447861,0.384366 0.252391,-0.113403 0.675882,-0.438057 0.675882,-1.340515 l -0.0075,-0.730069 5.487506,0.01559 c 0.07478,0.01455 0.140742,0.01477 0.180138,0.01477 1.021356,0 1.85188,-0.462523 1.852286,-1.483902 l 0.002,-4.280037 c 3.31e-4,-0.824776 -0.831392,-1.439543 -1.852747,-1.439543 -0.07853,0 -0.296599,-0.0091 -0.296599,-0.0091 -0.01301,0.0019 -0.0124,0.0077 -0.005,2.8e-4 l -5.360681,0.02418 v -0.832578 c 0,-0.902458 -0.423505,-1.227364 -0.675899,-1.340515 -0.252133,-0.113154 -0.775488,-0.213762 -1.445845,0.382861 l -3.9511679,3.475387 c -0.207984,0.1829 -0.228555,0.500026 -0.04539,0.708268 0.182894,0.207985 0.500016,0.22831 0.708249,0.0454 l 3.9534609,-3.477105 c 0.212747,-0.189427 0.347978,-0.220286 0.362282,-0.22355 0.02359,0.02009 0.09077,0.142257 0.09077,0.429276 v 1.355853 c 0,0.151037 0.06803,0.293796 0.184899,0.389132 0.116912,0.09533 0.270711,0.132723 0.418482,0.102365 l 5.799978,0.0023 0.242409,0.0023 c 0.03109,-0.0041 -0.03495,-0.0026 -0.003,-0.0022 0.590259,0.0063 0.869666,0.34795 0.869666,0.805707 v 3.60449 c 0,0.464649 -0.375077,0.65879 -0.856781,0.664311 l -6.04568,-0.0082 c -0.199025,0.0014 -0.328079,0.0056 -0.445253,0.100789 -0.11679,0.09548 -0.164892,0.196899 -0.164892,0.347936 v 1.078501 c 0,0.287021 -0.06728,0.594173 -0.07478,0.607219 -0.03061,0.0042 0.01853,0.06573 -0.194977,-0.124193 l -6.9276509,-6.22312 0.01018,-0.0048 -0.002,0.0056 -9.25e-4,-0.0016 0.005,-8.77e-4 0.002,0.0033 -0.01382,7.01e-4 0.01105,-0.0049 -0.002,-3.22e-4 -9.22e-4,0.0012 z"
     id="path4-3"
     style="fill:url(#linearGradient1157-3);fill-opacity:1;stroke-width:0.250891"
     sodipodi:nodetypes="ccccsccsssscccscccccccssscccssscccssccccccccccccc" />
  <path
     style="color:#31363b;fill:none;fill-opacity:1;stroke:url(#linearGradient1149-5);stroke-width:1.60346;stroke-linecap:round;stroke-miterlimit:4;stroke-dasharray:none;stroke-opacity:1;stop-color:#31363b"
     class="ColorScheme-Text"
     sodipodi:type="arc"
     sodipodi:cx="15.999582"
     sodipodi:cy="-15.963881"
     sodipodi:rx="11.197767"
     sodipodi:ry="11.197767"
     sodipodi:start="1.7265879"
     sodipodi:end="1.2502698"
     sodipodi:arc-type="arc"
     sodipodi:open="true"
     id="path236"
     d="M 14.262113,-4.9017292 A 11.197767,11.197767 0 0 1 4.8093602,-16.374881 11.197767,11.197767 0 0 1 15.078293,-27.123684 a 11.197767,11.197767 0 0 1 11.892616,8.919273 11.197767,11.197767 0 0 1 -7.443287,12.8679916"
     transform="rotate(90)" />
</svg>
