<?xml version="1.0" encoding="UTF-8" standalone="no"?>
<svg
   xmlns:dc="http://purl.org/dc/elements/1.1/"
   xmlns:cc="http://creativecommons.org/ns#"
   xmlns:rdf="http://www.w3.org/1999/02/22-rdf-syntax-ns#"
   xmlns:svg="http://www.w3.org/2000/svg"
   xmlns="http://www.w3.org/2000/svg"
   xmlns:sodipodi="http://sodipodi.sourceforge.net/DTD/sodipodi-0.dtd"
   xmlns:inkscape="http://www.inkscape.org/namespaces/inkscape"
   version="1.1"
   id="svg2"
   viewBox="0 0 32 32"
   inkscape:version="1.0.2 (e86c870879, 2021-01-15)"
   sodipodi:docname="cantata.svg"
   width="32"
   height="32">
  <sodipodi:namedview
     pagecolor="#ffffff"
     bordercolor="#000000"
     borderopacity="1"
     objecttolerance="10"
     gridtolerance="10"
     guidetolerance="10"
     inkscape:pageopacity="0"
     inkscape:pageshadow="2"
     inkscape:window-width="1920"
     inkscape:window-height="1007"
     id="namedview14"
     showgrid="false"
     inkscape:zoom="10.429825"
     inkscape:cx="26.550743"
     inkscape:cy="17.653358"
     inkscape:window-x="0"
     inkscape:window-y="0"
     inkscape:window-maximized="1"
     inkscape:current-layer="svg2"
     inkscape:lockguides="false"
     inkscape:document-rotation="0"
     inkscape:showpageshadow="false">
    <inkscape:grid
       type="xygrid"
       id="grid838"
       originx="0"
       originy="0" />
  </sodipodi:namedview>
  <metadata
     id="metadata20">
    <rdf:RDF>
      <cc:Work
         rdf:about="">
        <dc:format>image/svg+xml</dc:format>
        <dc:type
           rdf:resource="http://purl.org/dc/dcmitype/StillImage" />
        <dc:title></dc:title>
      </cc:Work>
    </rdf:RDF>
  </metadata>
  <defs
     id="defs3051">
    <style
       id="current-color-scheme"
       type="text/css" />
  </defs>
  <g
     id="cantata">
    <path
       id="path13"
       class="ColorScheme-Text"
       d="M 16.010178,3.9999999 C 9.5704407,3.9999999 4.35,9.2163111 4.35,15.650955 c 0,6.434647 5.2204407,11.650961 11.660178,11.650961 6.439741,0 11.660185,-5.216314 11.660185,-11.650961 0,-6.4346439 -5.220444,-11.6509551 -11.660185,-11.6509551 z m 0.131757,1.6291591 c 5.903093,0 9.897977,4.1233729 9.897977,10.021796 0,5.898431 -4.126634,10.153448 -10.029734,10.153448 -5.903092,0 -9.897976,-4.123372 -9.897976,-10.021795 0,-5.8984263 4.126638,-10.153449 10.029733,-10.153449 z"
       style="color:#31363b;fill:#eff0f1;fill-opacity:1;stroke:none;stroke-width:0.971299"
       inkscape:connector-curvature="0"
       sodipodi:nodetypes="ssssssssss" />
    <path
       id="path18"
       d="M 0,0 V 32 H 32 V 0 Z"
       style="fill:none" />
    <path
       d="m 16.251653,15.969507 c 0,-0.126182 -0.102506,-0.228623 -0.228812,-0.228623 H 6.4175012 c -0.2950748,0 -0.2950748,0.457258 0,0.457258 h 9.6053398 c 0.126287,0 0.228812,-0.102398 0.228812,-0.228635 z"
       id="path12"
       style="fill:#eff0f1;fill-opacity:0.8;stroke-width:0.182971"
       sodipodi:nodetypes="ssssss" />
    <path
       d="m 6.6545917,13.454612 h 9.3682493 c 0.295059,0 0.295059,-0.457251 0,-0.457251 H 6.6545917 c -0.2950647,0 -0.2950647,0.457251 0,0.457251 z"
       id="path14"
       style="fill:#eff0f1;fill-opacity:0.8;stroke-width:0.182971"
       sodipodi:nodetypes="sssss" />
    <path
       d="m 8.0147013,10.711089 h 8.0081397 c 0.295059,0 0.295059,-0.457256 0,-0.457256 H 8.0147013 c -0.2950646,0 -0.2950646,0.457256 0,0.457256 z"
       id="path16"
       style="fill:#eff0f1;fill-opacity:0.8;stroke-width:0.182971" />
    <path
       d="m 6.7741086,18.484403 c -0.2950719,0 -0.2950719,0.457259 0,0.457259 h 6.5030864 c 0.295065,0 0.295065,-0.457259 0,-0.457259 z"
       id="path18-3"
       style="fill:#eff0f1;fill-opacity:0.8;stroke-width:0.182971"
       sodipodi:nodetypes="sssss" />
    <path
       d="M 16.953029,21.227926 H 7.9409817 c -0.1662685,0 -0.1662685,0.457257 0,0.457257 h 9.0120473 c 0.166265,0 0.166265,-0.457257 0,-0.457257 z"
       id="path20"
       style="fill:#eff0f1;fill-opacity:0.8;stroke-width:0.137348" />
    <path
       id="path9-3"
       class="ColorScheme-Text"
       d="M 15.721377,4.6980864 V 20.783431 c -1.220189,-0.526017 -2.637111,-0.383855 -4.147627,0.2418 -2.5284361,1.046239 -3.9782011,3.339675 -3.2395544,5.122827 0.7386439,1.783746 3.3892864,2.383723 5.9183094,1.33691 1.994951,-0.827812 3.216744,-2.979062 3.216744,-4.275205 V 10.523528 c 0,0 4.665729,0.581955 4.665729,5.242297 0,3.495264 -1.167212,4.662055 -4.08214,7.574767 2.914928,-1.747626 5.246449,-4.079503 5.246449,-7.574767 0,-4.660342 -3.59884,-6.7561639 -4.52053,-7.6771505 C 18.19576,7.5061256 17.469249,5.2811981 17.469249,5.2811981 Z"
       style="fill:#eff0f1;fill-opacity:1;stroke:none;stroke-width:1.45693" />
  </g>
  <g
     id="22-22-cantata"
     transform="translate(54)">
    <path
       id="path11"
       d="M -22,10 V 32 H 0 V 10 Z"
       style="fill:none" />
    <path
       id="path13-3"
       class="ColorScheme-Text"
       d="m -10.9827,13 c -4.289765,0 -7.7673,3.477541 -7.7673,7.767305 0,4.28976 3.477535,7.767309 7.7673,7.767309 4.289766,0 7.767314,-3.477549 7.767314,-7.767309 C -3.215386,16.477541 -6.692934,13 -10.9827,13 Z m 0.08775,1.086106 c 3.932279,0 6.593433,2.748916 6.593433,6.681199 0,3.932291 -2.748909,6.768963 -6.681204,6.768963 -3.932283,0 -6.593434,-2.748915 -6.593434,-6.681196 0,-3.932284 2.748928,-6.768966 6.681205,-6.768966 z"
       style="color:#31363b;fill:#eff0f1;fill-opacity:1;stroke:none;stroke-width:0.647283"
       inkscape:connector-curvature="0"
       sodipodi:nodetypes="ssssssssss" />
    <path
       d="m -4.53922,20.827256 h -4.569587 c -0.196568,0 -0.196568,0.304838 0,0.304838 h 4.569587 c 0.196548,0 0.196548,-0.304838 0,-0.304838 z"
       id="path4-6"
       style="fill:#eff0f1;fill-opacity:1;stroke-width:0.121937"
       sodipodi:nodetypes="sssss" />
    <path
       d="m -4.603957,18.998242 h -4.541317 c -0.196545,0 -0.196545,0.304833 0,0.304833 h 4.541317 c 0.196562,0 0.196562,-0.304833 0,-0.304833 z"
       id="path6-7"
       style="fill:#eff0f1;fill-opacity:1;stroke-width:0.121937"
       sodipodi:nodetypes="sssss" />
    <path
       d="m -5.639719,17.169224 h -3.505555 c -0.196545,0 -0.196545,0.304836 0,0.304836 h 3.505555 c 0.196552,0 0.196552,-0.304836 0,-0.304836 z"
       id="path8-5"
       style="fill:#eff0f1;fill-opacity:1;stroke-width:0.121937" />
    <path
       d="m -4.73341,22.656271 h -4.39663 c -0.19654,0 -0.19654,0.304836 0,0.304836 h 4.39663 c 0.196558,0 0.196558,-0.304836 0,-0.304836 z"
       id="path10-3"
       style="fill:#eff0f1;fill-opacity:1;stroke-width:0.121937"
       sodipodi:nodetypes="sssss" />
    <path
       d="m -10.821842,20.979673 c 0,-0.08412 -0.06824,-0.152417 -0.152413,-0.152417 h -6.398506 c -0.196553,0 -0.196553,0.304838 0,0.304838 h 6.398506 c 0.08406,0 0.152413,-0.06826 0.152413,-0.152421 z"
       id="path12-5"
       style="fill:#eff0f1;fill-opacity:1;stroke-width:0.121937"
       sodipodi:nodetypes="ssssss" />
    <path
       d="m -17.214824,19.303075 h 6.240569 c 0.196543,0 0.196543,-0.304833 0,-0.304833 h -6.240569 c -0.196544,0 -0.196544,0.304833 0,0.304833 z"
       id="path14-6"
       style="fill:#eff0f1;fill-opacity:1;stroke-width:0.121937"
       sodipodi:nodetypes="sssss" />
    <path
       d="m -16.308797,17.47406 h 5.334542 c 0.196543,0 0.196543,-0.304836 0,-0.304836 h -5.334542 c -0.196552,0 -0.196552,0.304836 0,0.304836 z"
       id="path16-2"
       style="fill:#eff0f1;fill-opacity:1;stroke-width:0.121937" />
    <path
       d="m -17.135198,22.656271 c -0.196569,0 -0.196569,0.304836 0,0.304836 h 4.331957 c 0.196549,0 0.196549,-0.304836 0,-0.304836 z"
       id="path18-3-9"
       style="fill:#eff0f1;fill-opacity:1;stroke-width:0.121937"
       sodipodi:nodetypes="sssss" />
    <path
       d="M -5.639719,24.485287 H -16.29356 c -0.19655,0 -0.19655,0.304836 0,0.304836 h 10.653841 c 0.196552,0 0.196552,-0.304836 0,-0.304836 z"
       id="path20-1"
       style="fill:#eff0f1;fill-opacity:1;stroke-width:0.121937" />
    <path
       id="path9-3-2"
       class="ColorScheme-Text"
       d="m -11.175078,13.465391 v 10.723562 c -0.812816,-0.350675 -1.756685,-0.255904 -2.762895,0.161207 -1.684287,0.697485 -2.65003,2.226443 -2.158004,3.415209 0.49204,1.189165 2.25774,1.589151 3.942424,0.89128 1.328917,-0.551877 2.142804,-1.986043 2.142804,-2.850142 v -8.45749 c 0,0 3.108032,0.387971 3.108032,3.494866 0,2.330176 -0.777539,3.108038 -2.719284,5.049845 1.941745,-1.16508 3.494862,-2.719669 3.494862,-5.049845 0,-3.106895 -2.397326,-4.504109 -3.011298,-5.1181 -0.388355,-0.388366 -0.872312,-1.871651 -0.872312,-1.871651 z"
       style="fill:#eff0f1;fill-opacity:1;stroke:none;stroke-width:0.970897" />
  </g>
</svg>
