<?xml version="1.0" encoding="UTF-8" standalone="no"?>
<svg
   xmlns:dc="http://purl.org/dc/elements/1.1/"
   xmlns:cc="http://creativecommons.org/ns#"
   xmlns:rdf="http://www.w3.org/1999/02/22-rdf-syntax-ns#"
   xmlns:svg="http://www.w3.org/2000/svg"
   xmlns="http://www.w3.org/2000/svg"
   xmlns:sodipodi="http://sodipodi.sourceforge.net/DTD/sodipodi-0.dtd"
   xmlns:inkscape="http://www.inkscape.org/namespaces/inkscape"
   width="32"
   height="32"
   version="1.1"
   id="svg12"
   sodipodi:docname="device.svg"
   inkscape:version="1.0.2 (e86c870879, 2021-01-15)">
  <g
     id="device-notifier"
     transform="translate(32,9.999999)">
    <rect
       style="opacity:0.00100002"
       width="32"
       height="32"
       x="-32"
       y="-9.999999"
       id="rect7" />
    <path
       d="m -15.931579,18.000001 c 3.612632,0 6.568421,-2.955789 6.568421,-6.568421 V 0.821054 c 0,-0.8336846 -0.682105,-1.5157899 -1.515789,-1.5157899 h -0.505263 v -4.0421052 c 0,-0.7073685 -0.55579,-1.2631579 -1.263158,-1.2631579 h -6.568421 c -0.707369,0 -1.263158,0.5557894 -1.263158,1.2631579 v 4.0421052 h -0.505263 c -0.833685,0 -1.51579,0.6821053 -1.51579,1.5157899 V 11.43158 c 0,3.612632 2.95579,6.568421 6.568421,6.568421 z M -18.963158,-4.4842096 H -12.9 v 3.7894737 h -6.063158 z M -20.98421,0.821054 h 10.105263 V 11.43158 c 0,2.778947 -2.273685,5.052632 -5.052632,5.052632 -2.778947,0 -5.052631,-2.273685 -5.052631,-5.052632 z"
       id="path2"
       style="fill:#eff0f1;fill-opacity:1;stroke-width:0.252632" />
    <rect
       x="-17.902105"
       y="-3.3473673"
       width="3.9157896"
       height="1.5157895"
       id="rect4"
       style="fill:#eff0f1;fill-opacity:1;stroke-width:0.252632" />
    <rect
       x="-17.194736"
       y="12.821054"
       width="2.5263157"
       height="1.5157895"
       id="rect6"
       style="fill:#eff0f1;fill-opacity:1;stroke-width:0.252632" />
    <path
       style="color:#d3dae3;fill:#eff0f1;fill-opacity:1;fill-rule:evenodd;stroke-width:0.530408;image-rendering:optimizeQuality;shape-rendering:geometricPrecision;text-rendering:geometricPrecision"
       d="m -15.41809,2.597829 -1.599518,0.278674 v 5.509201 l 1.591231,-0.205119 -0.0083,-2.483183 1.877148,2.748384 1.843997,-0.265201 -2.12163,-2.844731 2.128881,-2.386833 -1.866786,-0.343945 -1.86161,2.386842 z m -3.363739,1.406821 c -0.01539,9.97e-4 -0.02984,0.008 -0.04146,0.01965 l -0.549054,0.555274 c -0.02387,0.024 -0.02784,0.06145 -0.0092,0.09014 l 0.663011,1.018342 c -0.125077,0.221964 -0.219576,0.465339 -0.280748,0.719988 L -20.144,6.688789 c -0.03172,0.0078 -0.056,0.0365 -0.056,0.06944 v 0.361548 0.361548 c 0,0.03292 0.02421,0.06163 0.056,0.06945 l 1.144719,0.280739 c 0.06115,0.254652 0.155669,0.498029 0.280748,0.719991 l -0.66301,1.018337 c -0.01853,0.02868 -0.01453,0.06613 0.0092,0.09013 l 0.549058,0.555273 c 0.02311,0.02341 0.0591,0.02528 0.08697,0.0083 l 1.03906,-0.637107 c 0.203848,0.118758 0.522723,0.214305 0.755211,0.277635 l 0.243454,1.175798 c 0.0072,0.03393 0.03376,0.058 0.0673,0.058 h 0.409199 0.409203 c 0.03366,0 0.06055,-0.02402 0.06731,-0.058 l 0.243452,-1.175798 c 0.23249,-0.06335 0.55136,-0.158884 0.755212,-0.27764 l 1.039064,0.63711 c 0.02797,0.01695 0.06383,0.01509 0.08696,-0.0083 l 0.549063,-0.555274 c 0.02387,-0.02401 0.02785,-0.06145 0.0093,-0.09013 l -0.552163,-0.848441 -0.06838,0.01011 -0.38745,-0.567705 c -0.395715,0.829537 -1.232584,1.358173 -2.151672,1.35917 -1.318213,0 -2.386837,-1.06862 -2.386837,-2.386833 9.62e-4,-0.906007 0.514418,-1.733472 1.326017,-2.136139 V 4.478963 c -0.151291,0.05041 -0.299948,0.107355 -0.414378,0.174045 l -1.039002,-0.637076 c -0.01401,-0.0085 -0.03017,-0.01267 -0.04562,-0.0113 z"
       class="ColorScheme-Text"
       id="path10-3" />
  </g>
  <metadata
     id="metadata18">
    <rdf:RDF>
      <cc:Work
         rdf:about="">
        <dc:format>image/svg+xml</dc:format>
        <dc:type
           rdf:resource="http://purl.org/dc/dcmitype/StillImage" />
        <dc:title></dc:title>
      </cc:Work>
    </rdf:RDF>
  </metadata>
  <defs
     id="defs16" />
  <sodipodi:namedview
     pagecolor="#ffffff"
     bordercolor="#000000"
     borderopacity="1"
     objecttolerance="10"
     gridtolerance="10"
     guidetolerance="10"
     inkscape:pageopacity="0"
     inkscape:pageshadow="2"
     inkscape:window-width="1920"
     inkscape:window-height="1007"
     id="namedview14"
     showgrid="false"
     inkscape:zoom="9.8125003"
     inkscape:cx="29.492909"
     inkscape:cy="14.534784"
     inkscape:window-x="0"
     inkscape:window-y="0"
     inkscape:window-maximized="1"
     inkscape:current-layer="svg12"
     inkscape:document-rotation="0"
     inkscape:lockguides="false"
     inkscape:showpageshadow="false">
    <inkscape:grid
       type="xygrid"
       id="grid865"
       originx="0"
       originy="-1.5367432e-07" />
  </sodipodi:namedview>
  <g
     id="22-22-device-notifier">
    <rect
       style="opacity:0.00100002"
       width="22"
       height="22"
       x="32"
       y="9.999999"
       id="rect2" />
    <path
       d="m 43.028953,28.999999 c 2.40842,0 4.378939,-1.970522 4.378939,-4.378951 v -7.073676 c 0,-0.555791 -0.454732,-1.010534 -1.010519,-1.010534 h -0.336851 v -2.694731 c 0,-0.471587 -0.370522,-0.842108 -0.842104,-0.842108 h -4.378939 c -0.471587,0 -0.842106,0.370521 -0.842106,0.842108 v 2.694731 h -0.336851 c -0.555779,0 -1.010522,0.454743 -1.010522,1.010534 v 7.073676 c 0,2.408429 1.970522,4.378951 4.378953,4.378951 z M 41.007892,14.01052 H 45.05 v 2.526318 h -4.042108 z m -1.34737,3.536852 h 6.736851 v 7.073676 c 0,1.852631 -1.515791,3.368428 -3.36842,3.368428 -1.852633,0 -3.368431,-1.515797 -3.368431,-3.368428 z"
       id="path2-6"
       style="fill:#eff0f1;fill-opacity:1;stroke-width:0.168418" />
    <rect
       x="41.765289"
       y="14.768417"
       width="2.610527"
       height="1.0105262"
       id="rect4-7"
       style="fill:#eff0f1;fill-opacity:1;stroke-width:0.168418" />
    <rect
       x="42.236839"
       y="25.547375"
       width="1.6842101"
       height="1.0105262"
       id="rect6-5"
       style="fill:#eff0f1;fill-opacity:1;stroke-width:0.168418" />
    <path
       style="color:#d3dae3;fill:#eff0f1;fill-opacity:1;fill-rule:evenodd;stroke-width:0.353608;image-rendering:optimizeQuality;shape-rendering:geometricPrecision;text-rendering:geometricPrecision"
       d="m 43.42127,18.731883 -1.066342,0.18579 v 3.672801 l 1.060827,-0.136755 -0.0059,-1.655451 1.251433,1.832251 1.229332,-0.1768 -1.414421,-1.896483 1.419254,-1.591229 -1.244524,-0.229288 -1.241074,1.591221 z m -2.242487,0.937885 c -0.01031,6.65e-4 -0.01996,0.0056 -0.02762,0.01313 l -0.366038,0.370181 c -0.01587,0.016 -0.01852,0.04094 -0.0064,0.0601 l 0.442009,0.678892 c -0.08342,0.14798 -0.146386,0.310229 -0.187167,0.479991 l -0.763147,0.187165 c -0.02117,0.0054 -0.03736,0.02435 -0.03736,0.04624 v 0.241029 0.241036 c 0,0.02194 0.0162,0.04107 0.03736,0.04625 l 0.763146,0.187161 c 0.04078,0.169771 0.103778,0.332023 0.187167,0.479991 l -0.442008,0.678896 c -0.01236,0.01908 -0.0097,0.04403 0.0064,0.06006 l 0.366042,0.370184 c 0.01536,0.0156 0.03936,0.01684 0.058,0.0059 l 0.692697,-0.424719 c 0.135888,0.07918 0.34848,0.142869 0.503472,0.185089 l 0.162297,0.783866 c 0.0048,0.02266 0.02256,0.03869 0.0449,0.03869 h 0.272799 0.272802 c 0.02246,0 0.04035,-0.01602 0.04491,-0.03869 l 0.162303,-0.783866 c 0.154989,-0.04227 0.367577,-0.105923 0.503471,-0.185093 l 0.692713,0.424742 c 0.01861,0.01135 0.04251,0.01007 0.05799,-0.0059 l 0.366051,-0.370182 c 0.01587,-0.01601 0.01853,-0.04094 0.0065,-0.06006 l -0.368106,-0.565629 -0.04559,0.0072 -0.258302,-0.378472 c -0.263807,0.553027 -0.821721,0.905449 -1.434447,0.906114 -0.878809,0 -1.591225,-0.712413 -1.591225,-1.591223 6.42e-4,-0.604005 0.342944,-1.155646 0.884013,-1.424091 v -0.347359 c -0.100861,0.03361 -0.199968,0.07158 -0.276254,0.116027 L 41.209462,19.67767 c -0.0093,-0.0061 -0.02008,-0.008 -0.03042,-0.008 z"
       class="ColorScheme-Text"
       id="path10-3-3" />
  </g>
</svg>
