<?xml version="1.0" encoding="UTF-8" standalone="no"?>
<svg
   xmlns:dc="http://purl.org/dc/elements/1.1/"
   xmlns:cc="http://creativecommons.org/ns#"
   xmlns:rdf="http://www.w3.org/1999/02/22-rdf-syntax-ns#"
   xmlns:svg="http://www.w3.org/2000/svg"
   xmlns="http://www.w3.org/2000/svg"
   xmlns:sodipodi="http://sodipodi.sourceforge.net/DTD/sodipodi-0.dtd"
   xmlns:inkscape="http://www.inkscape.org/namespaces/inkscape"
   width="32"
   height="32"
   version="1.1"
   id="svg12"
   sodipodi:docname="konversation.svg"
   inkscape:version="1.0.2 (e86c870879, 2021-01-15)">
  <g
     id="22-22-konversation">
    <rect
       style="opacity:0.00100002"
       width="22"
       height="22"
       x="32"
       y="10"
       id="rect2" />
    <path
       d="M 48.481064,13.000022 H 37.53816 C 36.138614,13.000022 35,14.138636 35,15.538181 v 6.383308 c 0,1.423213 0.6664,2.538151 1.5172,2.538151 h 1.000317 l 3.45e-4,3.833581 c 0,0.462597 0.185293,0.625994 0.340857,0.681529 C 37.900759,28.98969 37.949299,29 38.003778,29 38.1508,29 38.340187,28.92489 38.553959,28.663773 L 42.002,24.459618 h 6.479064 c 1.399549,0 2.538165,-1.138608 2.538165,-2.538151 V 15.53816 C 51.019229,14.138614 49.880613,13 48.481064,13 Z m 2.021453,8.921467 c 0,1.114577 -0.906695,2.021444 -2.021276,2.021444 h -6.601693 c -0.07743,0 -0.150768,0.03468 -0.19971,0.09451 l -3.525657,4.298852 c -0.0427,0.05199 -0.07887,0.08723 -0.106788,0.110002 -0.0076,-0.03544 -0.01282,-0.08564 -0.01282,-0.153073 l -3.67e-4,-4.092019 c 0,-0.142576 -0.115691,-0.258441 -0.258443,-0.258441 h -1.258568 c -0.473109,0 -1.000315,-0.830161 -1.000315,-2.021453 v -6.383127 c 0,-1.11458 0.906873,-2.021446 2.021442,-2.021446 h 10.942915 c 1.114579,0 2.021272,0.906866 2.021272,2.021446 z"
       id="path8-6"
       style="fill:#eff0f1;fill-opacity:1;stroke-width:0.177999" />
  </g>
  <metadata
     id="metadata18">
    <rdf:RDF>
      <cc:Work
         rdf:about="">
        <dc:format>image/svg+xml</dc:format>
        <dc:type
           rdf:resource="http://purl.org/dc/dcmitype/StillImage" />
      </cc:Work>
    </rdf:RDF>
  </metadata>
  <defs
     id="defs16" />
  <sodipodi:namedview
     pagecolor="#ffffff"
     bordercolor="#666666"
     borderopacity="1"
     objecttolerance="10"
     gridtolerance="10"
     guidetolerance="10"
     inkscape:pageopacity="0"
     inkscape:pageshadow="2"
     inkscape:window-width="1920"
     inkscape:window-height="1007"
     id="namedview14"
     showgrid="false"
     inkscape:zoom="9.8125"
     inkscape:cx="20.483395"
     inkscape:cy="13.972931"
     inkscape:window-x="0"
     inkscape:window-y="0"
     inkscape:window-maximized="1"
     inkscape:current-layer="svg12"
     inkscape:document-rotation="0"
     inkscape:lockguides="false">
    <inkscape:grid
       type="xygrid"
       id="grid904"
       originx="0"
       originy="0" />
  </sodipodi:namedview>
  <g
     id="g14"
     transform="matrix(0.26698705,0,0,0.26698705,-86.72515,-29.247442)">
    <g
       id="g987">
      <path
         fill="none"
         d="M 75.661,26.84 H 24.339 c -1.319,0 -2.392,1.073 -2.392,2.391 0,1.318 1.073,2.391 2.392,2.391 h 51.322 c 1.319,0 2.391,-1.073 2.391,-2.391 0,-1.318 -1.072,-2.391 -2.391,-2.391 z"
         id="path2-3" />
      <path
         fill="none"
         d="M 75.661,43.762 H 24.339 c -1.319,0 -2.392,1.073 -2.392,2.391 0,1.318 1.073,2.391 2.392,2.391 h 51.322 c 1.319,0 2.391,-1.073 2.391,-2.391 0,-1.318 -1.072,-2.391 -2.391,-2.391 z"
         id="path4" />
      <path
         fill="none"
         d="M 80.74,7.957 H 19.26 c -6.262,0 -11.357,5.095 -11.357,11.357 v 35.863 c 0,6.693 2.962,11.357 5.62,11.357 h 7.071 c 0.801,0 1.452,0.65 1.452,1.452 l 0.002,22.99 c 0,0.379 0.033,0.661 0.072,0.86 0.156,-0.129 0.36,-0.326 0.6,-0.618 L 42.528,67.066 c 0.275,-0.336 0.688,-0.531 1.122,-0.531 h 37.09 c 6.262,0 11.356,-5.095 11.356,-11.357 V 19.314 C 92.097,13.052 87.002,7.957 80.74,7.957 Z m -5.079,43.49 H 24.339 c -2.92,0 -5.295,-2.375 -5.295,-5.294 0,-2.919 2.375,-5.294 5.295,-5.294 h 51.322 c 2.919,0 5.295,2.375 5.295,5.294 0,2.919 -2.375,5.294 -5.295,5.294 z m 0,-16.921 H 24.339 c -2.92,0 -5.295,-2.375 -5.295,-5.294 0,-2.919 2.375,-5.294 5.295,-5.294 h 51.322 c 2.919,0 5.295,2.375 5.295,5.294 0,2.919 -2.375,5.294 -5.295,5.294 z"
         id="path6" />
    </g>
  </g>
  <g
     id="konversation">
    <rect
       style="opacity:0.00100002"
       width="32"
       height="32"
       x="0"
       y="0"
       id="rect7" />
    <path
       d="M 24.221599,4 H 7.807235 C 5.707916,4 4,5.707916 4,7.807235 v 9.574956 c 0,2.134829 0.9996,3.807236 2.275798,3.807236 h 1.500467 l 5.34e-4,5.750367 c 0,0.693899 0.2779329,0.938993 0.5112799,1.022293 0.06301,0.02243 0.135897,0.03791 0.217595,0.03791 0.220531,0 0.504605,-0.112668 0.825257,-0.504338 l 5.1720731,-6.306234 h 9.718595 c 2.099319,0 3.807236,-1.707916 3.807236,-3.807236 V 7.807235 C 28.028835,5.707916 26.320918,4 24.221599,4 Z m 3.032172,13.382191 c 0,1.671873 -1.360032,3.032172 -3.031905,3.032172 h -9.902549 c -0.11614,0 -0.226138,0.05206 -0.29956,0.14177 l -5.2884791,6.448272 c -0.06408,0.07796 -0.118276,0.130823 -0.160193,0.164998 -0.01068,-0.05313 -0.01922,-0.128421 -0.01922,-0.229609 l -5.34e-4,-6.138033 c 0,-0.213856 -0.173541,-0.387665 -0.387665,-0.387665 H 6.275801 c -0.709652,0 -1.500467,-1.245227 -1.500467,-3.032172 V 7.807235 c 0,-1.671873 1.360299,-3.032172 3.032171,-3.032172 h 16.414364 c 1.671873,0 3.031905,1.360299 3.031905,3.032172 z"
       id="path8-3"
       style="fill:#eff0f1;fill-opacity:1;stroke-width:0.266987" />
  </g>
</svg>
