<?xml version="1.0" encoding="UTF-8" standalone="no"?>
<svg
   width="32"
   version="1.1"
   height="32"
   viewBox="0 0 32 32"
   id="svg15"
   sodipodi:docname="folder-Arch.svg"
   inkscape:version="1.2.1 (9c6d41e410, 2022-07-14)"
   xmlns:inkscape="http://www.inkscape.org/namespaces/inkscape"
   xmlns:sodipodi="http://sodipodi.sourceforge.net/DTD/sodipodi-0.dtd"
   xmlns:xlink="http://www.w3.org/1999/xlink"
   xmlns="http://www.w3.org/2000/svg"
   xmlns:svg="http://www.w3.org/2000/svg"
   xmlns:rdf="http://www.w3.org/1999/02/22-rdf-syntax-ns#"
   xmlns:cc="http://creativecommons.org/ns#"
   xmlns:dc="http://purl.org/dc/elements/1.1/">
  <sodipodi:namedview
     pagecolor="#ffffff"
     bordercolor="#666666"
     borderopacity="1"
     objecttolerance="10"
     gridtolerance="10"
     guidetolerance="10"
     inkscape:pageopacity="0"
     inkscape:pageshadow="2"
     inkscape:window-width="1920"
     inkscape:window-height="1002"
     id="namedview17"
     showgrid="false"
     inkscape:zoom="9.8125"
     inkscape:cx="-13.095541"
     inkscape:cy="6.4713376"
     inkscape:window-x="0"
     inkscape:window-y="0"
     inkscape:window-maximized="1"
     inkscape:current-layer="layer1"
     inkscape:document-rotation="0"
     inkscape:showpageshadow="2"
     inkscape:pagecheckerboard="0"
     inkscape:deskcolor="#d1d1d1" />
  <defs
     id="defs5455">
    <linearGradient
       inkscape:collect="always"
       xlink:href="#linearGradient847-6"
       id="linearGradient859-3"
       x1="197.81151"
       y1="281.25015"
       x2="486.28662"
       y2="281.25015"
       gradientUnits="userSpaceOnUse"
       gradientTransform="matrix(0.05859379,0,0,0.06178774,385.57143,515.92949)" />
    <linearGradient
       inkscape:collect="always"
       id="linearGradient847-6">
      <stop
         style="stop-color:#8fbcbb;stop-opacity:1"
         offset="0"
         id="stop843-7" />
      <stop
         style="stop-color:#88c0d0;stop-opacity:1"
         offset="1"
         id="stop845-5" />
    </linearGradient>
    <linearGradient
       inkscape:collect="always"
       xlink:href="#linearGradient843"
       id="linearGradient845"
       x1="424.10419"
       y1="503.7821"
       x2="443.61319"
       y2="503.7821"
       gradientUnits="userSpaceOnUse"
       gradientTransform="matrix(0.48293836,0,0,0.50034415,199.3642,273.72974)" />
    <linearGradient
       inkscape:collect="always"
       id="linearGradient843">
      <stop
         style="stop-color:#434c5e;stop-opacity:1"
         offset="0"
         id="stop839" />
      <stop
         style="stop-color:#a2adbc;stop-opacity:1"
         offset="1"
         id="stop841" />
    </linearGradient>
  </defs>
  <metadata
     id="metadata5458">
    <rdf:RDF>
      <cc:Work
         rdf:about="">
        <dc:format>image/svg+xml</dc:format>
        <dc:type
           rdf:resource="http://purl.org/dc/dcmitype/StillImage" />
      </cc:Work>
    </rdf:RDF>
  </metadata>
  <g
     inkscape:label="Capa 1"
     inkscape:groupmode="layer"
     id="layer1"
     transform="translate(-384.57143,-515.798)">
    <path
       style="fill:#81a1c1;fill-opacity:1;stroke-width:0.0601698"
       d="m 401.36764,522.28319 c 0.48402,0.50452 1.13729,0.78743 1.81794,0.78743 h 1.00655 2.61417 c -0.68066,0 -1.33392,-0.28291 -1.81794,-0.78743 l -1.629,-1.69769 c -0.48425,-0.50459 -1.13736,-0.7875 -1.81792,-0.7875 h -3.62074 c 0.68055,0 1.33377,0.28291 1.81795,0.7875 z"
       id="path2-3" />
    <path
       style="fill:#5e81ac;fill-opacity:1;stroke-width:0.0601698"
       d="m 396.11784,520.5855 1.62909,1.69769 c 0.48401,0.50452 1.13719,0.78743 1.81792,0.78743 h 1.00658 2.61416 c -0.68066,0 -1.33392,-0.28291 -1.81795,-0.78743 l -1.62899,-1.69769 c -0.48424,-0.50459 -1.1374,-0.7875 -1.81794,-0.7875 h -3.55618 -0.0648 c 0.68064,0 1.33375,0.28297 1.81786,0.7875 z"
       id="path4-5" />
    <path
       style="fill:url(#linearGradient859-3);fill-opacity:1;stroke-width:0.0564453"
       d="m 414.01966,522.67802 h -6.20692 -1.00656 -2.61418 -1.00654 -2.61403 -1.00659 c -0.68072,0 -1.3339,-0.24899 -1.81791,-0.693 l -1.62909,-1.49402 c -0.48417,-0.44403 -1.13728,-0.693 -1.81792,-0.693 h -3.55607 -3.62064 c -0.85703,0 -1.55178,0.6447 -1.55178,1.44001 v 2.88001 0.48002 17.75995 c 0,0.79531 0.69475,1.44001 1.55178,1.44001 h 26.89645 c 0.85703,0 1.55177,-0.6447 1.55177,-1.44001 v -18.23997 c 0,-0.79537 -0.69474,-1.44 -1.55177,-1.44 z m -9.8276,2.87996 z m 9.31047,0.48001 c 0,0.53015 -0.46317,0.95999 -1.03458,0.95999 h -7.24136 c -0.57135,0 -1.03453,-0.42984 -1.03453,-0.95999 v -0.48001 c 0,-0.53015 0.46318,-0.95999 1.03453,-0.95999 h 7.24134 c 0.57137,0 1.03454,0.42984 1.03454,0.95999 v 0.48001 z"
       id="path6-6"
       sodipodi:nodetypes="scccccsccscssccssssssccccccccccssssssscc" />
    <path
       style="fill:url(#linearGradient845);fill-opacity:1;stroke-width:0.0601698"
       d="m 412.46793,524.43061 h -7.24134 c -0.57135,0 -1.04621,0.48838 -1.04621,1.09083 v 0.54548 c 0,0.60243 0.47486,1.09083 1.04621,1.09083 h 7.24134 c 0.57137,0 1.10945,-0.48855 1.12238,-1.09083 l 0.0121,-0.54548 c 6e-5,-0.60245 -0.56265,-1.09083 -1.13411,-1.09083 z"
       id="path8-2"
       sodipodi:nodetypes="ssssssscs" />
    <g
       id="start-here-kde-3"
       transform="matrix(0.06017273,0,0,0.06017273,388.32821,529.80959)"
       inkscape:label="#start-here-kde"
       style="fill:#434c5e;fill-opacity:1">
      <g
         id="22-22-start-here-kde-3-7-2-6"
         style="fill:#434c5e;fill-opacity:1">
        <g
           transform="translate(-50.6,-139.51)"
           id="g6-5-9-1"
           style="fill:#434c5e;fill-opacity:1">
          <g
             transform="matrix(0.87464,0,0,0.87464,14.731,23.409)"
             id="g4-3-1-2"
             style="fill:#434c5e;fill-opacity:1">
            <path
               transform="matrix(1.1433,0,0,1.1433,22.92,121.64)"
               d="M 105.81,16.625 C 98.4131,34.76 93.952,46.623 85.716,64.219 90.7654,69.5713 96.963,75.804 107.028,82.844 96.207,78.3912 88.825,73.9206 83.309,69.282 c -10.54,21.993 -27.053,53.321 -60.562,113.53 26.338,-15.205 46.754,-24.579 65.781,-28.156 -0.81703,-3.514 -1.2816,-7.3152 -1.25,-11.281 l 0.03125,-0.84375 c 0.41792,-16.874 9.1957,-29.85 19.594,-28.969 10.398,0.88104 18.48,15.282 18.062,32.156 -0.0786,3.1751 -0.43674,6.2296 -1.0625,9.0625 18.821,3.6816 39.019,13.032 65,28.031 -5.123,-9.4318 -9.6957,-17.934 -14.062,-26.031 -6.8784,-5.3312 -14.053,-12.27 -28.688,-19.781 10.059,2.6138 17.261,5.6293 22.875,9 -44.398,-82.662 -47.994,-93.646 -63.219,-129.38 z"
               id="path2-5-2-9"
               style="fill:#434c5e;fill-opacity:1" />
          </g>
        </g>
      </g>
    </g>
  </g>
</svg>
