<?xml version="1.0" encoding="UTF-8" standalone="no"?>
<svg
   xmlns:dc="http://purl.org/dc/elements/1.1/"
   xmlns:cc="http://creativecommons.org/ns#"
   xmlns:rdf="http://www.w3.org/1999/02/22-rdf-syntax-ns#"
   xmlns:svg="http://www.w3.org/2000/svg"
   xmlns="http://www.w3.org/2000/svg"
   xmlns:sodipodi="http://sodipodi.sourceforge.net/DTD/sodipodi-0.dtd"
   xmlns:inkscape="http://www.inkscape.org/namespaces/inkscape"
   width="22"
   height="22"
   version="1.1"
   id="svg12"
   sodipodi:docname="drive.svg"
   inkscape:version="1.0.2 (e86c870879, 2021-01-15)">
  <g
     id="22-22-drive-harddisk">
    <g
       id="g996">
      <g
         id="g985">
        <rect
           style="opacity:0.00100002"
           width="22"
           height="22"
           x="0"
           y="-4.6325681e-08"
           id="rect2" />
        <path
           d="M 11.028551,8.75 A 1.9555563,1.9555563 0 1 0 12.984113,10.705557 1.9555563,1.9555563 0 0 0 11.028551,8.75 Z m 0,2.933335 a 0.97777836,0.97777836 0 1 1 0.977779,-0.977778 0.97777836,0.97777836 0 0 1 -0.977779,0.977778 z"
           id="path6-35"
           style="fill:#8fbcbb;fill-opacity:1;stroke-width:0.48888" />
        <path
           d="M 11.034751,13.51087 C 9.471647,13.51087 8.2,12.239236 8.2,10.676119 8.2,10.113443 8.366769,9.570194 8.675999,9.107452 H 8.413544 C 8.29568,9.107452 8.2,9.011782 8.2,8.89391 V 5.853294 C 8.2,5.735428 8.29567,5.639761 8.413544,5.639761 h 5.241988 c 0.118097,0 0.213551,0.09567 0.213551,0.213533 v 3.040398 c 0,0.117873 -0.09543,0.213543 -0.213551,0.213543 h -0.262426 c 0.309199,0.462959 0.475977,1.006208 0.475977,1.568674 0,1.563327 -1.271428,2.834961 -2.834332,2.834961 z M 8.627077,8.680149 h 0.48944 c 0.08501,0 0.161865,0.05039 0.195808,0.128348 0.03398,0.07793 0.01841,0.168478 -0.03948,0.230828 -0.416406,0.447803 -0.645756,1.029054 -0.645756,1.636794 0,1.327581 1.080098,2.407674 2.407672,2.407674 1.327373,0 2.407247,-1.080302 2.407247,-2.407674 0,-0.607309 -0.229342,-1.188574 -0.645525,-1.637 -0.05795,-0.06235 -0.07321,-0.152904 -0.03949,-0.230622 0.03399,-0.07793 0.111034,-0.128348 0.195813,-0.128348 h 0.489205 V 6.066836 H 8.62714 Z"
           id="path4-62"
           style="fill:#eff0f1;fill-opacity:1;stroke-width:0.213529" />
        <path
           d="M 11.487409,16.243104 H 10.52194 c -0.0397,0 -0.07194,-0.109513 -0.07194,-0.244448 0,-0.134932 0.03223,-0.24444 0.07194,-0.24444 h 0.965469 c 0.03978,0 0.07194,0.109508 0.07194,0.24444 0,0.134935 -0.03215,0.244448 -0.07194,0.244448 z"
           id="path6-3-9"
           style="fill:#eff0f1;fill-opacity:1;stroke-width:0.132603" />
        <path
           d="M 16.75,19 H 5.321437 C 5.006,19 4.75,18.744 4.75,18.428565 V 3.571429 C 4.75,3.256 5.006,3 5.321437,3 H 16.75 c 0.315437,0 0.571437,0.256 0.571437,0.571429 V 18.428565 C 17.321437,18.744 17.065437,19 16.75,19 Z M 5.892853,17.857141 h 10.28571 V 4.142856 H 5.892853 Z"
           id="path2-36-1"
           style="fill:#eff0f1;fill-opacity:1;stroke-width:1.14292" />
        <path
           d="m 11.017182,7.057889 c -0.115327,0 -0.209182,0.09383 -0.209182,0.209212 0,0.115278 0.09382,0.2091 0.209182,0.2091 0.115308,0 0.209137,-0.09383 0.209137,-0.2091 0,-0.115386 -0.09379,-0.209212 -0.209137,-0.209212 z"
           id="path2-3-2"
           style="fill:#eff0f1;fill-opacity:1;stroke-width:0.0374997" />
        <path
           d="m 11.018003,6.557112 c -0.391474,0 -0.710003,0.318452 -0.710003,0.709989 0,0.162751 0.05696,0.322053 0.160402,0.448539 l 0.01682,0.02626 0.532762,1.355591 0.542652,-1.373478 0.0081,-0.0092 c 0.102895,-0.125889 0.159641,-0.284928 0.159641,-0.447678 3.4e-5,-0.391573 -0.318495,-0.710026 -0.709915,-0.710026 z m 0,1.088667 c -0.208839,0 -0.378752,-0.169914 -0.378752,-0.378715 0,-0.208876 0.169863,-0.378787 0.378752,-0.378787 0.2088,0 0.378711,0.169911 0.378711,0.378787 0,0.208838 -0.169911,0.378716 -0.378711,0.378715 z"
           id="path4-6-7"
           style="fill:#eff0f1;fill-opacity:1;stroke-width:0.0374997" />
        <path
           d="m 11.018003,6.416 c -0.469275,0 -0.851003,0.381826 -0.851003,0.851101 0,0.193839 0.06748,0.383703 0.189748,0.534679 l 0.0049,0.0073 0.656736,1.606881 L 11.67959,7.80188 C 11.802013,7.650868 11.869433,7.460929 11.869433,7.267016 11.869284,6.79779 11.487535,6.415965 11.018295,6.415965 Z m 0.610149,1.34824 -0.0043,0.0046 L 11.017544,9.309572 10.415143,7.77574 10.405843,7.7616 C 10.292998,7.62402 10.2303,7.447886 10.2303,7.267135 c 0,-0.43433 0.353288,-0.787616 0.787579,-0.787616 0.434248,0 0.787533,0.353286 0.787533,0.787616 0,0.180713 -0.06304,0.357224 -0.177374,0.497176 z"
           id="path6-75-0"
           style="fill:#eff0f1;fill-opacity:1;stroke-width:0.0374997" />
      </g>
    </g>
  </g>
  <metadata
     id="metadata18">
    <rdf:RDF>
      <cc:Work
         rdf:about="">
        <dc:format>image/svg+xml</dc:format>
        <dc:type
           rdf:resource="http://purl.org/dc/dcmitype/StillImage" />
        <dc:title />
      </cc:Work>
    </rdf:RDF>
  </metadata>
  <defs
     id="defs16" />
  <sodipodi:namedview
     pagecolor="#ffffff"
     bordercolor="#000000"
     borderopacity="1"
     objecttolerance="10"
     gridtolerance="10"
     guidetolerance="10"
     inkscape:pageopacity="0"
     inkscape:pageshadow="2"
     inkscape:window-width="1920"
     inkscape:window-height="1007"
     id="namedview14"
     showgrid="false"
     inkscape:zoom="8.0000003"
     inkscape:cx="-8.0486494"
     inkscape:cy="9.0643608"
     inkscape:window-x="0"
     inkscape:window-y="0"
     inkscape:window-maximized="1"
     inkscape:current-layer="svg12"
     inkscape:document-rotation="0"
     inkscape:lockguides="false"
     inkscape:showpageshadow="false">
    <inkscape:grid
       type="xygrid"
       id="grid875"
       originx="-32"
       originy="-10.000001" />
  </sodipodi:namedview>
  <g
     id="drive-harddisk">
    <rect
       style="opacity:0.00100002"
       width="32"
       height="32"
       x="-32"
       y="-10.000001"
       id="rect7" />
    <path
       d="m -16.056774,2.699418 a 2.9333334,2.9333334 0 1 0 2.933341,2.933334 2.9333334,2.9333334 0 0 0 -2.933341,-2.933334 z m 0,4.4 a 1.4666666,1.4666666 0 1 1 1.466675,-1.466666 1.4666666,1.4666666 0 0 1 -1.466675,1.466666 z"
       id="path6"
       style="fill:#8fbcbb;fill-opacity:1;stroke-width:0.733334" />
    <path
       d="m -16.010309,9.766303 c -2.344664,0 -4.252124,-1.907451 -4.252124,-4.252127 0,-0.844013 0.250157,-1.658887 0.713975,-2.352999 h -0.393678 c -0.176795,0 -0.320297,-0.143508 -0.320297,-0.320313 v -4.5609237 c 0,-0.1768003 0.143502,-0.3203 0.320297,-0.3203 h 7.863005 c 0.17714,0 0.320313,0.1434997 0.320313,0.3203 V 2.840537 c 0,0.17681 -0.143173,0.320314 -0.320313,0.320314 h -0.393661 c 0.463817,0.694438 0.713974,1.509312 0.713974,2.353011 0,2.34499 -1.90713,4.252441 -4.251491,4.252441 z m -3.611512,-7.246081 h 0.734166 c 0.127474,0 0.242777,0.07559 0.293717,0.192523 0.05088,0.116896 0.02753,0.252716 -0.05928,0.346242 -0.624614,0.671704 -0.968624,1.543581 -0.968624,2.455189 0,1.991373 1.620134,3.611512 3.611509,3.611512 1.991058,0 3.610867,-1.620454 3.610867,-3.611512 0,-0.910961 -0.344011,-1.782859 -0.968301,-2.455499 -0.08684,-0.09352 -0.109878,-0.229356 -0.05929,-0.345932 0.05088,-0.116895 0.166553,-0.192523 0.29371,-0.192523 h 0.733838 v -3.91997 h -7.222304 z"
       id="path4"
       style="fill:#eff0f1;fill-opacity:1;stroke-width:0.320306" />
    <path
       d="m -15.100464,13.864652 h -1.838546 c -0.07562,0 -0.13699,-0.164266 -0.13699,-0.366666 0,-0.2024 0.06137,-0.366659 0.13699,-0.366659 h 1.838546 c 0.07575,0 0.13699,0.164259 0.13699,0.366659 0,0.2024 -0.06124,0.366666 -0.13699,0.366666 z"
       id="path6-3"
       style="fill:#eff0f1;fill-opacity:1;stroke-width:0.224119" />
    <path
       d="m -7.4,17.999999 h -17.14286 c -0.47314,0 -0.85714,-0.384 -0.85714,-0.857144 V -5.142858 c 0,-0.473143 0.384,-0.857143 0.85714,-0.857143 H -7.4 c 0.47314,0 0.85714,0.384 0.85714,0.857143 v 22.285713 c 0,0.473144 -0.384,0.857144 -0.85714,0.857144 z m -16.28571,-1.714294 h 15.42857 v -20.57142 h -15.42857 z"
       id="path2-36"
       style="fill:#eff0f1;fill-opacity:1;stroke-width:1.71432" />
    <path
       d="m -15.923517,0.08683205 c -0.172967,0 -0.313762,0.140739 -0.313762,0.313819 0,0.172917 0.140795,0.313651 0.313762,0.313651 0.172968,0 0.313708,-0.140734 0.313708,-0.313651 0,-0.17308 -0.14074,-0.313819 -0.313708,-0.313819 z"
       id="path2-3"
       style="fill:#eff0f1;fill-opacity:1;stroke-width:0.0562501" />
    <path
       d="m -15.923517,-0.66433155 c -0.587194,0 -1.064983,0.4776776 -1.064983,1.0649826 0,0.244127 0.08555,0.483078 0.240582,0.67280795 l 0.02525,0.03938 0.799143,2.033388 0.813996,-2.060217 0.01142,-0.01378 c 0.15435,-0.18883395 0.239455,-0.42739195 0.239455,-0.67151695 5.6e-5,-0.58736 -0.477731,-1.0650389 -1.064871,-1.0650389 z m 0,1.6329986 c -0.313257,0 -0.568126,-0.25487 -0.568126,-0.568071 0,-0.313314 0.254814,-0.568182 0.568126,-0.568182 0.3132,0 0.568071,0.254868 0.568071,0.568182 0,0.313256 -0.254871,0.568072 -0.568071,0.568071 z"
       id="path4-6"
       style="fill:#eff0f1;fill-opacity:1;stroke-width:0.0562501" />
    <path
       d="m -15.923517,-0.87600095 c -0.703912,0 -1.276483,0.5727379 -1.276483,1.276652 0,0.290758 0.101096,0.575554 0.284625,0.80201695 l 0.0069,0.01101 0.98505,2.410321 0.991802,-2.421121 c 0.183641,-0.22651995 0.284772,-0.51142895 0.284772,-0.80229795 -1.82e-4,-0.7038431 -0.572808,-1.276581 -1.276666,-1.276581 z m 0.915246,2.02235995 -0.0056,0.0069 -0.909507,2.311098 -0.903601,-2.300748 -0.01435,-0.0212 c -0.169251,-0.20636995 -0.2633,-0.47057095 -0.2633,-0.74169695 0,-0.6514953 0.529931,-1.1814243 1.181364,-1.1814243 0.651376,0 1.181307,0.529929 1.181307,1.1814243 0,0.271068 -0.09445,0.535836 -0.266062,0.74576295 z"
       id="path6-75"
       style="fill:#eff0f1;fill-opacity:1;stroke-width:0.0562501" />
  </g>
</svg>
