<?xml version="1.0" encoding="UTF-8" standalone="no"?>
<svg
   xmlns:dc="http://purl.org/dc/elements/1.1/"
   xmlns:cc="http://creativecommons.org/ns#"
   xmlns:rdf="http://www.w3.org/1999/02/22-rdf-syntax-ns#"
   xmlns:svg="http://www.w3.org/2000/svg"
   xmlns="http://www.w3.org/2000/svg"
   xmlns:sodipodi="http://sodipodi.sourceforge.net/DTD/sodipodi-0.dtd"
   xmlns:inkscape="http://www.inkscape.org/namespaces/inkscape"
   width="32"
   height="32"
   id="svg3869"
   version="1.1"
   viewBox="0 0 32 32.000001"
   sodipodi:docname="input.svg"
   inkscape:version="1.0.2 (e86c870879, 2021-01-15)">
  <sodipodi:namedview
     pagecolor="#ffffff"
     bordercolor="#000000"
     borderopacity="1"
     objecttolerance="10"
     gridtolerance="10"
     guidetolerance="10"
     inkscape:pageopacity="0"
     inkscape:pageshadow="2"
     inkscape:window-width="1920"
     inkscape:window-height="1007"
     id="namedview49"
     showgrid="false"
     inkscape:zoom="1.6404877"
     inkscape:cx="18.844538"
     inkscape:cy="-94.203275"
     inkscape:window-x="0"
     inkscape:window-y="0"
     inkscape:window-maximized="1"
     inkscape:current-layer="svg3869"
     inkscape:document-rotation="0"
     inkscape:lockguides="false"
     inkscape:showpageshadow="false">
    <inkscape:grid
       type="xygrid"
       id="grid874"
       originx="-38"
       originy="-224.00002" />
  </sodipodi:namedview>
  <metadata
     id="metadata25">
    <rdf:RDF>
      <cc:Work
         rdf:about="">
        <dc:format>image/svg+xml</dc:format>
        <dc:type
           rdf:resource="http://purl.org/dc/dcmitype/StillImage" />
        <dc:title></dc:title>
      </cc:Work>
    </rdf:RDF>
  </metadata>
  <defs
     id="defs3871">
    <style
       type="text/css"
       id="current-color-scheme" />
    <linearGradient
       id="a"
       gradientUnits="userSpaceOnUse"
       x1="41"
       x2="23"
       y1="58"
       y2="6"
       gradientTransform="matrix(0.46153841,0,0,0.46153841,1.215575,1.2307666)">
      <stop
         offset="0"
         stop-color="#848f9a"
         id="stop2" />
      <stop
         offset=".33333299"
         stop-color="#bdc2c7"
         id="stop4" />
      <stop
         offset="1"
         stop-color="#f6f6f6"
         id="stop6" />
    </linearGradient>
    <linearGradient
       id="d"
       gradientUnits="userSpaceOnUse"
       x1="32"
       x2="32"
       y1="6"
       y2="28"
       gradientTransform="matrix(0.46153841,0,0,0.46153841,1.215575,1.2307666)">
      <stop
         offset="0"
         stop-color="#68737e"
         id="stop21" />
      <stop
         offset="1"
         stop-color="#7a8692"
         id="stop23" />
    </linearGradient>
    <linearGradient
       id="c"
       gradientTransform="matrix(-0.46153841,0,0,0.46153841,-10.322886,1.2307666)"
       gradientUnits="userSpaceOnUse"
       x1="-60"
       x2="-54"
       y1="22"
       y2="12">
      <stop
         offset="0"
         stop-color="#8e98a2"
         id="stop16" />
      <stop
         offset="1"
         stop-color="#6c7884"
         id="stop18" />
    </linearGradient>
    <linearGradient
       id="e"
       gradientTransform="matrix(-0.46153846,0,0,0.46153846,-10.322887,1.2307616)"
       gradientUnits="userSpaceOnUse"
       x1="-55"
       x2="-55"
       y1="22"
       y2="12">
      <stop
         offset="0"
         stop-color="#232629"
         id="stop26" />
      <stop
         offset=".333"
         stop-color="#373d43"
         id="stop28" />
      <stop
         offset=".667"
         stop-color="#565f68"
         id="stop30" />
      <stop
         offset="1"
         stop-color="#474e55"
         id="stop32" />
    </linearGradient>
    <linearGradient
       id="b"
       gradientTransform="matrix(-0.46153846,0,0,0.46153846,-10.322887,1.2307616)"
       gradientUnits="userSpaceOnUse"
       x1="-55"
       x2="-55"
       y1="12"
       y2="22">
      <stop
         offset="0"
         stop-color="#54b5e8"
         id="stop9" />
      <stop
         offset=".333"
         stop-color="#8fd9ff"
         id="stop11" />
      <stop
         offset="1"
         stop-color="#369acf"
         id="stop13" />
    </linearGradient>
    <linearGradient
       id="f"
       gradientUnits="userSpaceOnUse"
       x1="21.005859"
       x2="21"
       y1="21.005859"
       y2="58"
       gradientTransform="matrix(0.46153846,0,0,0.46153846,1.215574,1.2307616)">
      <stop
         offset="0"
         stop-color="#565f68"
         id="stop35" />
      <stop
         offset=".5945304"
         stop-color="#68737e"
         id="stop37" />
      <stop
         offset="1"
         stop-color="#424950"
         id="stop39" />
    </linearGradient>
    <linearGradient
       id="a-3"
       gradientUnits="userSpaceOnUse"
       x1="41"
       x2="23"
       y1="58"
       y2="6"
       gradientTransform="matrix(0.30769228,0,0,0.30769228,-18.922785,11.15386)">
      <stop
         offset="0"
         stop-color="#848f9a"
         id="stop2-6" />
      <stop
         offset=".33333299"
         stop-color="#bdc2c7"
         id="stop4-7" />
      <stop
         offset="1"
         stop-color="#f6f6f6"
         id="stop6-5" />
    </linearGradient>
    <linearGradient
       id="d-3"
       gradientUnits="userSpaceOnUse"
       x1="32"
       x2="32"
       y1="6"
       y2="28"
       gradientTransform="matrix(0.30769228,0,0,0.30769228,-18.922785,11.15386)">
      <stop
         offset="0"
         stop-color="#68737e"
         id="stop21-5" />
      <stop
         offset="1"
         stop-color="#7a8692"
         id="stop23-6" />
    </linearGradient>
    <linearGradient
       id="c-2"
       gradientTransform="matrix(-0.30769228,0,0,0.30769228,-26.615092,11.15386)"
       gradientUnits="userSpaceOnUse"
       x1="-60"
       x2="-54"
       y1="22"
       y2="12">
      <stop
         offset="0"
         stop-color="#8e98a2"
         id="stop16-9" />
      <stop
         offset="1"
         stop-color="#6c7884"
         id="stop18-1" />
    </linearGradient>
    <linearGradient
       id="e-2"
       gradientTransform="matrix(-0.30769232,0,0,0.30769232,-26.615093,11.153857)"
       gradientUnits="userSpaceOnUse"
       x1="-55"
       x2="-55"
       y1="22"
       y2="12">
      <stop
         offset="0"
         stop-color="#232629"
         id="stop26-7" />
      <stop
         offset=".333"
         stop-color="#373d43"
         id="stop28-0" />
      <stop
         offset=".667"
         stop-color="#565f68"
         id="stop30-9" />
      <stop
         offset="1"
         stop-color="#474e55"
         id="stop32-3" />
    </linearGradient>
    <linearGradient
       id="b-6"
       gradientTransform="matrix(-0.30769232,0,0,0.30769232,-26.615093,11.153857)"
       gradientUnits="userSpaceOnUse"
       x1="-55"
       x2="-55"
       y1="12"
       y2="22">
      <stop
         offset="0"
         stop-color="#54b5e8"
         id="stop9-0" />
      <stop
         offset=".333"
         stop-color="#8fd9ff"
         id="stop11-6" />
      <stop
         offset="1"
         stop-color="#369acf"
         id="stop13-2" />
    </linearGradient>
    <linearGradient
       id="f-6"
       gradientUnits="userSpaceOnUse"
       x1="21.005859"
       x2="21"
       y1="21.005859"
       y2="58"
       gradientTransform="matrix(0.30769232,0,0,0.30769232,-18.922785,11.153857)">
      <stop
         offset="0"
         stop-color="#565f68"
         id="stop35-1" />
      <stop
         offset=".5945304"
         stop-color="#68737e"
         id="stop37-8" />
      <stop
         offset="1"
         stop-color="#424950"
         id="stop39-7" />
    </linearGradient>
  </defs>
  <g
     transform="translate(-370,-620.36216)"
     id="22-22-input-keyboard-battery">
    <rect
       style="opacity:1;fill:none"
       width="22"
       height="22"
       x="348"
       y="534.36218"
       ry="0"
       id="rect15" />
    <path
       style="fill:#eff0f1;fill-opacity:1;stroke:none"
       d="m 20,141 v 14 l 7,2 7,-2 v -5 h -1 v 2 H 21 v -10 h 8 v -1 z m 12,0 -2,5 h 2 v 3 l 2,-5 H 32 Z M 26.4375,144 24,150 h 1.074219 l 0.40625,-1 h 3.039062 l 0.40625,1 H 30 l -2.439453,-6 H 27.023438 L 27,144.00977 26.976562,144 Z M 27,145.25781 28.113281,148 H 25.886719 Z M 21,153 h 12 v 1 H 21 Z"
       transform="translate(332,396.36218)"
       id="path17" />
  </g>
  <g
     transform="translate(-392,-652.36216)"
     id="22-22-input-keyboard-brightness">
    <rect
       ry="0"
       y="534.36218"
       x="370"
       height="22"
       width="22"
       style="opacity:1;fill:none"
       id="rect20" />
    <path
       style="fill:#eff0f1;fill-opacity:1;stroke:none"
       d="m 20,109 v 14 l 7,2 7,-2 v -9 h -1 v 6 H 21 v -10 h 8 v -1 z m 12,0 c -1.10457,0 -2,0.89543 -2,2 0,1.10457 0.89543,2 2,2 1.10457,0 2,-0.89543 2,-2 0,-1.10457 -0.89543,-2 -2,-2 z m 0,1 v 2 c -0.55228,0 -1,-0.44771 -1,-1 0,-0.55228 0.44772,-1 1,-1 z M 26.4375,112 24,118 h 1.074219 l 0.40625,-1 h 3.039062 l 0.40625,1 H 30 l -2.439453,-6 H 27.023438 L 27,112.00977 26.976562,112 Z M 27,113.25781 28.113281,116 H 25.886719 Z M 21,121 h 12 v 1 H 21 Z"
       transform="translate(354,428.36218)"
       id="path4344" />
  </g>
  <g
     id="input-keyboard-battery"
     transform="translate(-370,-652.36235)">
    <rect
       style="opacity:1;fill:none"
       id="rect4378"
       width="32"
       height="32"
       x="370"
       y="556.36237"
       ry="0" />
    <path
       style="fill:#eff0f1;fill-opacity:1;stroke:none"
       d="m 44,132 v 20 l 10,4 10,-4 v -11 h -1 v 8 H 45 v -16 h 14 v -1 z m 18,0 -2,5 h 2 v 3 l 2,-5 H 62 Z M 53.40625,136 49,146 h 1.300781 l 1.322266,-3 h 4.722656 l 1.349609,3 H 59 l -4.5,-10 z m 0.552734,1.69531 1.9375,4.30469 H 52.0625 Z M 45,150 h 18 v 1 H 45 Z"
       transform="translate(332,428.36237)"
       id="rect4223" />
  </g>
  <g
     id="input-keyboard-brightness"
     transform="translate(-402,-684.36235)">
    <rect
       ry="0"
       y="556.36237"
       x="402"
       height="32"
       width="32"
       id="rect4266"
       style="opacity:1;fill:none" />
    <path
       style="fill:#eff0f1;fill-opacity:1;stroke:none"
       d="m 44,100 v 20 l 10,4 10,-4 v -10 h -1 v 7 H 45 v -16 h 12 v -1 z m 9.40625,4 L 49,114 h 1.300781 l 1.322266,-3 h 4.722656 l 1.349609,3 H 59 l -4.5,-10 z m 0.552734,1.69531 1.9375,4.30469 H 52.0625 Z M 45,118 h 18 v 1 H 45 Z"
       transform="translate(364,460.36237)"
       id="path4270" />
    <path
       style="fill:#8fbcbb;fill-opacity:1;stroke:none"
       d="m 100,25 c -0.277,0 -0.5,0.223 -0.5,0.5 v 1 c 0,0.277 0.223,0.5 0.5,0.5 0.277,0 0.5,-0.223 0.5,-0.5 v -1 c 0,-0.277 -0.223,-0.5 -0.5,-0.5 z m -3.181641,1.318359 c -0.127809,0 -0.255581,0.04855 -0.353515,0.146485 -0.195869,0.195868 -0.195869,0.511162 0,0.707031 l 0.707031,0.707031 c 0.195869,0.195869 0.511163,0.195869 0.707031,0 0.195869,-0.195868 0.195869,-0.511162 0,-0.707031 l -0.707031,-0.707031 c -0.09793,-0.09793 -0.225706,-0.146485 -0.353516,-0.146485 z m 6.363281,0 c -0.12781,0 -0.25558,0.04855 -0.35352,0.146485 l -0.70703,0.707031 c -0.19586,0.195869 -0.19586,0.511163 0,0.707031 0.19587,0.195869 0.51117,0.195869 0.70703,0 l 0.70704,-0.707031 c 0.19586,-0.195869 0.19586,-0.511163 0,-0.707031 -0.0979,-0.09793 -0.22571,-0.146485 -0.35352,-0.146485 z M 100,28 c -1.104569,0 -2,0.895431 -2,2 0,1.104569 0.895431,2 2,2 1.10457,0 2,-0.895431 2,-2 0,-1.104569 -0.89543,-2 -2,-2 z m 0,1 v 2 c -0.552285,0 -1,-0.447715 -1,-1 0,-0.552285 0.447715,-1 1,-1 z m -4.5,0.5 c -0.277,0 -0.5,0.223 -0.5,0.5 0,0.277 0.223,0.5 0.5,0.5 h 1 c 0.277,0 0.5,-0.223 0.5,-0.5 0,-0.277 -0.223,-0.5 -0.5,-0.5 z m 8,0 c -0.277,0 -0.5,0.223 -0.5,0.5 0,0.277 0.223,0.5 0.5,0.5 h 1 c 0.277,0 0.5,-0.223 0.5,-0.5 0,-0.277 -0.223,-0.5 -0.5,-0.5 z m -5.974609,2.474609 c -0.12781,0 -0.255582,0.04855 -0.353516,0.146485 l -0.707031,0.707031 c -0.195869,0.195869 -0.195869,0.511163 0,0.707031 0.195868,0.195869 0.511162,0.195869 0.707031,0 l 0.707031,-0.707031 c 0.195869,-0.195869 0.195869,-0.511163 0,-0.707031 -0.09793,-0.09793 -0.225706,-0.146485 -0.353515,-0.146485 z m 4.949219,0 c -0.12781,0 -0.25558,0.04855 -0.35352,0.146485 -0.19586,0.195868 -0.19586,0.511162 0,0.707031 l 0.70703,0.707031 c 0.19587,0.195869 0.51117,0.195869 0.70704,0 0.19586,-0.195868 0.19586,-0.511162 0,-0.707031 l -0.70704,-0.707031 c -0.0979,-0.09793 -0.2257,-0.146485 -0.35351,-0.146485 z M 100,33 c -0.277,0 -0.5,0.223 -0.5,0.5 v 1 c 0,0.277 0.223,0.5 0.5,0.5 0.277,0 0.5,-0.223 0.5,-0.5 v -1 c 0,-0.277 -0.223,-0.5 -0.5,-0.5 z"
       transform="translate(326,534.3622)"
       id="path4274"
       inkscape:connector-curvature="0" />
  </g>
  <g
     id="16-16-input-mouse-battery"
     transform="translate(-341,-521.36216)">
    <path
       id="path4196"
       transform="translate(319,457.36217)"
       d="m -8,82 a 4,4 0 0 0 -4,4 v 4 a 4,4 0 0 0 4,4 4,4 0 0 0 4,-4 v -4 a 4,4 0 0 0 -4,-4 z m 0,1 a 3,3 0 0 1 3,3 v 4 a 3,3 0 0 1 -3,3 3,3 0 0 1 -3,-3 v -4 a 3,3 0 0 1 3,-3 z m 0,1 -2,5 h 2 v 3 l 2,-5 h -2 z"
       style="fill:#eff0f1;fill-opacity:1;stroke:none"
       inkscape:connector-curvature="0" />
    <rect
       style="opacity:1;fill:none"
       id="rect4442"
       width="16"
       height="16"
       x="303"
       y="537.36218" />
  </g>
  <g
     id="22-22-input-keyboard-virtual-on"
     transform="translate(-22,-181.99997)">
    <path
       id="path6-6"
       transform="translate(0,-1030.3622)"
       d="m 2,1038.3622 v 11 h 18 v -11 z m 1,1 h 7 1 8 v 1 H 3 Z m 0,2 h 16 v 7 H 15 7 3 Z m 1,1 v 1 h 2 v -1 z m 3,0 v 1 h 2 v -1 z m 3,0 v 1 h 2 v -1 z m 3,0 v 1 h 2 v -1 z m 3,0 v 1 h 2 v -1 z m -12,2 v 1 h 2 v -1 z m 3,0 v 1 h 2 v -1 z m 3,0 v 1 h 2 v -1 z m 3,0 v 1 h 2 v -1 z m 3,0 v 1 h 2 v -1 z m -12,2 v 1 h 2 v -1 z m 3,0 v 1 h 8 v -1 z m 9,0 v 1 h 2 v -1 z"
       style="fill:#eff0f1;fill-opacity:1;stroke:none"
       inkscape:connector-curvature="0" />
    <path
       id="path8"
       d="M 4.5,2 A 2.4999997,2.4999855 0 0 0 2,4.5 2.4999997,2.4999855 0 0 0 4.5,7 2.4999997,2.4999855 0 0 0 7,4.5 2.4999997,2.4999855 0 0 0 4.5,2 Z"
       style="fill:#8fbcbb;fill-opacity:1;stroke:none"
       inkscape:connector-curvature="0" />
    <rect
       y="0"
       x="0"
       height="22"
       width="22"
       id="rect4140"
       style="fill:none;fill-opacity:1;stroke:none;stroke-linejoin:bevel" />
  </g>
  <g
     transform="matrix(1.4545455,0,0,1.4545455,0,-191.99997)"
     id="input-keyboard-virtual-on">
    <rect
       style="fill:none;fill-rule:evenodd;stroke:none;stroke-width:1px;stroke-linecap:butt;stroke-linejoin:miter;stroke-opacity:1"
       id="rect4192"
       width="22"
       height="22"
       x="0"
       y="0" />
    <path
       transform="matrix(0.68749998,0,0,0.68749998,-15.124999,22.000003)"
       style="fill:#eff0f1;fill-opacity:1;stroke:none"
       d="M 25,-21 V -4 H 25.5 51 v -17 z m 1,1 h 24 v 2 H 26 Z m 0,3 H 50 V -5 H 26 Z m 1,2 v 2 h 1 v -2 z m 2,0 v 2 h 2 v -2 z m 3,0 v 2 h 2 v -2 z m 3,0 v 2 h 2 v -2 z m 3,0 v 2 h 2 v -2 z m 3,0 v 2 h 2 v -2 z m 3,0 v 2 h 2 v -2 z m 3,0 v 2 h 2 v -2 z m -20,3 v 2 h 3 v -2 z m 4,0 v 2 h 2 v -2 z m 3,0 v 2 h 2 v -2 z m 3,0 v 2 h 2 v -2 z m 3,0 v 2 h 2 v -2 z m 3,0 v 2 h 2 v -2 z m 3,0 v 2 h 3 v -2 z m -19,3 v 2 h 2 v -2 z m 3,0 v 2 h 2 v -2 z m 3,0 v 2 h 10 v -2 z m 11,0 v 2 h 2 v -2 z m 3,0 v 2 h 2 v -2 z"
       id="path4194"
       inkscape:connector-curvature="0" />
    <path
       id="path8-9"
       d="m 3.7812499,2.7500013 a 1.7187497,1.71874 0 0 0 -1.71875,1.7187499 1.7187497,1.71874 0 0 0 1.71875,1.71875 1.7187497,1.71874 0 0 0 1.71875,-1.71875 1.7187497,1.71874 0 0 0 -1.71875,-1.7187499 z"
       style="fill:#8fbcbb;fill-opacity:1;stroke:none"
       inkscape:connector-curvature="0" />
  </g>
  <g
     transform="translate(-22,-149.99997)"
     id="22-22-input-keyboard-virtual-off">
    <path
       style="fill:#eff0f1;fill-opacity:1;stroke:none"
       d="m 2,1038.3622 v 11 h 18 v -11 z m 1,1 h 7 1 8 v 1 H 3 Z m 0,2 h 16 v 7 H 15 7 3 Z m 1,1 v 1 h 2 v -1 z m 3,0 v 1 h 2 v -1 z m 3,0 v 1 h 2 v -1 z m 3,0 v 1 h 2 v -1 z m 3,0 v 1 h 2 v -1 z m -12,2 v 1 h 2 v -1 z m 3,0 v 1 h 2 v -1 z m 3,0 v 1 h 2 v -1 z m 3,0 v 1 h 2 v -1 z m 3,0 v 1 h 2 v -1 z m -12,2 v 1 h 2 v -1 z m 3,0 v 1 h 8 v -1 z m 9,0 v 1 h 2 v -1 z"
       transform="translate(0,-1030.3622)"
       id="path4170"
       inkscape:connector-curvature="0" />
    <rect
       style="fill:none;fill-opacity:1;stroke:none;stroke-linejoin:bevel"
       id="rect4172"
       width="22"
       height="22"
       x="0"
       y="0" />
  </g>
  <g
     transform="matrix(1.4545455,0,0,1.4545455,0,-159.99997)"
     id="input-keyboard-virtual-off">
    <rect
       style="fill:none;fill-rule:evenodd;stroke:none;stroke-width:1px;stroke-linecap:butt;stroke-linejoin:miter;stroke-opacity:1"
       id="rect4176"
       width="22"
       height="22"
       x="0"
       y="0" />
    <path
       transform="matrix(0.68749998,0,0,0.68749998,-15.124999,22.000003)"
       style="fill:#eff0f1;fill-opacity:1;stroke:none"
       d="M 25,-21 V -4 H 25.5 51 v -17 z m 1,1 h 24 v 2 H 26 Z m 0,3 H 50 V -5 H 26 Z m 1,2 v 2 h 1 v -2 z m 2,0 v 2 h 2 v -2 z m 3,0 v 2 h 2 v -2 z m 3,0 v 2 h 2 v -2 z m 3,0 v 2 h 2 v -2 z m 3,0 v 2 h 2 v -2 z m 3,0 v 2 h 2 v -2 z m 3,0 v 2 h 2 v -2 z m -20,3 v 2 h 3 v -2 z m 4,0 v 2 h 2 v -2 z m 3,0 v 2 h 2 v -2 z m 3,0 v 2 h 2 v -2 z m 3,0 v 2 h 2 v -2 z m 3,0 v 2 h 2 v -2 z m 3,0 v 2 h 3 v -2 z m -19,3 v 2 h 2 v -2 z m 3,0 v 2 h 2 v -2 z m 3,0 v 2 h 10 v -2 z m 11,0 v 2 h 2 v -2 z m 3,0 v 2 h 2 v -2 z"
       id="path4178"
       inkscape:connector-curvature="0" />
  </g>
  <g
     id="22-22-input-caps-on"
     transform="translate(21.241379,-200.74137)">
    <rect
       y="146.74138"
       x="-43.241379"
       height="22"
       width="22"
       id="rect964"
       style="opacity:0.00100002;fill-opacity:1;stroke:none;stroke-width:0.49066;stroke-linecap:round;stroke-linejoin:round;stroke-miterlimit:4;stroke-dasharray:none;stroke-opacity:1" />
    <path
       inkscape:connector-curvature="0"
       id="path870"
       d="m -39.241379,149.74138 v 14 l 7,2 7,-2 v -14 z m 1,1 h 12 v 10 h -12 z m 5.4375,2 -2.4375,6 h 1.07422 l 0.40625,-1 h 3.03906 l 0.40625,1 h 1.07422 l -2.43945,-6 h -0.53711 l -0.0234,0.01 -0.0234,-0.01 z m 0.5625,1.25781 1.11328,2.74219 h -2.22656 z m -6,7.74219 h 12 v 1 h -12 z"
       style="fill:#eff0f1;fill-opacity:1;stroke:none" />
  </g>
  <g
     id="22-22-input-num-on"
     transform="translate(-46,-138.99999)">
    <rect
       style="opacity:0.00100002;fill-opacity:1;stroke:none;stroke-width:0.49066;stroke-linecap:round;stroke-linejoin:round;stroke-miterlimit:4;stroke-dasharray:none;stroke-opacity:1"
       id="rect972"
       width="22"
       height="22"
       x="24"
       y="117" />
    <path
       inkscape:connector-curvature="0"
       id="path879"
       d="m 28,120 v 14 l 7,2 7,-2 v -14 z m 1,1 h 12 v 10 H 29 Z m 6,2 v 1 h -1 v 1 h 1 v 3 h -1 v 1 h 1 1 1 v -1 h -1 v -5 z m -6,9 h 12 v 1 H 29 Z"
       style="fill:#eff0f1;fill-opacity:1;stroke:none" />
  </g>
  <g
     id="input-caps-on"
     transform="translate(-19,-175.99997)">
    <rect
       y="112"
       x="19"
       height="32"
       width="32"
       id="rect978"
       style="opacity:0.00100002;fill-opacity:1;stroke:none;stroke-width:0.713687;stroke-linecap:round;stroke-linejoin:round;stroke-miterlimit:4;stroke-dasharray:none;stroke-opacity:1" />
    <path
       inkscape:connector-curvature="0"
       id="path880"
       d="m 25,116 v 20 l 10,4 10,-4 v -19 -1 h -1 z m 1,1 h 18 v 16 H 26 Z m 8.40625,3 L 30,130 h 1.30078 l 1.32227,-3 h 4.72265 l 1.34961,3 H 40 l -4.5,-10 z m 0.55273,1.69531 L 36.89648,126 H 33.0625 Z M 26,134 h 18 v 1 H 26 Z"
       style="fill:#eff0f1;fill-opacity:1;stroke:none" />
  </g>
  <g
     id="input-num-on"
     transform="translate(-19,-143.99999)">
    <rect
       style="opacity:0.00100002;fill-opacity:1;stroke:none;stroke-width:0.713687;stroke-linecap:round;stroke-linejoin:round;stroke-miterlimit:4;stroke-dasharray:none;stroke-opacity:1"
       id="rect984"
       width="32"
       height="32"
       x="19"
       y="112" />
    <path
       inkscape:connector-curvature="0"
       id="path896"
       d="m 25,116 v 20 l 10,4 10,-4 v -19 -1 h -1 z m 1,1 h 18 v 16 H 26 Z m 9,3 v 2 h -2 v 1 h 2 v 6 h -2 v 1 h 5 v -1 h -2 v -9 z m -9,14 h 18 v 1 H 26 Z"
       style="fill:#eff0f1;fill-opacity:1;stroke:none" />
  </g>
  <g
     id="input-mouse-battery">
    <rect
       style="fill:none"
       id="rect4378-6"
       width="32"
       height="32"
       x="0"
       y="0"
       ry="0" />
    <path
       d="m 15.523272,4.2305936 c 0,0 -0.37368,0.017672 -0.461528,0.023431 C 11.444329,4.491131 8.600198,7.24364 8.600198,10.923076 c 0,0 0.923074,3.384617 0.923074,5.076923 0,1.692311 -0.461528,3.377642 -0.461528,5.076925 0,3.835381 2.626148,6.692325 6.461528,6.692325 h 0.923077 c 3.835394,0 6.461543,-2.856944 6.461543,-6.692325 0,-1.699282 -0.461543,-3.384614 -0.461543,-5.076925 0,-1.692306 0.923082,-3.377637 0.923082,-5.076923 0,-3.679436 -2.847823,-6.3813605 -6.461539,-6.6690507 -0.101875,-0.00815 -0.461543,-0.023432 -0.461543,-0.023432 v 2.5386422 h -0.923077 z"
       fill="url(#a)"
       fill-rule="evenodd"
       id="path42"
       style="fill:url(#a);stroke-width:0.461549" />
    <path
       d="m 15.523272,4.0000056 c 0,0 -0.37368,0.017669 -0.461528,0.023428 -3.617415,0.2371068 -6.461546,3.2202044 -6.461546,6.8996394 0,0.09297 0.0064,0.185655 0.0092,0.278546 0.09329,-3.5941323 2.89584,-6.4835203 6.452537,-6.7166467 0.08783,-0.00583 0.461532,-0.023428 0.461532,-0.023428 h 0.92308 c 0,0 0.359666,0.015321 0.461536,0.023428 3.5533,0.2828783 6.359445,3.1247314 6.452515,6.7175477 0.0034,-0.09319 0.0093,-0.186175 0.0093,-0.279447 0,-3.6794349 -2.847817,-6.6119495 -6.461536,-6.8996393 -0.101877,-0.00815 -0.461539,-0.023429 -0.461539,-0.023429 z"
       fill="#c9cdd1"
       id="path44"
       style="stroke-width:0.461549" />
    <path
       d="m 15.523272,4.0000056 v 1.8461545 l -0.923073,0.9230754 v 4.6153855 l 0.461545,0.461539 v 1.846153 c 0,0.511385 0.411686,0.923076 0.923065,0.923076 0.51139,0 0.923083,-0.411691 0.923083,-0.923076 V 11.84616 L 17.36943,11.384621 V 6.7692355 L 16.446349,5.8461601 V 4.0000056 Z"
       fill="url(#d)"
       id="path46"
       style="fill:url(#d);stroke-width:0.461549" />
    <path
       d="M 8.6092,20.791194 C 8.6058,20.886464 8.6,20.981563 8.6,21.076926 c 0,3.835382 3.087686,6.923078 6.923066,6.923078 h 0.923124 c 3.835378,0 6.923065,-3.087696 6.923065,-6.923078 0,-0.09537 -0.0062,-0.190461 -0.0093,-0.285753 -0.0936,3.752634 -3.138076,6.747283 -6.914056,6.747283 H 15.52279 c -3.775994,0 -6.820466,-2.994649 -6.914067,-6.747283 z"
       fill="#7a8692"
       fill-rule="evenodd"
       id="path48"
       style="stroke-width:0.461549" />
    <path
       d="M 17.36943,6.7692355 V 11.384621 L 16.446349,10.461544 V 7.6923131 Z m -2.769231,0 0.923073,0.9230776 v 2.7692309 l -0.923073,0.923077 z"
       fill="url(#c)"
       id="path50"
       style="fill:url(#c);stroke-width:0.461549" />
    <rect
       fill="#2a2e32"
       height="1.3846154"
       rx="0.46153846"
       width="0.92307693"
       x="15.523266"
       y="12.307685"
       id="rect52"
       style="fill:#2a2e32;fill-opacity:1;fill-rule:evenodd;stroke-width:0.461538" />
    <path
       d="m 15.984805,6.7692231 c 0.172145,0 0.323888,0.029612 0.461538,0.070313 v 4.4747599 c -0.13765,0.0407 -0.289393,0.07031 -0.461538,0.07031 -0.172146,0 -0.323888,-0.02961 -0.461539,-0.07031 V 6.8395361 c 0.137651,-0.040701 0.289393,-0.070313 0.461539,-0.070313 z"
       fill="url(#e)"
       id="path54"
       style="fill:url(#e);fill-rule:evenodd;stroke-width:0.461538" />
    <path
       d="m 16.446343,6.8395357 c 0.271261,0.080208 0.461539,0.6831448 0.461539,0.8527643 v 2.769231 c 0,0.169619 -0.190278,0.772557 -0.461539,0.852764 z m -0.923077,0 V 11.314295 C 15.252005,11.234088 15.061728,10.63115 15.061728,10.461531 V 7.6923 c 0,-0.1696195 0.190277,-0.7725567 0.461538,-0.8527643 z"
       fill="url(#b)"
       id="path56"
       style="fill:url(#b);fill-rule:evenodd;stroke-width:0.461538" />
    <path
       d="m 8.600189,10.925773 c 4.62e-4,1.698363 0.461539,3.375835 0.461539,5.074219 0,1.698385 -0.461049,3.375857 -0.461539,5.074219 v 0.0027 c 0,3.643494 2.788313,6.606289 6.355168,6.894231 -2.799586,-0.282616 -4.970552,-2.633077 -4.970552,-5.509616 v -5.538457 c 0,-1.562058 -0.518363,-4.841363 -1.384616,-5.997296 z m 14.769231,0 c -0.86625,1.155933 -1.384615,4.435238 -1.384615,5.997296 v 5.538461 c 0,2.876539 -2.170966,5.227 -4.970553,5.509616 3.566856,-0.287942 6.355168,-3.250737 6.355168,-6.894231 v -0.0027 c -5.08e-4,-1.698343 -0.461538,-3.375815 -0.461538,-5.0742 0,-1.698384 0.461049,-3.375856 0.461538,-5.074219 z"
       fill="url(#f)"
       stroke-width="0.461536"
       id="path58"
       style="fill:url(#f);fill-rule:evenodd" />
  </g>
  <g
     id="22-22-input-mouse-battery">
    <rect
       style="fill:none"
       width="22"
       height="22"
       x="-22"
       y="10.000017"
       ry="0"
       id="rect8" />
    <path
       style="fill:#8fbcbb;fill-opacity:1;stroke:none"
       d="m -17,13.000034 -2,5 h 2 v 3 l 2,-5 h -2 z"
       id="path12"
       inkscape:connector-curvature="0" />
    <path
       d="m -9.384318,13.153735 c 0,0 -0.249119,0.01183 -0.307696,0.0156 -2.411603,0.158082 -4.307691,1.993083 -4.307691,4.446036 0,0 0.615388,2.256404 0.615388,3.384614 0,1.128213 -0.307698,2.251766 -0.307698,3.384616 0,2.556924 1.750776,4.461543 4.307697,4.461543 h 0.615381 c 2.556925,0 4.307698,-1.904619 4.307698,-4.461543 0,-1.13285 -0.307697,-2.256403 -0.307697,-3.384616 0,-1.12821 0.615388,-2.251753 0.615388,-3.384614 0,-2.452953 -1.898548,-4.254241 -4.307691,-4.446026 -0.06795,-0.0057 -0.307698,-0.01561 -0.307698,-0.01561 v 1.692436 h -0.615381 z"
       fill="url(#a)"
       fill-rule="evenodd"
       id="path42-9"
       style="fill:url(#a-3);stroke-width:0.307696" />
    <path
       d="m -9.384318,13.000014 c 0,0 -0.249119,0.01184 -0.307696,0.01565 -2.411603,0.158076 -4.307691,2.146816 -4.307691,4.59977 0,0.06195 0.0042,0.123765 0.0066,0.185688 0.06211,-2.396078 1.930562,-4.322334 4.301686,-4.477762 0.05851,-0.0038 0.307686,-0.01562 0.307686,-0.01562 h 0.615389 c 0,0 0.239782,0.01024 0.307694,0.01562 2.368862,0.188593 4.239625,2.08316 4.301683,4.478366 0.0026,-0.06205 0.0066,-0.124122 0.0066,-0.186291 0,-2.452955 -1.898544,-4.407964 -4.307694,-4.599765 -0.06792,-0.0057 -0.307683,-0.01564 -0.307683,-0.01564 z"
       fill="#c9cdd1"
       id="path44-2"
       style="stroke-width:0.307696" />
    <path
       d="m -9.384318,13.000014 v 1.23077 l -0.61539,0.615393 v 3.076916 l 0.307694,0.30769 v 1.230766 c 0,0.340932 0.274466,0.615386 0.615386,0.615386 0.34092,0 0.615389,-0.274454 0.615389,-0.615386 v -1.230766 l 0.307691,-0.30769 v -3.076916 l -0.615389,-0.615393 v -1.23077 z"
       fill="url(#d)"
       id="path46-0"
       style="fill:url(#d-3);stroke-width:0.307696" />
    <path
       d="M -13.9937,24.194135 C -13.9964,24.257665 -14,24.321051 -14,24.384622 c 0,2.556932 2.058468,4.615392 4.615395,4.615392 h 0.615372 c 2.556932,0 4.61539,-2.05846 4.61539,-4.615392 0,-0.06355 -0.0039,-0.126969 -0.0066,-0.190489 -0.0624,2.501754 -2.092049,4.498188 -4.609377,4.498188 h -0.615232 c -2.517323,0 -4.546974,-1.996434 -4.609375,-4.498188 z"
       fill="#7a8692"
       fill-rule="evenodd"
       id="path48-2"
       style="stroke-width:0.307696" />
    <path
       d="m -8.153548,14.846177 v 3.076916 l -0.615389,-0.615381 v -1.846166 z m -1.84616,0 0.61539,0.615369 v 1.846166 l -0.61539,0.615381 z"
       fill="url(#c)"
       id="path50-3"
       style="fill:url(#c-2);stroke-width:0.307696" />
    <rect
       fill="#2a2e32"
       height="0.92307699"
       rx="0.30769232"
       width="0.61538464"
       x="-9.3843231"
       y="18.538473"
       id="rect52-5"
       style="fill:#2a2e32;fill-opacity:1;fill-rule:evenodd;stroke-width:0.307692" />
    <path
       d="m -9.0766308,14.846165 c 0.1147637,0 0.2159253,0.01974 0.3076924,0.04687 v 2.983173 c -0.091767,0.02713 -0.1929287,0.04687 -0.3076924,0.04687 -0.1147637,0 -0.2159252,-0.01974 -0.3076923,-0.04687 V 14.89304 c 0.091767,-0.02713 0.1929286,-0.04687 0.3076923,-0.04687 z"
       fill="url(#e)"
       id="path54-9"
       style="fill:url(#e-2);fill-rule:evenodd;stroke-width:0.307692" />
    <path
       d="m -8.7689384,14.89304 c 0.1808406,0.05347 0.3076923,0.45543 0.3076923,0.568509 v 1.846154 c 0,0.11308 -0.1268517,0.515038 -0.3076923,0.56851 z m -0.6153847,0 v 2.983173 c -0.1808406,-0.05347 -0.3076923,-0.45543 -0.3076923,-0.56851 v -1.846154 c 0,-0.113079 0.1268517,-0.515037 0.3076923,-0.568509 z"
       fill="url(#b)"
       id="path56-2"
       style="fill:url(#b-6);fill-rule:evenodd;stroke-width:0.307692" />
    <path
       d="m -13.999708,17.617198 c 3.08e-4,1.132242 0.307692,2.250557 0.307692,3.382813 0,1.132257 -0.307366,2.250571 -0.307692,3.382813 v 0.0018 c 0,2.428996 1.858875,4.404192 4.2367791,4.596154 -1.8663911,-0.188411 -3.3137021,-1.755385 -3.3137021,-3.673077 v -3.692308 c 0,-1.041372 -0.345575,-3.227576 -0.923077,-3.998198 z m 9.8461544,0 c -0.5775001,0.770622 -0.923077,2.956826 -0.923077,3.998198 v 3.692308 c 0,1.917692 -1.4473108,3.484666 -3.313702,3.673077 2.3779041,-0.191962 4.236779,-2.167158 4.236779,-4.596154 v -0.0018 c -3.385e-4,-1.132229 -0.3076924,-2.250543 -0.3076924,-3.3828 0,-1.132256 0.3073662,-2.250571 0.3076924,-3.382813 z"
       fill="url(#f)"
       stroke-width="0.307691"
       id="path58-2"
       style="fill:url(#f-6);fill-rule:evenodd" />
  </g>
  <g
     id="input-keyboard"
     transform="translate(-22,-213.99997)">
    <rect
       style="fill:none;fill-rule:evenodd;stroke:none;stroke-width:1.45455px;stroke-linecap:butt;stroke-linejoin:miter;stroke-opacity:1"
       id="rect4196"
       width="32"
       height="32"
       x="22"
       y="-10.00001" />
    <path
       d="M 48.185,3.285009 H 38.416267 V 2.898747 c 0,-1.237483 -1.005024,-2.242489 -2.24253,-2.242489 h -3.42 c -0.776229,0 -1.409999,-0.63375 -1.409999,-1.4100154 0,-0.7762406 0.63377,-1.4099876 1.409999,-1.4099876 H 46.332492 V -3.00001 H 32.753737 c -1.237473,0 -2.242492,1.0050099 -2.242492,2.2425207 0,1.2374783 1.005019,2.2424943 2.242492,2.2424943 h 3.42 c 0.776264,0 1.409999,0.633741 1.409999,1.410011 V 3.281258 H 27.815 C 26.813737,3.284858 26,4.098763 26,5.100007 v 9.02999 c 0,1.001243 0.813737,1.814993 1.815,1.814993 h 20.37 c 1.001267,0 1.815,-0.81375 1.815,-1.814993 V 5.100007 C 50,4.098763 49.186267,3.285009 48.185,3.285009 Z m 1.065003,10.844988 c 0,0.588774 -0.476267,1.064993 -1.065003,1.064993 h -20.37 c -0.588733,0 -1.064999,-0.48 -1.064999,-1.064993 v -9.02999 c 0,-0.585017 0.476266,-1.065017 1.064999,-1.065017 h 20.37 c 0.588736,0 1.065003,0.476252 1.065003,1.065017 z"
       id="path2"
       style="fill:#eff0f1;fill-opacity:1;stroke-width:0.375006" />
    <rect
       x="27.815033"
       y="5.1000113"
       width="1.51125"
       height="1.51125"
       id="rect4"
       style="fill:#eff0f1;fill-opacity:1;stroke-width:0.375006" />
    <rect
       x="30.173714"
       y="5.1000113"
       width="1.51125"
       height="1.51125"
       id="rect6"
       style="fill:#eff0f1;fill-opacity:1;stroke-width:0.375006" />
    <rect
       x="32.528786"
       y="5.1000113"
       width="1.51125"
       height="1.51125"
       id="rect8-3"
       style="fill:#eff0f1;fill-opacity:1;stroke-width:0.375006" />
    <rect
       x="34.887482"
       y="5.1000113"
       width="1.51125"
       height="1.51125"
       id="rect10"
       style="fill:#eff0f1;fill-opacity:1;stroke-width:0.375006" />
    <rect
       x="37.242474"
       y="5.1000113"
       width="1.51125"
       height="1.51125"
       id="rect12"
       style="fill:#eff0f1;fill-opacity:1;stroke-width:0.375006" />
    <rect
       x="39.601288"
       y="5.1000113"
       width="1.51125"
       height="1.51125"
       id="rect14"
       style="fill:#eff0f1;fill-opacity:1;stroke-width:0.375006" />
    <rect
       x="41.960018"
       y="5.1000113"
       width="1.51125"
       height="1.51125"
       id="rect16"
       style="fill:#eff0f1;fill-opacity:1;stroke-width:0.375006" />
    <rect
       x="44.314991"
       y="5.1000113"
       width="1.51125"
       height="1.51125"
       id="rect18"
       style="fill:#eff0f1;fill-opacity:1;stroke-width:0.375006" />
    <rect
       x="27.815033"
       y="7.6050277"
       width="3.8699932"
       height="1.51125"
       id="rect20-6"
       style="fill:#eff0f1;fill-opacity:1;stroke-width:0.375006" />
    <rect
       x="32.528786"
       y="7.6050277"
       width="1.51125"
       height="1.51125"
       id="rect22"
       style="fill:#eff0f1;fill-opacity:1;stroke-width:0.375006" />
    <rect
       x="34.887482"
       y="7.6050277"
       width="1.51125"
       height="1.51125"
       id="rect24"
       style="fill:#eff0f1;fill-opacity:1;stroke-width:0.375006" />
    <rect
       x="37.242474"
       y="7.6050277"
       width="1.51125"
       height="1.51125"
       id="rect26"
       style="fill:#eff0f1;fill-opacity:1;stroke-width:0.375006" />
    <rect
       x="39.601288"
       y="7.6050277"
       width="1.51125"
       height="1.51125"
       id="rect28"
       style="fill:#eff0f1;fill-opacity:1;stroke-width:0.375006" />
    <rect
       x="41.960018"
       y="7.6050277"
       width="1.51125"
       height="1.51125"
       id="rect30"
       style="fill:#eff0f1;fill-opacity:1;stroke-width:0.375006" />
    <rect
       x="44.314991"
       y="7.6050277"
       width="1.51125"
       height="1.51125"
       id="rect32"
       style="fill:#eff0f1;fill-opacity:1;stroke-width:0.375006" />
    <rect
       x="27.815033"
       y="10.110062"
       width="6.2249961"
       height="1.51125"
       id="rect34"
       style="fill:#eff0f1;fill-opacity:1;stroke-width:0.375006" />
    <rect
       x="34.887482"
       y="10.110062"
       width="1.51125"
       height="1.51125"
       id="rect36"
       style="fill:#eff0f1;fill-opacity:1;stroke-width:0.375006" />
    <rect
       x="37.242474"
       y="10.110062"
       width="1.51125"
       height="1.51125"
       id="rect38"
       style="fill:#eff0f1;fill-opacity:1;stroke-width:0.375006" />
    <rect
       x="39.601288"
       y="10.110062"
       width="1.51125"
       height="1.51125"
       id="rect40"
       style="fill:#eff0f1;fill-opacity:1;stroke-width:0.375006" />
    <rect
       x="41.960018"
       y="10.110062"
       width="1.51125"
       height="1.51125"
       id="rect42"
       style="fill:#eff0f1;fill-opacity:1;stroke-width:0.375006" />
    <rect
       x="44.314991"
       y="10.110062"
       width="1.51125"
       height="1.51125"
       id="rect44"
       style="fill:#eff0f1;fill-opacity:1;stroke-width:0.375006" />
    <rect
       x="27.815033"
       y="12.618732"
       width="1.51125"
       height="1.51125"
       id="rect46"
       style="fill:#eff0f1;fill-opacity:1;stroke-width:0.375006" />
    <rect
       x="32.528786"
       y="12.618732"
       width="10.942497"
       height="1.51125"
       id="rect48"
       style="fill:#8fbcbb;fill-opacity:1;stroke-width:0.375006" />
    <rect
       x="44.314991"
       y="12.618732"
       width="1.51125"
       height="1.51125"
       id="rect50"
       style="fill:#eff0f1;fill-opacity:1;stroke-width:0.375006" />
    <rect
       x="46.673752"
       y="5.1000113"
       width="1.51125"
       height="1.51125"
       id="rect52-7"
       style="fill:#eff0f1;fill-opacity:1;stroke-width:0.375006" />
    <rect
       x="46.673752"
       y="7.6050277"
       width="1.51125"
       height="1.51125"
       id="rect54"
       style="fill:#eff0f1;fill-opacity:1;stroke-width:0.375006" />
    <rect
       x="46.673752"
       y="10.110062"
       width="1.51125"
       height="1.51125"
       id="rect56"
       style="fill:#eff0f1;fill-opacity:1;stroke-width:0.375006" />
    <rect
       x="46.673752"
       y="12.618732"
       width="1.51125"
       height="1.51125"
       id="rect58"
       style="fill:#eff0f1;fill-opacity:1;stroke-width:0.375006" />
    <rect
       x="30.173714"
       y="12.618732"
       width="1.51125"
       height="1.51125"
       id="rect60"
       style="fill:#eff0f1;fill-opacity:1;stroke-width:0.375006" />
  </g>
  <g
     id="22-22-input-keyboard"
     transform="translate(-22,-213.99997)">
    <rect
       y="0"
       x="0"
       height="22"
       width="22"
       id="rect4147"
       style="fill:none;fill-rule:evenodd;stroke:none;stroke-width:1px;stroke-linecap:butt;stroke-linejoin:miter;stroke-opacity:1" />
    <path
       d="M 17.790001,8.89001 H 11.277514 V 8.632504 c 0,-0.824988 -0.670016,-1.494992 -1.495025,-1.494992 h -2.28 c -0.51748,0 -0.939999,-0.4225 -0.939999,-0.94001 0,-0.517494 0.422519,-0.939992 0.939999,-0.939992 H 16.55499 V 4.7 H 7.502489 c -0.824977,0 -1.49499,0.670007 -1.49499,1.495014 0,0.824985 0.670013,1.494996 1.49499,1.494996 h 2.28 c 0.517512,0 0.939999,0.422494 0.939999,0.940007 V 8.887512 H 4.210002 C 3.542489,8.889912 3,9.432518 3,10.100015 v 6.019992 c 0,0.667496 0.542489,1.209991 1.210002,1.209991 h 13.579999 c 0.667513,0 1.209998,-0.542495 1.209998,-1.209991 v -6.019992 c 0,-0.667497 -0.542485,-1.210005 -1.209998,-1.210005 z m 0.710001,7.229997 c 0,0.392509 -0.317515,0.709995 -0.710001,0.709995 H 4.210002 c -0.392487,0 -0.710001,-0.320004 -0.710001,-0.709995 v -6.019992 c 0,-0.390015 0.317514,-0.710016 0.710001,-0.710016 h 13.579999 c 0.392486,0 0.710001,0.3175 0.710001,0.710016 z"
       id="path2-3"
       style="fill:#eff0f1;fill-opacity:1;stroke-width:0.250003" />
    <rect
       x="4.2100291"
       y="10.100013"
       width="1.0075002"
       height="1.0075002"
       id="rect4-6"
       style="fill:#eff0f1;fill-opacity:1;stroke-width:0.250003" />
    <rect
       x="5.7824855"
       y="10.100013"
       width="1.0075002"
       height="1.0075002"
       id="rect6-7"
       style="fill:#eff0f1;fill-opacity:1;stroke-width:0.250003" />
    <rect
       x="7.3525081"
       y="10.100013"
       width="1.0075002"
       height="1.0075002"
       id="rect8-5"
       style="fill:#eff0f1;fill-opacity:1;stroke-width:0.250003" />
    <rect
       x="8.9249821"
       y="10.100013"
       width="1.0075002"
       height="1.0075002"
       id="rect10-3"
       style="fill:#eff0f1;fill-opacity:1;stroke-width:0.250003" />
    <rect
       x="10.494982"
       y="10.100013"
       width="1.0075002"
       height="1.0075002"
       id="rect12-5"
       style="fill:#eff0f1;fill-opacity:1;stroke-width:0.250003" />
    <rect
       x="12.067521"
       y="10.100013"
       width="1.0075002"
       height="1.0075002"
       id="rect14-6"
       style="fill:#eff0f1;fill-opacity:1;stroke-width:0.250003" />
    <rect
       x="13.640008"
       y="10.100013"
       width="1.0075002"
       height="1.0075002"
       id="rect16-2"
       style="fill:#eff0f1;fill-opacity:1;stroke-width:0.250003" />
    <rect
       x="15.210009"
       y="10.100013"
       width="1.0075002"
       height="1.0075002"
       id="rect18-9"
       style="fill:#eff0f1;fill-opacity:1;stroke-width:0.250003" />
    <rect
       x="4.2100291"
       y="11.770029"
       width="2.5799961"
       height="1.0075002"
       id="rect20-1"
       style="fill:#eff0f1;fill-opacity:1;stroke-width:0.250003" />
    <rect
       x="7.3525081"
       y="11.770029"
       width="1.0075002"
       height="1.0075002"
       id="rect22-2"
       style="fill:#eff0f1;fill-opacity:1;stroke-width:0.250003" />
    <rect
       x="8.9249821"
       y="11.770029"
       width="1.0075002"
       height="1.0075002"
       id="rect24-7"
       style="fill:#eff0f1;fill-opacity:1;stroke-width:0.250003" />
    <rect
       x="10.494982"
       y="11.770029"
       width="1.0075002"
       height="1.0075002"
       id="rect26-0"
       style="fill:#eff0f1;fill-opacity:1;stroke-width:0.250003" />
    <rect
       x="12.067521"
       y="11.770029"
       width="1.0075002"
       height="1.0075002"
       id="rect28-9"
       style="fill:#eff0f1;fill-opacity:1;stroke-width:0.250003" />
    <rect
       x="13.640008"
       y="11.770029"
       width="1.0075002"
       height="1.0075002"
       id="rect30-3"
       style="fill:#eff0f1;fill-opacity:1;stroke-width:0.250003" />
    <rect
       x="15.210009"
       y="11.770029"
       width="1.0075002"
       height="1.0075002"
       id="rect32-6"
       style="fill:#eff0f1;fill-opacity:1;stroke-width:0.250003" />
    <rect
       x="4.2100291"
       y="13.440058"
       width="4.1499987"
       height="1.0075002"
       id="rect34-0"
       style="fill:#eff0f1;fill-opacity:1;stroke-width:0.250003" />
    <rect
       x="8.9249821"
       y="13.440058"
       width="1.0075002"
       height="1.0075002"
       id="rect36-6"
       style="fill:#eff0f1;fill-opacity:1;stroke-width:0.250003" />
    <rect
       x="10.494982"
       y="13.440058"
       width="1.0075002"
       height="1.0075002"
       id="rect38-2"
       style="fill:#eff0f1;fill-opacity:1;stroke-width:0.250003" />
    <rect
       x="12.067521"
       y="13.440058"
       width="1.0075002"
       height="1.0075002"
       id="rect40-6"
       style="fill:#eff0f1;fill-opacity:1;stroke-width:0.250003" />
    <rect
       x="13.640008"
       y="13.440058"
       width="1.0075002"
       height="1.0075002"
       id="rect42-1"
       style="fill:#eff0f1;fill-opacity:1;stroke-width:0.250003" />
    <rect
       x="15.210009"
       y="13.440058"
       width="1.0075002"
       height="1.0075002"
       id="rect44-8"
       style="fill:#eff0f1;fill-opacity:1;stroke-width:0.250003" />
    <rect
       x="4.2100291"
       y="15.112498"
       width="1.0075002"
       height="1.0075002"
       id="rect46-7"
       style="fill:#eff0f1;fill-opacity:1;stroke-width:0.250003" />
    <rect
       x="7.3525081"
       y="15.112498"
       width="7.2949982"
       height="1.0075002"
       id="rect48-9"
       style="fill:#8fbcbb;fill-opacity:1;stroke-width:0.250003" />
    <rect
       x="15.210009"
       y="15.112498"
       width="1.0075002"
       height="1.0075002"
       id="rect50-2"
       style="fill:#eff0f1;fill-opacity:1;stroke-width:0.250003" />
    <rect
       x="16.78249"
       y="10.100013"
       width="1.0075002"
       height="1.0075002"
       id="rect52-0"
       style="fill:#eff0f1;fill-opacity:1;stroke-width:0.250003" />
    <rect
       x="16.78249"
       y="11.770029"
       width="1.0075002"
       height="1.0075002"
       id="rect54-2"
       style="fill:#eff0f1;fill-opacity:1;stroke-width:0.250003" />
    <rect
       x="16.78249"
       y="13.440058"
       width="1.0075002"
       height="1.0075002"
       id="rect56-3"
       style="fill:#eff0f1;fill-opacity:1;stroke-width:0.250003" />
    <rect
       x="16.78249"
       y="15.112498"
       width="1.0075002"
       height="1.0075002"
       id="rect58-7"
       style="fill:#eff0f1;fill-opacity:1;stroke-width:0.250003" />
    <rect
       x="5.7824855"
       y="15.112498"
       width="1.0075002"
       height="1.0075002"
       id="rect60-5"
       style="fill:#eff0f1;fill-opacity:1;stroke-width:0.250003" />
  </g>
</svg>
