<?xml version="1.0" encoding="UTF-8" standalone="no"?>
<svg
   xmlns:dc="http://purl.org/dc/elements/1.1/"
   xmlns:cc="http://creativecommons.org/ns#"
   xmlns:rdf="http://www.w3.org/1999/02/22-rdf-syntax-ns#"
   xmlns:svg="http://www.w3.org/2000/svg"
   xmlns="http://www.w3.org/2000/svg"
   xmlns:sodipodi="http://sodipodi.sourceforge.net/DTD/sodipodi-0.dtd"
   xmlns:inkscape="http://www.inkscape.org/namespaces/inkscape"
   width="54"
   height="32"
   version="1.1"
   id="svg12"
   sodipodi:docname="keyboard.svg"
   inkscape:version="1.0.2 (e86c870879, 2021-01-15)">
  <metadata
     id="metadata18">
    <rdf:RDF>
      <cc:Work
         rdf:about="">
        <dc:format>image/svg+xml</dc:format>
        <dc:type
           rdf:resource="http://purl.org/dc/dcmitype/StillImage" />
        <dc:title></dc:title>
      </cc:Work>
    </rdf:RDF>
  </metadata>
  <defs
     id="defs16" />
  <sodipodi:namedview
     pagecolor="#ffffff"
     bordercolor="#000000"
     borderopacity="1"
     objecttolerance="10"
     gridtolerance="10"
     guidetolerance="10"
     inkscape:pageopacity="0"
     inkscape:pageshadow="2"
     inkscape:window-width="1920"
     inkscape:window-height="1007"
     id="namedview14"
     showgrid="false"
     inkscape:zoom="6.9384853"
     inkscape:cx="34.971542"
     inkscape:cy="25.569628"
     inkscape:window-x="0"
     inkscape:window-y="0"
     inkscape:window-maximized="1"
     inkscape:current-layer="svg12"
     inkscape:document-rotation="0"
     inkscape:lockguides="false"
     inkscape:showpageshadow="false">
    <inkscape:grid
       type="xygrid"
       id="grid950"
       originx="0"
       originy="0" />
  </sodipodi:namedview>
  <g
     id="keyboard-layout">
    <rect
       style="opacity:0.00100002"
       width="32"
       height="32"
       x="0"
       y="0"
       id="rect7" />
    <path
       d="m 26.185,13.285019 h -9.768733 v -0.386262 c 0,-1.237483 -1.005024,-2.242489 -2.24253,-2.242489 h -3.42 c -0.776229,0 -1.409999,-0.63375 -1.409999,-1.4100154 0,-0.7762406 0.63377,-1.4099876 1.409999,-1.4099876 H 24.332492 V 7 H 10.753737 C 9.516264,7 8.511245,8.0050099 8.511245,9.2425207 c 0,1.2374783 1.005019,2.2424943 2.242492,2.2424943 h 3.42 c 0.776264,0 1.409999,0.633741 1.409999,1.410011 v 0.386242 H 5.815 C 4.813737,13.284868 4,14.098773 4,15.100017 v 9.02999 C 4,25.13125 4.813737,25.945 5.815,25.945 h 20.37 c 1.001267,0 1.815,-0.81375 1.815,-1.814993 v -9.02999 c 0,-1.001244 -0.813733,-1.814998 -1.815,-1.814998 z m 1.065003,10.844988 c 0,0.588774 -0.476267,1.064993 -1.065003,1.064993 H 5.815 c -0.588733,0 -1.064999,-0.48 -1.064999,-1.064993 v -9.02999 C 4.750001,14.515 5.226267,14.035 5.815,14.035 h 20.37 c 0.588736,0 1.065003,0.476252 1.065003,1.065017 z"
       id="path2"
       style="fill:#eff0f1;fill-opacity:1;stroke-width:0.375006" />
    <rect
       x="5.815033"
       y="15.100016"
       width="1.51125"
       height="1.51125"
       id="rect4"
       style="fill:#eff0f1;fill-opacity:1;stroke-width:0.375006" />
    <rect
       x="8.1737137"
       y="15.100016"
       width="1.51125"
       height="1.51125"
       id="rect6"
       style="fill:#eff0f1;fill-opacity:1;stroke-width:0.375006" />
    <rect
       x="10.528786"
       y="15.100016"
       width="1.51125"
       height="1.51125"
       id="rect8"
       style="fill:#eff0f1;fill-opacity:1;stroke-width:0.375006" />
    <rect
       x="12.887482"
       y="15.100016"
       width="1.51125"
       height="1.51125"
       id="rect10"
       style="fill:#eff0f1;fill-opacity:1;stroke-width:0.375006" />
    <rect
       x="15.242474"
       y="15.100016"
       width="1.51125"
       height="1.51125"
       id="rect12"
       style="fill:#eff0f1;fill-opacity:1;stroke-width:0.375006" />
    <rect
       x="17.601286"
       y="15.100016"
       width="1.51125"
       height="1.51125"
       id="rect14"
       style="fill:#eff0f1;fill-opacity:1;stroke-width:0.375006" />
    <rect
       x="19.960018"
       y="15.100016"
       width="1.51125"
       height="1.51125"
       id="rect16"
       style="fill:#eff0f1;fill-opacity:1;stroke-width:0.375006" />
    <rect
       x="22.314991"
       y="15.100016"
       width="1.51125"
       height="1.51125"
       id="rect18"
       style="fill:#eff0f1;fill-opacity:1;stroke-width:0.375006" />
    <rect
       x="5.815033"
       y="17.605034"
       width="3.8699932"
       height="1.51125"
       id="rect20"
       style="fill:#eff0f1;fill-opacity:1;stroke-width:0.375006" />
    <rect
       x="10.528786"
       y="17.605034"
       width="1.51125"
       height="1.51125"
       id="rect22"
       style="fill:#eff0f1;fill-opacity:1;stroke-width:0.375006" />
    <rect
       x="12.887482"
       y="17.605034"
       width="1.51125"
       height="1.51125"
       id="rect24"
       style="fill:#eff0f1;fill-opacity:1;stroke-width:0.375006" />
    <rect
       x="15.242474"
       y="17.605034"
       width="1.51125"
       height="1.51125"
       id="rect26"
       style="fill:#eff0f1;fill-opacity:1;stroke-width:0.375006" />
    <rect
       x="17.601286"
       y="17.605034"
       width="1.51125"
       height="1.51125"
       id="rect28"
       style="fill:#eff0f1;fill-opacity:1;stroke-width:0.375006" />
    <rect
       x="19.960018"
       y="17.605034"
       width="1.51125"
       height="1.51125"
       id="rect30"
       style="fill:#eff0f1;fill-opacity:1;stroke-width:0.375006" />
    <rect
       x="22.314991"
       y="17.605034"
       width="1.51125"
       height="1.51125"
       id="rect32"
       style="fill:#eff0f1;fill-opacity:1;stroke-width:0.375006" />
    <rect
       x="5.815033"
       y="20.110067"
       width="6.2249961"
       height="1.51125"
       id="rect34"
       style="fill:#eff0f1;fill-opacity:1;stroke-width:0.375006" />
    <rect
       x="12.887482"
       y="20.110067"
       width="1.51125"
       height="1.51125"
       id="rect36"
       style="fill:#eff0f1;fill-opacity:1;stroke-width:0.375006" />
    <rect
       x="15.242474"
       y="20.110067"
       width="1.51125"
       height="1.51125"
       id="rect38"
       style="fill:#eff0f1;fill-opacity:1;stroke-width:0.375006" />
    <rect
       x="17.601286"
       y="20.110067"
       width="1.51125"
       height="1.51125"
       id="rect40"
       style="fill:#eff0f1;fill-opacity:1;stroke-width:0.375006" />
    <rect
       x="19.960018"
       y="20.110067"
       width="1.51125"
       height="1.51125"
       id="rect42"
       style="fill:#eff0f1;fill-opacity:1;stroke-width:0.375006" />
    <rect
       x="22.314991"
       y="20.110067"
       width="1.51125"
       height="1.51125"
       id="rect44"
       style="fill:#eff0f1;fill-opacity:1;stroke-width:0.375006" />
    <rect
       x="5.815033"
       y="22.618738"
       width="1.51125"
       height="1.51125"
       id="rect46"
       style="fill:#eff0f1;fill-opacity:1;stroke-width:0.375006" />
    <rect
       x="10.528786"
       y="22.618738"
       width="10.942497"
       height="1.51125"
       id="rect48"
       style="fill:#8fbcbb;fill-opacity:1;stroke-width:0.375006" />
    <rect
       x="22.314991"
       y="22.618738"
       width="1.51125"
       height="1.51125"
       id="rect50"
       style="fill:#eff0f1;fill-opacity:1;stroke-width:0.375006" />
    <rect
       x="24.673752"
       y="15.100016"
       width="1.51125"
       height="1.51125"
       id="rect52"
       style="fill:#eff0f1;fill-opacity:1;stroke-width:0.375006" />
    <rect
       x="24.673752"
       y="17.605034"
       width="1.51125"
       height="1.51125"
       id="rect54"
       style="fill:#eff0f1;fill-opacity:1;stroke-width:0.375006" />
    <rect
       x="24.673752"
       y="20.110067"
       width="1.51125"
       height="1.51125"
       id="rect56"
       style="fill:#eff0f1;fill-opacity:1;stroke-width:0.375006" />
    <rect
       x="24.673752"
       y="22.618738"
       width="1.51125"
       height="1.51125"
       id="rect58"
       style="fill:#eff0f1;fill-opacity:1;stroke-width:0.375006" />
    <rect
       x="8.1737137"
       y="22.618738"
       width="1.51125"
       height="1.51125"
       id="rect60"
       style="fill:#eff0f1;fill-opacity:1;stroke-width:0.375006" />
  </g>
  <g
     id="22-22-keyboard-layout"
     transform="translate(32,10)">
    <rect
       style="opacity:0.00100002"
       width="22"
       height="22"
       x="0"
       y="0"
       id="rect2" />
    <path
       d="M 17.790001,9.1900104 H 11.277514 V 8.9325038 c 0,-0.8249875 -0.670016,-1.494992 -1.495025,-1.494992 h -2.28 c -0.51748,0 -0.939999,-0.4225002 -0.939999,-0.9400099 0,-0.5174941 0.422519,-0.9399919 0.939999,-0.9399919 H 16.55499 V 5 H 7.502489 c -0.824977,0 -1.49499,0.6700067 -1.49499,1.495014 0,0.824985 0.670013,1.494996 1.49499,1.494996 h 2.28 c 0.517512,0 0.939999,0.4224938 0.939999,0.9400074 V 9.1875122 H 4.210002 C 3.542489,9.1899122 3,9.7325176 3,10.400015 v 6.019992 c 0,0.667496 0.542489,1.209991 1.210002,1.209991 h 13.579999 c 0.667513,0 1.209998,-0.542495 1.209998,-1.209991 v -6.019992 c 0,-0.6674974 -0.542485,-1.2100046 -1.209998,-1.2100046 z m 0.710001,7.2299966 c 0,0.392509 -0.317515,0.709995 -0.710001,0.709995 H 4.210002 c -0.392487,0 -0.710001,-0.320004 -0.710001,-0.709995 v -6.019992 c 0,-0.390015 0.317514,-0.7100155 0.710001,-0.7100155 h 13.579999 c 0.392486,0 0.710001,0.3174995 0.710001,0.7100155 z"
       id="path2-3"
       style="fill:#eff0f1;fill-opacity:1;stroke-width:0.250003" />
    <rect
       x="4.2100301"
       y="10.40001"
       width="1.0075002"
       height="1.0075002"
       id="rect4-6"
       style="fill:#eff0f1;fill-opacity:1;stroke-width:0.250003" />
    <rect
       x="5.7824864"
       y="10.40001"
       width="1.0075002"
       height="1.0075002"
       id="rect6-7"
       style="fill:#eff0f1;fill-opacity:1;stroke-width:0.250003" />
    <rect
       x="7.352509"
       y="10.40001"
       width="1.0075002"
       height="1.0075002"
       id="rect8-5"
       style="fill:#eff0f1;fill-opacity:1;stroke-width:0.250003" />
    <rect
       x="8.9249783"
       y="10.40001"
       width="1.0075002"
       height="1.0075002"
       id="rect10-3"
       style="fill:#eff0f1;fill-opacity:1;stroke-width:0.250003" />
    <rect
       x="10.494978"
       y="10.40001"
       width="1.0075002"
       height="1.0075002"
       id="rect12-5"
       style="fill:#eff0f1;fill-opacity:1;stroke-width:0.250003" />
    <rect
       x="12.067518"
       y="10.40001"
       width="1.0075002"
       height="1.0075002"
       id="rect14-6"
       style="fill:#eff0f1;fill-opacity:1;stroke-width:0.250003" />
    <rect
       x="13.640005"
       y="10.40001"
       width="1.0075002"
       height="1.0075002"
       id="rect16-2"
       style="fill:#eff0f1;fill-opacity:1;stroke-width:0.250003" />
    <rect
       x="15.210006"
       y="10.40001"
       width="1.0075002"
       height="1.0075002"
       id="rect18-9"
       style="fill:#eff0f1;fill-opacity:1;stroke-width:0.250003" />
    <rect
       x="4.2100301"
       y="12.070025"
       width="2.5799961"
       height="1.0075002"
       id="rect20-1"
       style="fill:#eff0f1;fill-opacity:1;stroke-width:0.250003" />
    <rect
       x="7.352509"
       y="12.070025"
       width="1.0075002"
       height="1.0075002"
       id="rect22-2"
       style="fill:#eff0f1;fill-opacity:1;stroke-width:0.250003" />
    <rect
       x="8.9249783"
       y="12.070025"
       width="1.0075002"
       height="1.0075002"
       id="rect24-7"
       style="fill:#eff0f1;fill-opacity:1;stroke-width:0.250003" />
    <rect
       x="10.494978"
       y="12.070025"
       width="1.0075002"
       height="1.0075002"
       id="rect26-0"
       style="fill:#eff0f1;fill-opacity:1;stroke-width:0.250003" />
    <rect
       x="12.067518"
       y="12.070025"
       width="1.0075002"
       height="1.0075002"
       id="rect28-9"
       style="fill:#eff0f1;fill-opacity:1;stroke-width:0.250003" />
    <rect
       x="13.640005"
       y="12.070025"
       width="1.0075002"
       height="1.0075002"
       id="rect30-3"
       style="fill:#eff0f1;fill-opacity:1;stroke-width:0.250003" />
    <rect
       x="15.210006"
       y="12.070025"
       width="1.0075002"
       height="1.0075002"
       id="rect32-6"
       style="fill:#eff0f1;fill-opacity:1;stroke-width:0.250003" />
    <rect
       x="4.2100301"
       y="13.740054"
       width="4.1499987"
       height="1.0075002"
       id="rect34-0"
       style="fill:#eff0f1;fill-opacity:1;stroke-width:0.250003" />
    <rect
       x="8.9249783"
       y="13.740054"
       width="1.0075002"
       height="1.0075002"
       id="rect36-6"
       style="fill:#eff0f1;fill-opacity:1;stroke-width:0.250003" />
    <rect
       x="10.494978"
       y="13.740054"
       width="1.0075002"
       height="1.0075002"
       id="rect38-2"
       style="fill:#eff0f1;fill-opacity:1;stroke-width:0.250003" />
    <rect
       x="12.067518"
       y="13.740054"
       width="1.0075002"
       height="1.0075002"
       id="rect40-6"
       style="fill:#eff0f1;fill-opacity:1;stroke-width:0.250003" />
    <rect
       x="13.640005"
       y="13.740054"
       width="1.0075002"
       height="1.0075002"
       id="rect42-1"
       style="fill:#eff0f1;fill-opacity:1;stroke-width:0.250003" />
    <rect
       x="15.210006"
       y="13.740054"
       width="1.0075002"
       height="1.0075002"
       id="rect44-8"
       style="fill:#eff0f1;fill-opacity:1;stroke-width:0.250003" />
    <rect
       x="4.2100301"
       y="15.412495"
       width="1.0075002"
       height="1.0075002"
       id="rect46-7"
       style="fill:#eff0f1;fill-opacity:1;stroke-width:0.250003" />
    <rect
       x="7.352509"
       y="15.412495"
       width="7.2949982"
       height="1.0075002"
       id="rect48-9"
       style="fill:#8fbcbb;fill-opacity:1;stroke-width:0.250003" />
    <rect
       x="15.210006"
       y="15.412495"
       width="1.0075002"
       height="1.0075002"
       id="rect50-2"
       style="fill:#eff0f1;fill-opacity:1;stroke-width:0.250003" />
    <rect
       x="16.782484"
       y="10.40001"
       width="1.0075002"
       height="1.0075002"
       id="rect52-0"
       style="fill:#eff0f1;fill-opacity:1;stroke-width:0.250003" />
    <rect
       x="16.782484"
       y="12.070025"
       width="1.0075002"
       height="1.0075002"
       id="rect54-2"
       style="fill:#eff0f1;fill-opacity:1;stroke-width:0.250003" />
    <rect
       x="16.782484"
       y="13.740054"
       width="1.0075002"
       height="1.0075002"
       id="rect56-3"
       style="fill:#eff0f1;fill-opacity:1;stroke-width:0.250003" />
    <rect
       x="16.782484"
       y="15.412495"
       width="1.0075002"
       height="1.0075002"
       id="rect58-7"
       style="fill:#eff0f1;fill-opacity:1;stroke-width:0.250003" />
    <rect
       x="5.7824864"
       y="15.412495"
       width="1.0075002"
       height="1.0075002"
       id="rect60-5"
       style="fill:#eff0f1;fill-opacity:1;stroke-width:0.250003" />
  </g>
</svg>
