<?xml version="1.0" encoding="UTF-8" standalone="no"?>
<svg
   xmlns:dc="http://purl.org/dc/elements/1.1/"
   xmlns:cc="http://creativecommons.org/ns#"
   xmlns:rdf="http://www.w3.org/1999/02/22-rdf-syntax-ns#"
   xmlns:svg="http://www.w3.org/2000/svg"
   xmlns="http://www.w3.org/2000/svg"
   xmlns:sodipodi="http://sodipodi.sourceforge.net/DTD/sodipodi-0.dtd"
   xmlns:inkscape="http://www.inkscape.org/namespaces/inkscape"
   width="32"
   height="32"
   version="1.1"
   id="svg12"
   sodipodi:docname="konv_message.svg"
   inkscape:version="1.0.2 (e86c870879, 2021-01-15)">
  <g
     id="22-22-konv_message"
     transform="translate(32,10)">
    <rect
       style="opacity:0.00100002"
       width="22"
       height="22"
       x="0"
       y="4.7683716e-07"
       id="rect2" />
    <path
       fill="none"
       d="M 15.577048,6.87772 H 6.442175 c -0.234771,0 -0.425755,0.190985 -0.425755,0.425578 0,0.234592 0.190984,0.425577 0.425755,0.425577 h 9.134873 c 0.234771,0 0.425577,-0.190985 0.425577,-0.425577 0,-0.234593 -0.190806,-0.425578 -0.425577,-0.425578 z"
       id="path2-3-5-1"
       style="stroke-width:0.177991" />
    <path
       fill="none"
       d="M 15.577048,9.88969 H 6.442175 c -0.234771,0 -0.425755,0.190985 -0.425755,0.425578 0,0.234592 0.190984,0.425577 0.425755,0.425577 h 9.134873 c 0.234771,0 0.425577,-0.190985 0.425577,-0.425577 0,-0.234593 -0.190806,-0.425578 -0.425577,-0.425578 z"
       id="path4-3-2"
       style="stroke-width:0.177991" />
    <path
       fill="none"
       d="M 16.481066,3.516709 H 5.538157 c -1.114582,0 -2.021448,0.906866 -2.021448,2.021448 v 6.383305 c 0,1.191296 0.52721,2.021448 1.000311,2.021448 h 1.258577 c 0.142571,0 0.258444,0.115694 0.258444,0.258443 l 3.56e-4,4.092022 c 0,0.06746 0.0059,0.117652 0.01282,0.153072 0.02777,-0.02296 0.06408,-0.05803 0.106795,-0.109998 l 3.525653,-4.298848 c 0.04895,-0.0598 0.122458,-0.09451 0.199706,-0.09451 h 6.6017 c 1.114582,0 2.02127,-0.906866 2.02127,-2.021448 V 5.53816 c 1.78e-4,-1.114582 -0.906688,-2.021448 -2.02127,-2.021448 z m -0.904018,7.740845 H 6.442175 c -0.519735,0 -0.942464,-0.422729 -0.942464,-0.942286 0,-0.519557 0.422729,-0.942287 0.942464,-0.942287 h 9.134873 c 0.519557,0 0.942464,0.42273 0.942464,0.942287 0,0.519557 -0.422729,0.942286 -0.942464,0.942286 z m 0,-3.011792 H 6.442175 c -0.519735,0 -0.942464,-0.422729 -0.942464,-0.942286 0,-0.519557 0.422729,-0.942287 0.942464,-0.942287 h 9.134873 c 0.519557,0 0.942464,0.42273 0.942464,0.942287 0,0.519557 -0.422729,0.942286 -0.942464,0.942286 z"
       id="path6-5-7"
       style="stroke-width:0.177991" />
    <path
       d="M 16.481066,3 H 5.538157 C 4.138611,3 3,4.138611 3,5.538157 v 6.383305 c 0,1.423219 0.6664,2.538157 1.517198,2.538157 H 5.51751 l 3.56e-4,3.833578 c 0,0.462599 0.185289,0.625996 0.340853,0.681529 0.04201,0.01495 0.0906,0.02528 0.145063,0.02528 0.147021,0 0.336404,-0.07511 0.550172,-0.336226 l 3.448048,-4.204156 h 6.479064 c 1.399546,0 2.538157,-1.138611 2.538157,-2.538157 V 5.538157 C 19.019223,4.138611 17.880612,3 16.481066,3 Z m 2.021448,8.921462 c 0,1.114582 -0.906688,2.021448 -2.02127,2.021448 h -6.6017 c -0.07743,0 -0.150758,0.03471 -0.199706,0.09451 l -3.525653,4.298848 c -0.04272,0.05197 -0.07885,0.08722 -0.106795,0.109998 -0.0071,-0.03542 -0.01282,-0.08561 -0.01282,-0.153072 l -3.56e-4,-4.092022 c 0,-0.142571 -0.115695,-0.258443 -0.258444,-0.258443 H 4.517193 c -0.473101,0 -1.000311,-0.830152 -1.000311,-2.021448 V 5.538154 c 0,-1.114582 0.906866,-2.021448 2.021448,-2.021448 h 10.942909 c 1.114582,0 2.02127,0.906866 2.02127,2.021448 z"
       id="path8-6-0"
       style="fill:#8fbcbb;fill-opacity:1;stroke-width:0.177991" />
    <path
       d="M 15.577048,6.361011 H 6.442175 c -0.519735,0 -0.942464,0.42273 -0.942464,0.942287 0,0.519557 0.422729,0.942286 0.942464,0.942286 h 9.134873 c 0.519557,0 0.942464,-0.422729 0.942464,-0.942286 0,-0.519557 -0.422729,-0.942287 -0.942464,-0.942287 z m 0,1.367864 H 6.442175 c -0.234771,0 -0.425755,-0.190985 -0.425755,-0.425577 0,-0.234593 0.190984,-0.425578 0.425755,-0.425578 h 9.134873 c 0.234771,0 0.425577,0.190985 0.425577,0.425578 0,0.234592 -0.190806,0.425577 -0.425577,0.425577 z"
       id="path10-2-9"
       style="fill:#88c0d0;fill-opacity:1;stroke-width:0.177991" />
    <path
       d="M 15.577048,9.372803 H 6.442175 c -0.519735,0 -0.942464,0.42273 -0.942464,0.942287 0,0.519557 0.422729,0.942286 0.942464,0.942286 h 9.134873 c 0.519557,0 0.942464,-0.422729 0.942464,-0.942286 0,-0.519557 -0.422729,-0.942287 -0.942464,-0.942287 z m 0,1.368042 H 6.442175 c -0.234771,0 -0.425755,-0.190985 -0.425755,-0.425577 0,-0.234593 0.190984,-0.425578 0.425755,-0.425578 h 9.134873 c 0.234771,0 0.425577,0.190985 0.425577,0.425578 0,0.234592 -0.190806,0.425577 -0.425577,0.425577 z"
       id="path12-9-3"
       style="fill:#88c0d0;fill-opacity:1;stroke-width:0.177991" />
  </g>
  <metadata
     id="metadata18">
    <rdf:RDF>
      <cc:Work
         rdf:about="">
        <dc:format>image/svg+xml</dc:format>
        <dc:type
           rdf:resource="http://purl.org/dc/dcmitype/StillImage" />
        <dc:title />
      </cc:Work>
    </rdf:RDF>
  </metadata>
  <defs
     id="defs16" />
  <sodipodi:namedview
     pagecolor="#ffffff"
     bordercolor="#666666"
     borderopacity="1"
     objecttolerance="10"
     gridtolerance="10"
     guidetolerance="10"
     inkscape:pageopacity="0"
     inkscape:pageshadow="2"
     inkscape:window-width="1920"
     inkscape:window-height="1007"
     id="namedview14"
     showgrid="false"
     inkscape:zoom="6.9384853"
     inkscape:cx="30.870533"
     inkscape:cy="8.65745"
     inkscape:window-x="0"
     inkscape:window-y="0"
     inkscape:window-maximized="1"
     inkscape:current-layer="svg12"
     inkscape:document-rotation="0"
     inkscape:pagecheckerboard="false" />
  <g
     id="konv_message">
    <rect
       style="opacity:0.00100002"
       width="32"
       height="32"
       x="0"
       y="0"
       id="rect7" />
    <path
       fill="none"
       d="M 22.865572,9.8165798 H 9.1632625 c -0.3521559,0 -0.638633,0.2864772 -0.638633,0.6383662 0,0.351889 0.2864771,0.638366 0.638633,0.638366 H 22.865572 c 0.352156,0 0.638366,-0.286477 0.638366,-0.638366 0,-0.351889 -0.28621,-0.6383662 -0.638366,-0.6383662 z"
       id="path2-3"
       style="stroke-width:0.266987" />
    <path
       fill="none"
       d="M 22.865572,14.334535 H 9.1632625 c -0.3521559,0 -0.638633,0.286477 -0.638633,0.638366 0,0.351889 0.2864771,0.638366 0.638633,0.638366 H 22.865572 c 0.352156,0 0.638366,-0.286477 0.638366,-0.638366 0,-0.351889 -0.28621,-0.638366 -0.638366,-0.638366 z"
       id="path4"
       style="stroke-width:0.266987" />
    <path
       fill="none"
       d="M 24.221599,4.7750634 H 7.8072353 c -1.6718729,0 -3.0321719,1.360299 -3.0321719,3.0321719 v 9.5749567 c 0,1.786944 0.7908156,3.032172 1.5004672,3.032172 H 8.163396 c 0.2138566,0 0.3876652,0.173541 0.3876652,0.387665 l 5.34e-4,6.138032 c 0,0.101188 0.00881,0.176479 0.019223,0.229609 0.04165,-0.03444 0.096115,-0.08704 0.1601923,-0.164998 L 14.01949,20.556401 c 0.07342,-0.08971 0.183687,-0.14177 0.299559,-0.14177 h 9.90255 c 1.671873,0 3.031905,-1.360299 3.031905,-3.032172 V 7.8072353 C 27.253771,6.1353624 25.893472,4.7750634 24.221599,4.7750634 Z M 22.865572,16.38633 H 9.1632625 c -0.7796022,0 -1.4136964,-0.634094 -1.4136964,-1.413429 0,-0.779335 0.6340942,-1.41343 1.4136964,-1.41343 H 22.865572 c 0.779335,0 1.413696,0.634095 1.413696,1.41343 0,0.779335 -0.634094,1.413429 -1.413696,1.413429 z m 0,-4.517688 H 9.1632625 c -0.7796022,0 -1.4136964,-0.634094 -1.4136964,-1.413429 0,-0.7793354 0.6340942,-1.4134296 1.4136964,-1.4134296 H 22.865572 c 0.779335,0 1.413696,0.6340942 1.413696,1.4134296 0,0.779335 -0.634094,1.413429 -1.413696,1.413429 z"
       id="path6"
       style="stroke-width:0.266987" />
    <path
       d="M 24.221599,4 H 7.8072353 C 5.7079161,4 4,5.7079161 4,7.8072353 v 9.5749567 c 0,2.134828 0.9995995,3.807235 2.2757976,3.807235 h 1.5004672 l 5.34e-4,5.750367 c 0,0.6939 0.2779335,0.938994 0.5112802,1.022294 C 8.3510879,27.984515 8.4239754,28 8.5056734,28 c 0.2205313,0 0.5046055,-0.112669 0.825257,-0.504339 l 5.1720736,-6.306234 h 9.718595 c 2.099319,0 3.807235,-1.707916 3.807235,-3.807235 V 7.8072353 C 28.028834,5.7079161 26.320918,4 24.221599,4 Z m 3.032172,13.382192 c 0,1.671873 -1.360032,3.032172 -3.031905,3.032172 h -9.90255 c -0.116139,0 -0.226138,0.05206 -0.299559,0.14177 l -5.2884795,6.448271 c -0.064077,0.07796 -0.1182753,0.130824 -0.1601923,0.164998 -0.010679,-0.05313 -0.019223,-0.128421 -0.019223,-0.229609 l -5.34e-4,-6.138032 c 0,-0.213857 -0.1735416,-0.387665 -0.3876652,-0.387665 H 6.2757976 c -0.7096516,0 -1.5004673,-1.245228 -1.5004673,-3.032172 V 7.8072353 c 0,-1.6718729 1.3602991,-3.0321719 3.032172,-3.0321719 H 24.221866 c 1.671873,0 3.031905,1.360299 3.031905,3.0321719 z"
       id="path8"
       style="fill:#8fbcbb;fill-opacity:1;stroke-width:0.266987" />
    <path
       d="M 22.865572,9.0415164 H 9.1632625 c -0.7796022,0 -1.4136964,0.6340943 -1.4136964,1.4134296 0,0.779335 0.6340942,1.413429 1.4136964,1.413429 H 22.865572 c 0.779335,0 1.413696,-0.634094 1.413696,-1.413429 0,-0.7793353 -0.634094,-1.4134296 -1.413696,-1.4134296 z m 0,2.0517956 H 9.1632625 c -0.3521559,0 -0.638633,-0.286477 -0.638633,-0.638366 0,-0.351889 0.2864771,-0.6383662 0.638633,-0.6383662 H 22.865572 c 0.352156,0 0.638366,0.2864772 0.638366,0.6383662 0,0.351889 -0.28621,0.638366 -0.638366,0.638366 z"
       id="path10"
       style="fill:#88c0d0;fill-opacity:1;stroke-width:0.266987" />
    <path
       d="M 22.865572,13.559204 H 9.1632625 c -0.7796022,0 -1.4136964,0.634095 -1.4136964,1.41343 0,0.779335 0.6340942,1.413429 1.4136964,1.413429 H 22.865572 c 0.779335,0 1.413696,-0.634094 1.413696,-1.413429 0,-0.779335 -0.634094,-1.41343 -1.413696,-1.41343 z m 0,2.052063 H 9.1632625 c -0.3521559,0 -0.638633,-0.286477 -0.638633,-0.638366 0,-0.351889 0.2864771,-0.638366 0.638633,-0.638366 H 22.865572 c 0.352156,0 0.638366,0.286477 0.638366,0.638366 0,0.351889 -0.28621,0.638366 -0.638366,0.638366 z"
       id="path12"
       style="fill:#88c0d0;fill-opacity:1;stroke-width:0.266987" />
  </g>
</svg>
