<?xml version="1.0" encoding="UTF-8" standalone="no"?>
<svg
   xmlns:dc="http://purl.org/dc/elements/1.1/"
   xmlns:cc="http://creativecommons.org/ns#"
   xmlns:rdf="http://www.w3.org/1999/02/22-rdf-syntax-ns#"
   xmlns:svg="http://www.w3.org/2000/svg"
   xmlns="http://www.w3.org/2000/svg"
   xmlns:xlink="http://www.w3.org/1999/xlink"
   xmlns:sodipodi="http://sodipodi.sourceforge.net/DTD/sodipodi-0.dtd"
   xmlns:inkscape="http://www.inkscape.org/namespaces/inkscape"
   inkscape:version="1.0.2 (e86c870879, 2021-01-15)"
   sodipodi:docname="view.svg"
   id="svg873"
   version="1.1"
   height="32"
   width="32">
  <metadata
     id="metadata879">
    <rdf:RDF>
      <cc:Work
         rdf:about="">
        <dc:format>image/svg+xml</dc:format>
        <dc:type
           rdf:resource="http://purl.org/dc/dcmitype/StillImage" />
        <dc:title />
      </cc:Work>
    </rdf:RDF>
  </metadata>
  <defs
     id="defs877">
    <linearGradient
       inkscape:collect="always"
       id="linearGradient863">
      <stop
         style="stop-color:#80b3ff;stop-opacity:1"
         offset="0"
         id="stop859" />
      <stop
         style="stop-color:#5fd38d;stop-opacity:1"
         offset="1"
         id="stop861" />
    </linearGradient>
    <linearGradient
       id="_lgradient_0"
       x1="0"
       y1="0.5"
       x2="1"
       y2="0.5"
       gradientTransform="matrix(27.999994,0,0,27.999998,1.9766191,1.9139856)"
       gradientUnits="userSpaceOnUse">
      <stop
         offset="0%"
         stop-opacity="1"
         style="stop-color:rgb(105,227,255)"
         id="stop33" />
      <stop
         offset="100%"
         stop-opacity="1"
         style="stop-color:rgb(0,255,194)"
         id="stop35" />
    </linearGradient>
    <linearGradient
       y2="0.5"
       x2="1"
       y1="0.5"
       x1="0"
       gradientTransform="matrix(27.999994,0,0,27.999998,1.9766191,1.9139856)"
       gradientUnits="userSpaceOnUse"
       id="linearGradient888"
       xlink:href="#_lgradient_0"
       inkscape:collect="always" />
    <linearGradient
       gradientUnits="userSpaceOnUse"
       y2="499.98923"
       x2="990.013"
       y1="499.98923"
       x1="9.9975004"
       id="linearGradient920"
       xlink:href="#_lgradient_0-3"
       inkscape:collect="always" />
    <linearGradient
       id="_lgradient_0-3"
       x1="0"
       y1="0.5"
       x2="1"
       y2="0.5"
       gradientTransform="matrix(27.999994,0,0,27.999998,1.9766191,1.9139856)"
       gradientUnits="userSpaceOnUse">
      <stop
         offset="0%"
         stop-opacity="1"
         style="stop-color:#ff8fc3;stop-opacity:1"
         id="stop33-6" />
      <stop
         offset="100%"
         stop-opacity="1"
         style="stop-color:rgb(0,255,194)"
         id="stop35-7" />
    </linearGradient>
    <linearGradient
       inkscape:collect="always"
       xlink:href="#_lgradient_0-3"
       id="linearGradient870"
       gradientUnits="userSpaceOnUse"
       x1="9.9975004"
       y1="499.98923"
       x2="990.013"
       y2="499.98923" />
    <linearGradient
       inkscape:collect="always"
       xlink:href="#linearGradient863"
       id="linearGradient865"
       x1="14.712432"
       y1="-3.1624117"
       x2="15.312317"
       y2="-28.946352"
       gradientUnits="userSpaceOnUse" />
    <linearGradient
       inkscape:collect="always"
       xlink:href="#linearGradient863"
       id="linearGradient900"
       x1="14.895721"
       y1="16.371977"
       x2="17.257277"
       y2="16.371977"
       gradientUnits="userSpaceOnUse" />
    <linearGradient
       inkscape:collect="always"
       xlink:href="#linearGradient863"
       id="linearGradient902"
       x1="10.630275"
       y1="16.371977"
       x2="12.991831"
       y2="16.371977"
       gradientUnits="userSpaceOnUse" />
    <linearGradient
       inkscape:collect="always"
       xlink:href="#linearGradient863"
       id="linearGradient904"
       x1="19.179474"
       y1="16.371977"
       x2="21.541031"
       y2="16.371977"
       gradientUnits="userSpaceOnUse" />
    <linearGradient
       inkscape:collect="always"
       xlink:href="#linearGradient863"
       id="linearGradient906"
       x1="14.895721"
       y1="19.648865"
       x2="17.257277"
       y2="19.648865"
       gradientUnits="userSpaceOnUse" />
    <linearGradient
       inkscape:collect="always"
       xlink:href="#linearGradient863"
       id="linearGradient908"
       x1="10.630275"
       y1="19.648865"
       x2="12.991831"
       y2="19.648865"
       gradientUnits="userSpaceOnUse" />
    <linearGradient
       inkscape:collect="always"
       xlink:href="#linearGradient863"
       id="linearGradient910"
       x1="19.179474"
       y1="19.648865"
       x2="21.541031"
       y2="19.648865"
       gradientUnits="userSpaceOnUse" />
    <linearGradient
       inkscape:collect="always"
       xlink:href="#linearGradient863"
       id="linearGradient897"
       x1="7.3499999"
       y1="13.944669"
       x2="24.723291"
       y2="13.944669"
       gradientUnits="userSpaceOnUse" />
    <linearGradient
       inkscape:collect="always"
       xlink:href="#linearGradient863"
       id="linearGradient905"
       x1="487.06171"
       y1="48.017578"
       x2="499.06186"
       y2="48.017578"
       gradientUnits="userSpaceOnUse" />
  </defs>
  <sodipodi:namedview
     inkscape:current-layer="svg873"
     inkscape:window-maximized="1"
     inkscape:window-y="0"
     inkscape:window-x="0"
     inkscape:cy="23.335695"
     inkscape:cx="31.933079"
     inkscape:zoom="11.99254"
     showgrid="false"
     id="namedview875"
     inkscape:window-height="1007"
     inkscape:window-width="1920"
     inkscape:pageshadow="2"
     inkscape:pageopacity="0"
     guidetolerance="10"
     gridtolerance="10"
     objecttolerance="10"
     borderopacity="1"
     inkscape:document-rotation="0"
     bordercolor="#000000"
     pagecolor="#ffffff"
     inkscape:lockguides="false"
     inkscape:showpageshadow="false" />
  <g
     transform="translate(-250.00021,54.000004)"
     id="view-refresh">
    <path
       id="path836"
       style="opacity:0.00100002"
       d="m 282.00021,-38.000004 h 16 v 16 h -16 z" />
    <g
       id="g841"
       transform="translate(281.97246,-37.000109)">
      <g
         transform="translate(-485.03396,-41.017475)"
         id="layer12-0">
        <path
           id="path838"
           style="fill:url(#linearGradient905);fill-opacity:1"
           d="m 499.06185,49.01758 c 0,3.31371 -2.68629,6 -6,6 -3.28006,0 -5.94034,-2.63316 -5.99414,-5.90039 a 1,1 0 0 1 -0.006,-0.09961 1,1 0 0 1 1,-1 1,1 0 0 1 1,1 c 0,2.20914 1.79086,4 4,4 2.20914,0 4,-1.79086 4,-4 0,-2.20914 -1.79086,-4 -4,-4 v 2 l -4,-3 4,-3 v 2 c 3.31371,0 6,2.68629 6,6 z" />
      </g>
    </g>
  </g>
  <g
     style="clip-rule:evenodd;fill:url(#linearGradient920);fill-opacity:1;fill-rule:evenodd;stroke-linejoin:round;stroke-miterlimit:1.41420996"
     id="g10"
     transform="matrix(0.02856847,0,0,0.02856847,-24.124545,-5.0891493)">
    <g
       style="fill:url(#linearGradient870);fill-opacity:1"
       transform="matrix(0.1,0,0,-0.1,0,511)"
       id="g8" />
  </g>
  <g
     id="view-history">
    <rect
       ry="0.91472864"
       y="0"
       x="0"
       height="32"
       width="32"
       id="rect817-5"
       style="clip-rule:evenodd;fill:#ffff96;fill-opacity:0;fill-rule:evenodd;stroke-width:1.04154;stroke-linejoin:round;stroke-miterlimit:1.41421;stroke-dasharray:none" />
    <path
       inkscape:connector-curvature="0"
       style="clip-rule:evenodd;opacity:0;isolation:isolate;fill:url(#linearGradient888);fill-rule:evenodd;stroke-width:1.07692;stroke-linejoin:round;stroke-miterlimit:1.41421"
       d="m 16.58508,3.1578315 0.158302,0.00969 c 3.250158,0.1949228 6.306467,1.6240001 8.54,3.9910766 2.234618,2.3724617 3.476309,5.5063079 3.476309,8.7618459 0,3.389077 -1.346151,6.637076 -3.74446,9.034307 -2.397231,2.39723 -5.648462,3.742308 -9.038611,3.742308 -3.390158,0 -6.6413814,-1.345078 -9.0386167,-3.742308 -2.3983075,-2.397231 -3.744461,-5.64523 -3.744461,-9.034307 0,-2.263692 0.6030766,-4.490769 1.7478459,-6.4432304 C 6.0850803,7.5172158 7.7284647,5.8996776 9.7013816,4.786139 v 0 C 9.9932396,4.6213698 10.09662,4.2509089 9.9318486,3.9579856 v 0 C 9.7681596,3.6661389 9.3966196,3.5627543 9.1047746,3.7275235 v 0 C 6.9433883,4.9498315 5.1416955,6.7202928 3.8881574,8.8622926 2.6400031,11.004293 1.9766192,13.438138 1.9766192,15.920446 c 0,3.711076 1.4732301,7.270307 4.1030759,9.892614 2.6233854,2.62877 6.1836869,4.100923 9.8969249,4.100923 3.713229,0 7.27354,-1.472153 9.89692,-4.100923 2.629842,-2.622307 4.10308,-6.181538 4.10308,-9.892614 0,-3.565692 -1.363389,-6.9978454 -3.804771,-9.5953839 C 23.72508,3.7275235 20.378,2.1638314 16.81662,1.9506006 l -0.23154,-0.014 v -0.010769 h -0.17446 l -0.20246,-0.011848 -0.001,0.013997 c -0.469539,0.024771 -0.838921,0.2875384 -0.838921,0.6063078 v 0 13.3861536 c 0,0.670923 0.544921,1.216923 1.216921,1.216923 h 6.696308 v 0 c 0.336,0 0.60846,-0.273539 0.60846,-0.608462 v 0 c 0,-0.336 -0.27246,-0.608461 -0.60846,-0.608461 v 0 h -6.087847 c -0.336,0 -0.608461,-0.273539 -0.608461,-0.608462 z"
       id="path38" />
    <path
       style="color:#31363b;fill:none;fill-opacity:1;stroke:url(#linearGradient865);stroke-width:1.73754;stroke-linecap:round;stroke-miterlimit:4;stroke-dasharray:none;stroke-opacity:1;stop-color:#31363b"
       class="ColorScheme-Text"
       sodipodi:type="arc"
       sodipodi:cx="16.003139"
       sodipodi:cy="-16.001244"
       sodipodi:rx="12.134223"
       sodipodi:ry="12.134223"
       sodipodi:start="3.9048855"
       sodipodi:end="3.4273303"
       sodipodi:open="true"
       sodipodi:arc-type="arc"
       transform="rotate(90)"
       id="path47"
       d="M 7.235392,-24.389686 A 12.134223,12.134223 0 0 1 23.287584,-25.705688 12.134223,12.134223 0 0 1 26.50612,-9.9245039 12.134223,12.134223 0 0 1 11.220618,-4.8492548 12.134223,12.134223 0 0 1 4.3609108,-19.42146" />
    <path
       d="M 22.874027,8.7747229 H 20.283 V 4.4509999 L 19.644044,4.9527378 19.158,5.151 19.15778,8.7930295 H 12.933524 V 7.9509243 c 0,-0.2745996 -0.237986,-0.5125858 -0.512586,-0.5125858 -0.274599,0 -0.512586,0.2379862 -0.512586,0.5125858 V 8.7930295 H 9.2172769 C 8.1737986,8.7930295 7.35,9.6351348 7.35,10.660306 v 10.910755 c 0,1.043479 0.8421053,1.867277 1.8672769,1.867277 H 22.855721 c 1.043478,0 1.867277,-0.842105 1.867277,-1.867277 V 10.660306 C 24.741304,9.6168282 23.899199,8.7747229 22.874027,8.7747229 Z M 9.2172769,9.7998945 H 11.908352 V 10.642 c 0,0.274599 0.237987,0.512586 0.512586,0.512586 0.2746,0 0.512586,-0.237987 0.512586,-0.512586 V 9.7998945 H 19.15778 V 10.642 c 0,0.274599 0.237986,0.512586 0.512586,0.512586 0.2746,0 0.512586,-0.237987 0.512586,-0.512586 V 9.7998945 h 2.691075 c 0.475973,0 0.860412,0.3844395 0.860412,0.8604115 v 1.922197 H 8.3751716 v -1.922197 c 0,-0.475972 0.3844394,-0.8604115 0.8421053,-0.8604115 z M 22.874027,22.413167 H 9.2172769 c -0.4759726,0 -0.8604119,-0.38444 -0.8604119,-0.860412 v -7.94508 h 15.340961 v 7.963386 c 0.01831,0.457666 -0.366133,0.842106 -0.823799,0.842106 z"
       id="path2-3"
       sodipodi:nodetypes="sccccccssscsssssscsscsssccssscssccssssscccs"
       style="fill:url(#linearGradient897);fill-opacity:1;stroke-width:0.183066" />
    <path
       d="m 16.744691,15.859391 h -1.336384 c -0.2746,0 -0.512586,0.237986 -0.512586,0.512586 0,0.274599 0.237986,0.512586 0.512586,0.512586 h 1.336384 c 0.2746,0 0.512586,-0.237987 0.512586,-0.512586 0,-0.2746 -0.21968,-0.512586 -0.512586,-0.512586 z"
       id="path4"
       style="fill:url(#linearGradient900);fill-opacity:1;stroke-width:0.183066" />
    <path
       d="M 12.460938,15.859391 H 11.14286 c -0.274599,0 -0.512585,0.237986 -0.512585,0.512586 0,0.274599 0.237986,0.512586 0.512585,0.512586 h 1.336385 c 0.274599,0 0.512586,-0.237987 0.512586,-0.512586 -0.01831,-0.2746 -0.237987,-0.512586 -0.530893,-0.512586 z"
       id="path6"
       style="fill:url(#linearGradient902);fill-opacity:1;stroke-width:0.183066" />
    <path
       d="m 21.028444,15.859391 h -1.336385 c -0.274599,0 -0.512585,0.237986 -0.512585,0.512586 0,0.274599 0.237986,0.512586 0.512585,0.512586 h 1.336385 c 0.274599,0 0.512586,-0.237987 0.512586,-0.512586 0,-0.2746 -0.21968,-0.512586 -0.512586,-0.512586 z"
       id="path8"
       style="fill:url(#linearGradient904);fill-opacity:1;stroke-width:0.183066" />
    <path
       d="m 16.744691,19.136279 h -1.336384 c -0.2746,0 -0.512586,0.237986 -0.512586,0.512586 0,0.274599 0.237986,0.512585 0.512586,0.512585 h 1.336384 c 0.2746,0 0.512586,-0.237986 0.512586,-0.512585 0,-0.2746 -0.21968,-0.512586 -0.512586,-0.512586 z"
       id="path10"
       style="fill:url(#linearGradient906);fill-opacity:1;stroke-width:0.183066" />
    <path
       d="M 12.460938,19.136279 H 11.14286 c -0.274599,0 -0.512585,0.237986 -0.512585,0.512586 0,0.274599 0.237986,0.512585 0.512585,0.512585 h 1.336385 c 0.274599,0 0.512586,-0.237986 0.512586,-0.512585 0,-0.2746 -0.237987,-0.512586 -0.530893,-0.512586 z"
       id="path12"
       style="fill:url(#linearGradient908);fill-opacity:1;stroke-width:0.183066" />
    <path
       d="m 21.028444,19.136279 h -1.336385 c -0.274599,0 -0.512585,0.237986 -0.512585,0.512586 0,0.274599 0.237986,0.512585 0.512585,0.512585 h 1.336385 c 0.274599,0 0.512586,-0.237986 0.512586,-0.512585 0,-0.2746 -0.21968,-0.512586 -0.512586,-0.512586 z"
       id="path14"
       style="fill:url(#linearGradient910);fill-opacity:1;stroke-width:0.183066" />
  </g>
</svg>
