<?xml version="1.0" encoding="UTF-8" standalone="no"?>
<svg
   xmlns:dc="http://purl.org/dc/elements/1.1/"
   xmlns:cc="http://creativecommons.org/ns#"
   xmlns:rdf="http://www.w3.org/1999/02/22-rdf-syntax-ns#"
   xmlns:svg="http://www.w3.org/2000/svg"
   xmlns="http://www.w3.org/2000/svg"
   xmlns:sodipodi="http://sodipodi.sourceforge.net/DTD/sodipodi-0.dtd"
   xmlns:inkscape="http://www.inkscape.org/namespaces/inkscape"
   width="32"
   height="32"
   version="1.1"
   id="svg22"
   sodipodi:docname="wallet.svg"
   inkscape:version="1.0.2 (e86c870879, 2021-01-15)">
  <g
     id="wallet-closed"
     transform="translate(32.09,-0.141)">
    <rect
       style="opacity:0.00100002"
       width="32"
       height="32"
       x="1.5258789e-07"
       y="-2.6226044e-09"
       id="rect12-5" />
    <path
       d="m 7.1050555,7.059099 c -1.372015,0.252841 -2.459678,1.317672 -2.653726,2.606552 -0.06767,0.435111 -0.06767,11.801458 -0.0045,12.286141 0.185089,1.350792 1.3449,2.448959 2.798261,2.656124 0.514476,0.07035 16.4693725,0.04135 16.7221315,-0.03312 0.72668,-0.215391 1.123737,-0.430998 1.579739,-0.853553 0.410732,-0.385322 0.649815,-0.729298 0.825944,-1.205755 0.1219,-0.33142 0.1219,-0.33142 0.135339,-1.785902 l 0.01344,-1.454482 0.171649,-0.07468 c 0.239319,-0.09525 0.564227,-0.41433 0.690606,-0.663057 0.103744,-0.203052 0.103744,-0.227946 0.117419,-2.11321 0.01816,-2.034629 0,-2.266688 -0.194048,-2.573214 -0.13086,-0.207165 -0.428888,-0.460005 -0.636376,-0.538585 L 26.52192,13.254348 26.50848,11.360642 26.49504,9.462824 26.37314,9.131403 C 26.061673,8.290181 25.334993,7.56911 24.464014,7.233577 23.818679,6.984849 24.247331,6.997405 15.450776,7.001518 8.9691285,7.005218 7.3443545,7.013638 7.1050355,7.059098 Z M 23.786633,7.929321 c 0.66349,0.161705 1.254831,0.609155 1.561584,1.189302 0.162454,0.310856 0.216684,0.489013 0.149014,0.489013 -0.01367,0 -0.117419,-0.07035 -0.225643,-0.161489 -0.230124,-0.186383 -0.68141,-0.410216 -1.101338,-0.55114 l -0.293313,-0.09525 -8.133064,-0.01234 -8.1330645,-0.0082 -0.149015,0.120142 c -0.198528,0.161489 -0.207488,0.406104 -0.02264,0.571922 l 0.1219,0.11603 8.0248405,0.02078 8.020125,0.02078 0.293312,0.09113 c 0.7446,0.232059 1.349617,0.791425 1.5887,1.458595 0.08111,0.232059 0.09926,0.40199 0.117419,1.131287 l 0.01816,0.857883 -1.954397,0.01234 c -2.225074,0.02078 -2.310899,0.02901 -3.032864,0.372983 -0.518956,0.244398 -1.110297,0.787312 -1.376495,1.263769 -0.329623,0.580148 -0.456002,1.197529 -0.370178,1.806684 0.149015,1.106393 0.925209,2.055411 2.026547,2.477966 0.586625,0.223833 0.821464,0.244398 2.84801,0.244398 h 1.850418 v 1.147307 c 0,0.63405 -0.02264,1.272212 -0.04503,1.421362 -0.144534,0.837101 -0.884654,1.586964 -1.782748,1.802571 -0.234603,0.0539 -1.236676,0.06213 -8.340788,0.06213 H 7.3759645 l -0.343058,-0.103709 c -0.433367,-0.136811 -0.7446,-0.319081 -1.042628,-0.621494 -0.284353,-0.281848 -0.478402,-0.621494 -0.573186,-0.982138 -0.09926,-0.397877 -0.09926,-12.107984 0,-12.501749 0.198528,-0.766531 0.907289,-1.429588 1.751153,-1.640865 0.198528,-0.04546 1.51655,-0.05801 8.2910385,-0.05801 7.099632,-0.0041 8.092746,0.0041 8.327349,0.05801 z m 2.504948,6.174243 c 0.275393,0.132698 0.275393,0.120142 0.261718,2.221013 l -0.01344,1.910374 -0.149014,0.120142 -0.144534,0.120143 H 24.030195 21.81856 l -0.343062,-0.103691 c -0.825945,-0.256953 -1.421766,-0.853553 -1.620294,-1.624413 -0.1219,-0.468231 -0.03159,-1.081499 0.221163,-1.533278 0.306753,-0.542914 0.992878,-1.002703 1.679004,-1.131288 0.09926,-0.01645 1.132932,-0.03312 2.292744,-0.03723 1.805618,-0.0039 2.130526,0.0043 2.243466,0.05823 z"
       id="path4-7-5"
       style="fill:#eff0f1;fill-opacity:1;stroke-width:0.00225921" />
    <path
       d="m 21.746647,15.027471 c -1.223237,0.40199 -1.281947,1.943494 -0.09478,2.43229 0.234604,0.09525 0.315948,0.111917 0.618221,0.09525 0.406252,-0.01645 0.67693,-0.124255 0.947844,-0.36887 0.266197,-0.248727 0.383617,-0.497238 0.401772,-0.870221 0.01816,-0.277735 0,-0.352202 -0.103744,-0.567809 -0.302508,-0.621061 -1.087898,-0.944255 -1.769308,-0.720638 z m 0.767234,0.878447 c 0.06319,0.04568 0.139819,0.14915 0.166934,0.227946 0.04503,0.124256 0.04056,0.169931 -0.03159,0.302413 -0.112939,0.211277 -0.360982,0.323194 -0.577666,0.256953 -0.297792,-0.09113 -0.428887,-0.401774 -0.275393,-0.658727 0.130859,-0.211278 0.505517,-0.281848 0.71772,-0.128585 z"
       id="path6-5-6"
       style="fill:#eff0f1;fill-opacity:1;stroke-width:0.00225921" />
  </g>
  <metadata
     id="metadata28">
    <rdf:RDF>
      <cc:Work
         rdf:about="">
        <dc:format>image/svg+xml</dc:format>
        <dc:type
           rdf:resource="http://purl.org/dc/dcmitype/StillImage" />
        <dc:title></dc:title>
      </cc:Work>
    </rdf:RDF>
  </metadata>
  <defs
     id="defs26" />
  <sodipodi:namedview
     pagecolor="#ffffff"
     bordercolor="#000000"
     borderopacity="1"
     objecttolerance="10"
     gridtolerance="10"
     guidetolerance="10"
     inkscape:pageopacity="0"
     inkscape:pageshadow="2"
     inkscape:window-width="1920"
     inkscape:window-height="1007"
     id="namedview24"
     showgrid="false"
     inkscape:zoom="5.6568543"
     inkscape:cx="49.705188"
     inkscape:cy="11.574647"
     inkscape:window-x="0"
     inkscape:window-y="0"
     inkscape:window-maximized="1"
     inkscape:current-layer="svg22"
     inkscape:document-rotation="0"
     inkscape:lockguides="false"
     inkscape:showpageshadow="false">
    <inkscape:grid
       type="xygrid"
       id="grid930"
       originx="-0.032002"
       originy="-0.19832" />
  </sodipodi:namedview>
  <g
     id="g871"
     transform="translate(9.967998,-22.19832)" />
  <g
     id="wallet-open">
    <rect
       style="opacity:0.00100002"
       width="32"
       height="32"
       x="0"
       y="0"
       id="rect12-5-7" />
    <path
       d="m 7.1050533,8.4683362 c -1.372016,0.252841 -2.459678,1.317672 -2.653727,2.6065518 -0.06767,0.435111 -0.06767,11.801458 -0.0045,12.286141 0.185088,1.350792 1.3449,2.448959 2.79826,2.656124 0.514477,0.07035 16.4693727,0.04135 16.7221307,-0.03312 0.72668,-0.215391 1.123737,-0.430998 1.57974,-0.853553 0.410732,-0.385322 0.649815,-0.729298 0.825944,-1.205755 0.121899,-0.33142 0.121899,-0.33142 0.135339,-1.785902 l 0.01344,-1.454482 0.171649,-0.07468 c 0.239319,-0.09525 0.564227,-0.41433 0.690606,-0.663057 0.103744,-0.203052 0.103744,-0.227946 0.117419,-2.11321 0.01816,-2.034629 0,-2.266688 -0.194048,-2.573214 -0.130859,-0.207165 -0.428888,-0.460005 -0.636376,-0.538585 l -0.149014,-0.05801 -0.01344,-1.893706 -0.01344,-1.897818 -0.1219,-0.331421 C 26.06169,9.6994182 25.33501,8.9783472 24.464031,8.6428142 c -0.645335,-0.248728 -0.216684,-0.236172 -9.013238,-0.232059 -6.4816477,0.0037 -8.1064207,0.01212 -8.3457397,0.057581 z m 16.6815757,0.870222 c 0.663491,0.161705 1.254832,0.609155 1.561585,1.1893028 0.162453,0.310855 0.216683,0.489012 0.149014,0.489012 -0.01368,0 -0.11742,-0.07035 -0.225644,-0.161489 -0.230123,-0.186383 -0.68141,-0.410216 -1.101337,-0.55114 l -0.293313,-0.09525 -8.133064,-0.01234 -8.1330647,-0.0082 -0.149014,0.120142 c -0.198528,0.161489 -0.207488,0.406104 -0.02264,0.571922 l 0.121899,0.11603 8.0248407,0.02078 8.020124,0.02078 0.293313,0.09114 c 0.7446,0.232059 1.349616,0.791425 1.588699,1.458595 0.08111,0.232059 0.09926,0.40199 0.11742,1.131287 l 0.01816,0.857883 -1.954397,0.01234 c -2.225075,0.02078 -2.310899,0.02901 -3.032864,0.372983 -0.518956,0.244398 -1.110297,0.787312 -1.376495,1.263769 -0.329623,0.580148 -0.456003,1.197529 -0.370178,1.806684 0.149014,1.106393 0.925209,2.055411 2.026546,2.477966 0.586626,0.223833 0.821465,0.244398 2.848011,0.244398 h 1.850417 v 1.147307 c 0,0.63405 -0.02264,1.272212 -0.04503,1.421362 -0.144534,0.837101 -0.884654,1.586964 -1.782748,1.802571 -0.234603,0.0539 -1.236676,0.06213 -8.340788,0.06213 H 7.3759613 l -0.343062,-0.10369 c -0.433368,-0.136811 -0.7446,-0.319081 -1.042628,-0.621494 -0.284354,-0.281848 -0.478402,-0.621494 -0.573186,-0.982138 -0.09926,-0.397877 -0.09926,-12.107984 0,-12.501749 0.198528,-0.766531 0.907289,-1.4295868 1.751152,-1.6408648 0.198529,-0.04546 1.51655,-0.05802 8.2910387,-0.05802 7.099632,-0.0041 8.092745,0.0041 8.327348,0.05802 z m 2.504948,6.1742428 c 0.275394,0.132698 0.275394,0.120142 0.261718,2.221013 l -0.01344,1.910374 -0.149014,0.120142 -0.144534,0.120143 H 24.030192 21.818557 L 21.475494,19.780782 C 20.64955,19.523829 20.053729,18.927229 19.8552,18.156369 c -0.121899,-0.468231 -0.03159,-1.081499 0.221164,-1.533278 0.306752,-0.542914 0.992878,-1.002703 1.679003,-1.131288 0.09927,-0.01645 1.132933,-0.03312 2.292744,-0.03723 1.805619,-0.0039 2.130526,0.0043 2.243466,0.05823 z"
       id="path4"
       style="fill:#eff0f1;fill-opacity:1;stroke-width:0.00225921" />
    <path
       d="m 21.746644,16.436708 c -1.223237,0.40199 -1.281947,1.943494 -0.09478,2.43229 0.234603,0.09525 0.315948,0.111917 0.618221,0.09525 0.406252,-0.01645 0.67693,-0.124255 0.947843,-0.36887 0.266198,-0.248727 0.383617,-0.497238 0.401773,-0.870221 0.01816,-0.277735 0,-0.352202 -0.103744,-0.567809 -0.302509,-0.621061 -1.087899,-0.944255 -1.769308,-0.720638 z m 0.767234,0.878447 c 0.06319,0.04568 0.139819,0.14915 0.166934,0.227946 0.04503,0.124256 0.04055,0.169931 -0.0316,0.302413 -0.11294,0.211277 -0.360982,0.323194 -0.577666,0.256953 -0.297793,-0.09113 -0.428887,-0.401774 -0.275393,-0.658727 0.130859,-0.211278 0.505516,-0.281848 0.71772,-0.128585 z"
       id="path6"
       style="fill:#eff0f1;fill-opacity:1;stroke-width:0.00225921" />
    <path
       d="M 23.224162,10.188455 H 12.765904 l 8.15322,-3.9801248 z m -10.458258,0 H 7.6108023 l 8.8688177,-4.3294548 1.108351,1.999982 z"
       id="path6-3"
       sodipodi:nodetypes="ccccccccc"
       style="fill:#eff0f1;fill-opacity:1;stroke-width:0.225921" />
  </g>
  <g
     id="22-22-wallet-open"
     transform="translate(32.016998,-22.02932)">
    <rect
       style="opacity:0.00100002;stroke-width:0.6875"
       width="22"
       height="22"
       x="-32.071999"
       y="-0.12958908"
       id="rect12-7" />
    <path
       d="m -27.198717,5.6773079 c -0.950088,0.1750856 -1.703259,0.9124532 -1.837639,1.8049699 -0.04689,0.3013027 -0.04689,8.1721992 -0.0037,8.5078312 0.128169,0.935387 0.93131,1.695839 1.937725,1.839297 0.356258,0.04875 11.404608,0.02857 11.579635,-0.023 0.503209,-0.149154 0.778157,-0.298454 1.093932,-0.591064 0.284419,-0.266826 0.449981,-0.505021 0.571941,-0.834956 0.08433,-0.229496 0.08433,-0.229496 0.0937,-1.236688 l 0.009,-1.007192 0.118871,-0.05177 c 0.165723,-0.06599 0.390714,-0.286914 0.478229,-0.459148 0.07178,-0.140611 0.07178,-0.157848 0.08127,-1.463342 0.01251,-1.408932 0,-1.569627 -0.134387,-1.781885 -0.09056,-0.14345 -0.296974,-0.318535 -0.440652,-0.372951 l -0.103168,-0.0402 -0.009,-1.311341 -0.009,-1.3141905 -0.08438,-0.229496 C -14.07174,6.5298 -14.574949,6.030477 -15.178079,5.7981292 c -0.446879,-0.1722378 -0.150046,-0.1635427 -6.241433,-0.1606945 -4.488372,0.00247 -5.613486,0.00843 -5.779205,0.039873 z m 11.551557,0.6026059 c 0.459445,0.1119765 0.868934,0.4218231 1.081355,0.8235583 0.112494,0.2152625 0.15005,0.3386322 0.103191,0.3386322 -0.0093,0 -0.08127,-0.048735 -0.156255,-0.1118282 -0.159357,-0.129062 -0.47186,-0.2840666 -0.762649,-0.3816505 l -0.203111,-0.065977 -5.631934,-0.00861 -5.631942,-0.00572 -0.103183,0.083194 c -0.137478,0.1118319 -0.143679,0.2812202 -0.01562,0.3960422 l 0.08436,0.08034 5.556994,0.014384 5.553726,0.014384 0.203114,0.06315 c 0.515613,0.1606998 0.93457,0.548044 1.100129,1.010039 0.05622,0.160697 0.0687,0.278371 0.08128,0.783387 l 0.01251,0.594064 -1.35337,0.0081 c -1.540808,0.01438 -1.600237,0.02005 -2.100179,0.2582812 -0.359365,0.169241 -0.76885,0.545198 -0.953185,0.87513 -0.228257,0.401737 -0.31577,0.829257 -0.256338,1.251082 0.103187,0.766146 0.640682,1.423318 1.403327,1.715925 0.406224,0.154997 0.568846,0.169237 1.972175,0.169237 h 1.281365 v 0.794439 c 0,0.439063 -0.01561,0.880975 -0.03117,0.984253 -0.100086,0.579676 -0.612603,1.098933 -1.234504,1.248236 -0.162462,0.03738 -0.856367,0.04296 -5.775782,0.04296 h -5.588318 l -0.237563,-0.07163 c -0.300083,-0.09476 -0.515606,-0.220959 -0.721986,-0.43037 -0.196905,-0.195177 -0.331272,-0.430375 -0.396914,-0.680109 -0.0687,-0.275521 -0.0687,-8.3844585 0,-8.657133 0.137481,-0.5308031 0.628273,-0.989953 1.212628,-1.1362568 0.137476,-0.031477 1.050173,-0.040182 5.74133,-0.040182 4.916307,-0.00278 5.604015,0.00278 5.766474,0.040182 z m 1.734609,4.2755042 c 0.190701,0.0919 0.190701,0.08319 0.181232,1.53799 l -0.009,1.322883 -0.103191,0.08318 -0.100083,0.08319 h -1.534617 -1.5315 l -0.23756,-0.07173 c -0.571946,-0.177937 -0.984537,-0.591065 -1.122017,-1.124864 -0.08437,-0.324239 -0.02181,-0.748909 0.153153,-1.061756 0.212419,-0.375954 0.687543,-0.694344 1.162667,-0.783388 0.06871,-0.01145 0.784528,-0.023 1.587662,-0.02584 1.250347,-0.0031 1.475338,0.0035 1.553545,0.04037 z"
       id="path4-2"
       style="fill:#eff0f1;fill-opacity:1;stroke-width:0.00156442" />
    <path
       d="m -17.059799,11.195196 c -0.84706,0.278368 -0.887716,1.345823 -0.06564,1.6843 0.162455,0.06601 0.218784,0.07756 0.428099,0.06601 0.281323,-0.01145 0.468759,-0.08599 0.656357,-0.255432 0.184337,-0.172235 0.265648,-0.344323 0.278218,-0.602608 0.01252,-0.192325 0,-0.243888 -0.07178,-0.39319 -0.209481,-0.430074 -0.753344,-0.653875 -1.225202,-0.499029 z m 0.53129,0.608302 c 0.04383,0.03158 0.09683,0.103282 0.115596,0.157847 0.03121,0.086 0.02799,0.117674 -0.02182,0.209414 -0.07817,0.146303 -0.249973,0.223803 -0.400021,0.177933 -0.20621,-0.06316 -0.296991,-0.278219 -0.1907,-0.456154 0.09059,-0.146299 0.350054,-0.195168 0.497002,-0.08901 z"
       id="path6-9"
       style="fill:#eff0f1;fill-opacity:1;stroke-width:0.00156442" />
    <path
       d="m -16.036657,6.8684423 h -7.24207 l 5.645894,-2.7561293 z m -7.24207,0 h -3.56978 l 6.141431,-2.9980315 0.767508,1.3849352 z"
       id="path6-3-1"
       sodipodi:nodetypes="ccccccccc"
       style="fill:#eff0f1;fill-opacity:1;stroke-width:0.156442" />
  </g>
  <g
     id="22-22-wallet-closed"
     transform="translate(32.016998,-22.02932)">
    <rect
       style="opacity:0.00100002;stroke-width:0.6875"
       width="22"
       height="22"
       x="0"
       y="0"
       id="rect12-7-6" />
    <path
       d="m 15.012202,10.558813 c -0.84706,0.278368 -0.887716,1.345823 -0.06564,1.6843 0.162455,0.06601 0.218784,0.07756 0.428099,0.06601 0.281323,-0.01145 0.468759,-0.08599 0.656357,-0.255432 0.184337,-0.172235 0.265648,-0.344323 0.278218,-0.602608 0.01252,-0.192325 0,-0.243888 -0.07178,-0.39319 -0.209481,-0.430074 -0.753344,-0.653875 -1.225202,-0.499029 z m 0.53129,0.608302 c 0.04383,0.03158 0.09683,0.103282 0.115596,0.157847 0.03121,0.086 0.02799,0.117674 -0.02182,0.209414 -0.07817,0.146303 -0.249973,0.223803 -0.400021,0.177933 -0.20621,-0.06316 -0.296991,-0.278219 -0.1907,-0.456154 0.09059,-0.146299 0.350054,-0.195168 0.497002,-0.08901 z"
       id="path6-9-7-9-3"
       style="fill:#eff0f1;fill-opacity:1;stroke-width:0.00156442" />
    <path
       d="m 4.8732832,5.0409242 c -0.950088,0.175086 -1.703259,0.912453 -1.8376389,1.80497 -0.04689,0.301302 -0.04689,8.1721998 -0.0037,8.5078318 0.1281689,0.935387 0.9313099,1.695839 1.9377249,1.839297 0.356258,0.04875 11.4046088,0.02857 11.5796358,-0.023 0.503209,-0.149154 0.778157,-0.298454 1.093932,-0.591064 0.284419,-0.266826 0.449981,-0.505021 0.571941,-0.834956 0.08433,-0.229496 0.08433,-0.229496 0.0937,-1.236688 l 0.009,-1.007192 0.118871,-0.05177 c 0.165723,-0.06599 0.390714,-0.286914 0.478229,-0.459148 0.07178,-0.140611 0.07178,-0.157848 0.08127,-1.463342 0.01251,-1.408932 0,-1.569627 -0.134387,-1.7818855 -0.09056,-0.1434503 -0.296974,-0.3185353 -0.440652,-0.3729513 l -0.103168,-0.0402 -0.009,-1.311341 -0.009,-1.314191 -0.08438,-0.229496 c -0.2154,-0.582382 -0.718609,-1.081705 -1.321739,-1.314053 -0.446879,-0.172238 -0.150046,-0.163542 -6.241433,-0.160694 -4.4883728,0.0025 -5.6134868,0.0084 -5.7792058,0.03987 z m 11.5515578,0.602606 c 0.459445,0.111976 0.868934,0.421823 1.081355,0.823558 0.112494,0.215263 0.15005,0.338632 0.103191,0.338632 -0.0093,0 -0.08127,-0.04874 -0.156255,-0.111828 -0.159357,-0.129062 -0.47186,-0.284066 -0.762649,-0.38165 l -0.203111,-0.06598 -5.631934,-0.0086 -5.6319428,-0.0057 -0.103183,0.08319 c -0.137478,0.111832 -0.143679,0.28122 -0.01562,0.396042 l 0.08436,0.08034 5.5569948,0.01438 5.553726,0.01438 0.203114,0.06315 c 0.515613,0.1607 0.93457,0.548044 1.100129,1.010039 0.05622,0.160697 0.0687,0.278371 0.08128,0.783387 l 0.01251,0.594064 -1.35337,0.0081 c -1.540808,0.01438 -1.600237,0.02005 -2.100179,0.258281 -0.359365,0.169241 -0.76885,0.5451988 -0.953185,0.8751308 -0.228257,0.401737 -0.31577,0.829257 -0.256338,1.251082 0.103187,0.766146 0.640682,1.423318 1.403327,1.715925 0.406224,0.154997 0.568846,0.169237 1.972175,0.169237 h 1.281365 v 0.794439 c 0,0.439063 -0.01561,0.880975 -0.03117,0.984253 -0.100086,0.579676 -0.612603,1.098933 -1.234504,1.248236 -0.162462,0.03738 -0.856367,0.04296 -5.775782,0.04296 H 5.0608262 l -0.237563,-0.07163 c -0.300083,-0.09476 -0.515606,-0.220959 -0.721986,-0.43037 -0.196905,-0.195177 -0.331272,-0.430375 -0.396914,-0.680109 -0.0687,-0.275521 -0.0687,-8.3844598 0,-8.6571338 0.137481,-0.530803 0.628273,-0.989953 1.212628,-1.136257 0.137476,-0.03148 1.050173,-0.04018 5.7413308,-0.04018 4.916307,-0.0028 5.604015,0.0028 5.766474,0.04018 z M 18.15945,9.919035 c 0.190701,0.0919 0.190701,0.08319 0.181232,1.53799 l -0.009,1.322883 -0.103191,0.08318 -0.100083,0.08319 h -1.534617 -1.5315 l -0.23756,-0.07173 c -0.571946,-0.177937 -0.984537,-0.591065 -1.122017,-1.124864 -0.08437,-0.324239 -0.02181,-0.748909 0.153153,-1.061756 0.212419,-0.375954 0.687543,-0.694344 1.162667,-0.783388 0.06871,-0.01145 0.784528,-0.023 1.587662,-0.02584 1.250347,-0.0031 1.475338,0.0035 1.553545,0.04037 z"
       id="path4-2-2-3-6"
       style="fill:#eff0f1;fill-opacity:1;stroke-width:0.00156442" />
  </g>
</svg>
