<?xml version="1.0" encoding="UTF-8" standalone="no"?>
<svg
   xmlns:dc="http://purl.org/dc/elements/1.1/"
   xmlns:cc="http://creativecommons.org/ns#"
   xmlns:rdf="http://www.w3.org/1999/02/22-rdf-syntax-ns#"
   xmlns:svg="http://www.w3.org/2000/svg"
   xmlns="http://www.w3.org/2000/svg"
   xmlns:sodipodi="http://sodipodi.sourceforge.net/DTD/sodipodi-0.dtd"
   xmlns:inkscape="http://www.inkscape.org/namespaces/inkscape"
   viewBox="0 0 22 22"
   version="1.1"
   id="svg6"
   sodipodi:docname="redshift-status-on.svg"
   inkscape:version="1.0.2 (e86c870879, 2021-01-15)">
  <metadata
     id="metadata10">
    <rdf:RDF>
      <cc:Work
         rdf:about="">
        <dc:format>image/svg+xml</dc:format>
        <dc:type
           rdf:resource="http://purl.org/dc/dcmitype/StillImage" />
      </cc:Work>
    </rdf:RDF>
  </metadata>
  <sodipodi:namedview
     pagecolor="#ffffff"
     bordercolor="#666666"
     borderopacity="1"
     objecttolerance="10"
     gridtolerance="10"
     guidetolerance="10"
     inkscape:pageopacity="0"
     inkscape:pageshadow="2"
     inkscape:window-width="1920"
     inkscape:window-height="1007"
     id="namedview8"
     showgrid="true"
     inkscape:zoom="14.272727"
     inkscape:cx="29.237488"
     inkscape:cy="15.344281"
     inkscape:window-x="0"
     inkscape:window-y="0"
     inkscape:window-maximized="1"
     inkscape:current-layer="svg6"
     inkscape:document-rotation="0">
    <inkscape:grid
       type="xygrid"
       id="grid933" />
  </sodipodi:namedview>
  <defs
     id="defs3051">
    <style
       type="text/css"
       id="current-color-scheme">
      .ColorScheme-Text {
        color:#eff0f1;
      }
    </style>
  </defs>
  <path
     d="m 9.507836,16.630994 c -0.100688,0 -0.198991,-0.0098 -0.296125,-0.02371 v 1.208209 h 2.961278 v 0.592248 H 9.211711 v 0.296126 c 0,0.163168 0.13296,0.296131 0.296125,0.296131 h 2.961282 c 0.163171,0 0.296134,-0.132963 0.296134,-0.296131 v -2.096581 c -0.09718,0.01391 -0.195452,0.02371 -0.296134,0.02371 z"
     id="path14"
     style="fill:#000000;fill-opacity:1;stroke-width:0.29613" />
  <path
     d="M 16.012603,6.2100353 C 15.113009,4.2563161 13.160101,3.0033908 11.009204,3 7.961744,3.00476 5.495208,5.4791219 5.500007,8.5265509 c 0.0031,2.1508831 1.256327,4.1037711 3.210066,5.0033521 v 1.425444 c 0,0.25396 0.205863,0.459814 0.459833,0.459814 h 3.678601 c 0.253968,0 0.459832,-0.205854 0.459832,-0.459814 v -1.425444 c 2.768093,-1.274566 3.978847,-4.5518084 2.704264,-7.3198677 z m -0.721981,3.9765377 c -0.4673,1.197605 -1.414625,2.144924 -2.612243,2.612214 h 0.0046 c -0.176857,0.06826 -0.293737,0.238048 -0.294287,0.427635 v 1.269098 h -2.7589 V 13.226422 C 9.629192,13.036835 9.512313,12.86704 9.335457,12.798787 6.969593,11.875665 5.800055,9.2094745 6.723188,6.8436694 7.646313,4.4778628 10.312532,3.3083379 12.678364,4.2314563 c 2.365826,0.9231186 3.535374,3.5892989 2.61224,5.9551167 z"
     id="path2"
     style="fill:#000000;fill-opacity:1;stroke-width:0.0287384" />
  <circle
     cx="11.017847"
     cy="8.6474028"
     r="1.50607"
     id="circle2"
     style="fill:#0098e5;fill-opacity:1;stroke-width:0.122443" />
  <path
     d="m 10.417867,7.0066429 0.195914,-0.073465 -0.244898,-0.6856904 c -0.02445,-0.06122 -0.08574,-0.085711 -0.134684,-0.06122 -0.04901,0.024495 -0.08575,0.085711 -0.06123,0.1346894 z"
     id="path4-3"
     style="fill:#0098e5;fill-opacity:1;stroke-width:0.122443" />
  <path
     d="m 11.066825,5.5495503 c 0,-0.061222 -0.04902,-0.1102 -0.110198,-0.1102 -0.06119,0 -0.09796,0.048981 -0.09796,0.1102 V 6.908687 h 0.220398 V 5.5495503 Z"
     id="path6"
     style="fill:#0098e5;fill-opacity:1;stroke-width:0.122443" />
  <path
     d="m 10.956632,11.745255 c 0,0.06122 0.049,0.110202 0.110198,0.110202 0.06119,0 0.110212,-0.04897 0.110212,-0.110202 v -1.359136 h -0.220394 z"
     id="path8"
     style="fill:#0098e5;fill-opacity:1;stroke-width:0.122443" />
  <path
     d="m 11.617825,10.263673 -0.195908,0.07346 0.257132,0.685691 c 0.02447,0.06123 0.08576,0.08571 0.134693,0.06123 0.06123,-0.02449 0.08576,-0.08571 0.06123,-0.13469 z"
     id="path10"
     style="fill:#0098e5;fill-opacity:1;stroke-width:0.122443" />
  <path
     d="M 9.670955,7.5331561 9.805646,7.3739768 9.254642,6.8964426 c -0.04901,-0.036733 -0.110212,-0.036733 -0.146934,0.012241 -0.03669,0.048978 -0.03669,0.1102003 0.01226,0.1469341 z"
     id="path12"
     style="fill:#0098e5;fill-opacity:1;stroke-width:0.122443" />
  <path
     d="M 10.0138,7.2270436 10.197465,7.1168421 9.511777,5.9291282 c -0.02446,-0.048982 -0.09793,-0.073467 -0.146931,-0.036731 -0.04901,0.024493 -0.07347,0.097956 -0.03669,0.146934 z"
     id="path14-3"
     style="fill:#0098e5;fill-opacity:1;stroke-width:0.122443" />
  <path
     d="m 12.021899,10.067761 -0.183665,0.110202 0.685681,1.175469 c 0.02446,0.04896 0.09792,0.07346 0.146941,0.03673 0.04901,-0.0245 0.07347,-0.09795 0.03671,-0.146935 z"
     id="path16"
     style="fill:#0098e5;fill-opacity:1;stroke-width:0.122443" />
  <path
     d="m 12.340245,9.749405 -0.134681,0.159179 0.56324,0.477535 c 0.04902,0.03674 0.110215,0.03674 0.146933,-0.01224 0.03669,-0.04898 0.03669,-0.110203 -0.01227,-0.146935 z"
     id="path18"
     style="fill:#0098e5;fill-opacity:1;stroke-width:0.122443" />
  <path
     d="m 8.605682,8.0106904 c -0.06119,-0.012246 -0.110202,0.024493 -0.122439,0.085712 -0.01226,0.061225 0.02445,0.1102025 0.08575,0.1224448 l 0.722434,0.1224447 0.03669,-0.2081563 z"
     id="path20"
     style="fill:#0098e5;fill-opacity:1;stroke-width:0.122443" />
  <path
     d="M 8.250595,7.2392879 9.426067,7.9249787 9.536268,7.7413121 8.360794,7.0556208 c -0.049,-0.024492 -0.12244,-0.01224 -0.146927,0.036735 -0.03669,0.048978 -0.01226,0.1102014 0.03669,0.1469338 z"
     id="path22"
     style="fill:#0098e5;fill-opacity:1;stroke-width:0.122443" />
  <path
     d="m 13.785103,10.055517 -1.175477,-0.6856904 -0.110201,0.1836673 1.175473,0.6856901 c 0.049,0.02449 0.12244,0.01224 0.14693,-0.03673 0.02445,-0.04898 0.01226,-0.122446 -0.0367,-0.146934 z"
     id="path24"
     style="fill:#0098e5;fill-opacity:1;stroke-width:0.122443" />
  <path
     d="m 13.405517,9.2718704 c 0.06119,0.01224 0.110214,-0.024492 0.12245,-0.085713 0.01226,-0.061227 -0.02445,-0.1102026 -0.08576,-0.1224456 l -0.722403,-0.122443 -0.0367,0.2081572 z"
     id="path26"
     style="fill:#0098e5;fill-opacity:1;stroke-width:0.122443" />
  <path
     d="m 8.544465,9.4310488 c 0.02443,0.061226 0.08576,0.085714 0.134689,0.061226 L 9.364846,9.235141 9.291376,9.0392282 8.60569,9.2963619 c -0.04903,0.024493 -0.07346,0.085716 -0.0612,0.1346887 z"
     id="path28"
     style="fill:#0098e5;fill-opacity:1;stroke-width:0.122443" />
  <path
     d="m 9.279122,8.5861798 h -1.35913 c -0.06119,0 -0.110205,0.048977 -0.110205,0.1102024 0,0.061226 0.04902,0.1102015 0.110205,0.1102015 h 1.35913 z"
     id="path30"
     style="fill:#0098e5;fill-opacity:1;stroke-width:0.122443" />
  <path
     d="m 14.115702,8.4882235 h -1.359138 v 0.2204022 h 1.359138 c 0.06119,0 0.110205,-0.048977 0.110205,-0.1102029 0,-0.061225 -0.04902,-0.1102017 -0.110205,-0.1101993 z"
     id="path32"
     style="fill:#0098e5;fill-opacity:1;stroke-width:0.122443" />
  <path
     d="m 13.466745,7.863756 c -0.02447,-0.061228 -0.08576,-0.085717 -0.13469,-0.061228 l -0.685691,0.2571336 0.07347,0.1959117 0.685684,-0.2571337 c 0.04902,-0.024494 0.07347,-0.085716 0.06119,-0.1346894 z"
     id="path34"
     style="fill:#0098e5;fill-opacity:1;stroke-width:0.122443" />
  <path
     d="M 9.8913512,9.982051 9.732181,9.847361 9.254642,10.410607 c -0.03669,0.04898 -0.03669,0.1102 0.01226,0.146934 0.04902,0.03673 0.110212,0.03673 0.146937,-0.01225 z"
     id="path36"
     style="fill:#0098e5;fill-opacity:1;stroke-width:0.122443" />
  <path
     d="M 9.487282,9.4677826 8.311823,10.153473 c -0.04902,0.02449 -0.07347,0.09795 -0.0367,0.146934 0.0367,0.04898 0.09792,0.07346 0.146929,0.03673 L 9.597506,9.6514494 Z"
     id="path38"
     style="fill:#0098e5;fill-opacity:1;stroke-width:0.122443" />
  <path
     d="m 12.548405,7.8270224 1.175469,-0.6856897 c 0.04902,-0.024493 0.07347,-0.097953 0.0367,-0.1469348 -0.0367,-0.048978 -0.09792,-0.073462 -0.146931,-0.036733 l -1.175472,0.6856915 z"
     id="path40"
     style="fill:#0098e5;fill-opacity:1;stroke-width:0.122443" />
  <path
     d="m 12.11985,7.3127546 0.159186,0.1346898 0.477528,-0.5632464 c 0.03669,-0.048977 0.03669,-0.1102003 -0.01225,-0.1469334 -0.04902,-0.036733 -0.110205,-0.036733 -0.146932,0.012243 z"
     id="path42"
     style="fill:#0098e5;fill-opacity:1;stroke-width:0.122443" />
  <path
     d="m 10.381142,11.04732 c -0.01226,0.06123 0.02445,0.110202 0.08576,0.122445 0.06119,0.01224 0.110214,-0.02449 0.122446,-0.08571 l 0.122423,-0.722424 -0.208157,-0.03673 z"
     id="path44"
     style="fill:#0098e5;fill-opacity:1;stroke-width:0.122443" />
  <path
     d="m 9.413822,11.304451 c -0.02446,0.04897 -0.01228,0.122448 0.03669,0.146936 0.049,0.0245 0.122453,0.01222 0.146938,-0.03672 l 0.685712,-1.175474 -0.183663,-0.110202 z"
     id="path46"
     style="fill:#0098e5;fill-opacity:1;stroke-width:0.122443" />
  <path
     d="m 12.609626,5.9903515 c 0.02446,-0.048981 0.01226,-0.1224447 -0.03669,-0.1469334 -0.04901,-0.024493 -0.122445,-0.01224 -0.146928,0.036729 l -0.685689,1.1754698 0.183663,0.1102015 z"
     id="path48"
     style="fill:#0098e5;fill-opacity:1;stroke-width:0.122443" />
  <path
     d="m 11.642313,6.2597298 c 0.01227,-0.061221 -0.02446,-0.1102003 -0.0857,-0.1224449 -0.06123,-0.012243 -0.110213,0.024494 -0.122448,0.085711 l -0.122446,0.7224244 0.208155,0.036732 z"
     id="path50"
     style="fill:#0098e5;fill-opacity:1;stroke-width:0.122443" />
</svg>
