<?xml version="1.0" encoding="UTF-8" standalone="no"?>
<svg
   xmlns:dc="http://purl.org/dc/elements/1.1/"
   xmlns:cc="http://creativecommons.org/ns#"
   xmlns:rdf="http://www.w3.org/1999/02/22-rdf-syntax-ns#"
   xmlns:svg="http://www.w3.org/2000/svg"
   xmlns="http://www.w3.org/2000/svg"
   xmlns:sodipodi="http://sodipodi.sourceforge.net/DTD/sodipodi-0.dtd"
   xmlns:inkscape="http://www.inkscape.org/namespaces/inkscape"
   width="32"
   height="32"
   version="1.1"
   id="svg12"
   sodipodi:docname="akonadi.svg"
   inkscape:version="1.0.2 (e86c870879, 2021-01-15)">
  <g
     id="22-22-akonadi"
     transform="translate(32.000001,10.000001)">
    <path
       style="opacity:0.00100002"
       d="M 0,0 H 22 V 22 H 0 Z"
       id="path2" />
    <path
       d="m 10.241111,11.943341 c 0.63827,0.301734 0.91728,0.301734 1.609607,0 l 7.251074,-3.2593452 c 0.535386,-0.2493802 0.551066,-1.3077859 0,-1.6096 L 11.852463,3.2465963 c -0.572001,-0.3382565 -0.971351,-0.3191955 -1.609607,0 L 2.99003,7.0743958 c -0.551066,0.3558463 -0.570253,1.3078934 0,1.6096 z m 0.80568,-8.0480505 7.402804,3.9829992 -7.402804,3.1215723 -7.406293,-3.1215723 z m 0,14.2267065 -7.406293,-3.414569 c 0.02619,0.01802 -0.653955,-0.292866 -1.138756,-0.568446 0,0.413272 0.104638,1.168412 0.486541,1.374186 l 7.251085,3.259244 c 0.638253,0.303451 0.917294,0.303451 1.609615,0 l 7.249334,-3.259244 c 0.3575,-0.169306 0.488276,-0.950433 0.488276,-1.374186 -0.465602,0.231812 -1.12653,0.564892 -1.142239,0.568446 z m -0.80568,-2.764069 c 0.63827,0.301666 0.91728,0.301666 1.609607,0 l 7.251074,-3.259387 c 0.357506,-0.167453 0.488296,-0.950399 0.488296,-1.374124 -0.465621,0.233612 -1.12655,0.565032 -1.142241,0.570252 L 11.046791,14.707428 3.638758,11.294669 C 3.664958,11.308939 2.984815,11.001755 2.5,10.724417 c 0,0.413346 0.104625,1.170165 0.486543,1.374124 z"
       id="path4-6-5"
       style="fill:#eff0f1;fill-opacity:1;stroke-width:0.0174387"
       inkscape:connector-curvature="0" />
    <path
       d="m 11.03714,6.3333316 c -0.579597,0 -1.0498,0.4702049 -1.0498,1.048164 0,0.5779592 0.470203,1.0481634 1.0498,1.0481634 0.579592,0 1.049799,-0.4702042 1.049799,-1.0481634 0,-0.5779591 -0.471837,-1.048164 -1.049799,-1.048164 z m 0,1.7518376 c -0.388574,0 -0.703675,-0.3151025 -0.703675,-0.7020409 0,-0.3869389 0.315101,-0.7020416 0.703675,-0.7020416 0.388568,0 0.703676,0.3151027 0.703676,0.7020416 0,0.3869384 -0.316732,0.7020409 -0.703676,0.7020409 z m 2.174689,-1.4448985 h -0.208976 c -0.02944,0 -0.05549,-0.017964 -0.06694,-0.044077 -0.01144,-0.026124 -0.0051,-0.057142 0.01634,-0.078367 l 0.148568,-0.1485713 c 0.133876,-0.1338777 0.133876,-0.3542862 0,-0.4881638 l -0.56,-0.5600001 c -0.06695,-0.066943 -0.156731,-0.1012242 -0.244895,-0.1012242 -0.08817,0 -0.177961,0.034289 -0.244901,0.1012242 L 11.902456,5.469663 c -0.01307,0.013056 -0.0327,0.021222 -0.05057,0.021222 -0.0097,0 -0.01799,-0.0016 -0.0278,-0.0049 -0.02616,-0.01143 -0.04404,-0.03755 -0.04404,-0.066943 V 5.2100624 c 0,-0.1893873 -0.155108,-0.3673469 -0.346123,-0.3673469 h -0.79348 c -0.191015,0 -0.346111,0.1779596 -0.346111,0.3673469 v 0.20898 c 0,0.029382 -0.01799,0.05551 -0.04409,0.066944 -0.008,0.0033 -0.018,0.0049 -0.02781,0.0049 -0.01799,0 -0.03757,-0.00658 -0.05057,-0.021222 L 10.023273,5.3210938 C 9.956333,5.2541498 9.866534,5.2198686 9.77837,5.2198686 c -0.08818,0 -0.177958,0.034289 -0.244894,0.1012252 l -0.561635,0.56 c -0.135508,0.1338773 -0.135508,0.3542857 0,0.4881632 l 0.148571,0.1485711 c 0.02126,0.021222 0.02616,0.052245 0.01635,0.078367 -0.01144,0.026122 -0.03754,0.044078 -0.06693,0.044078 H 8.860834 c -0.19102,0 -0.360818,0.1551013 -0.360818,0.3461221 v 0.7918376 c 0,0.1893871 0.169798,0.3461225 0.360818,0.3461225 h 0.20898 c 0.02942,0 0.05549,0.017963 0.06694,0.044079 0.01143,0.026121 0.0051,0.057141 -0.01635,0.078367 L 8.971838,8.395373 c -0.135508,0.1338779 -0.135508,0.3542859 0,0.4881631 l 0.56,0.5600001 c 0.06691,0.066942 0.156734,0.1012245 0.244895,0.1012245 0.08817,0 0.177963,-0.034289 0.244904,-0.1012245 l 0.148576,-0.148571 c 0.01305,-0.013058 0.0327,-0.021224 0.05059,-0.021224 0.0097,0 0.01799,0.0016 0.0278,0.0049 0.02616,0.011427 0.04404,0.037551 0.04404,0.066944 v 0.2089792 c 0,0.189388 0.155109,0.3608166 0.346126,0.3608166 h 0.793468 c 0.191022,0 0.34612,-0.1697958 0.34612,-0.3608166 V 9.3456077 c 0,-0.029383 0.01796,-0.055511 0.04407,-0.066941 0.008,-0.0033 0.01798,-0.0049 0.02781,-0.0049 0.01796,0 0.03757,0.00657 0.05057,0.021224 l 0.148565,0.1485718 c 0.06693,0.066942 0.156742,0.1012244 0.244907,0.1012244 0.08817,0 0.177957,-0.03429 0.244892,-0.1012244 l 0.56,-0.56 c 0.133877,-0.1338775 0.133877,-0.3542853 0,-0.4881635 L 12.950593,8.2468278 c -0.02125,-0.021222 -0.02616,-0.050618 -0.0147,-0.078367 0.01144,-0.026125 0.03757,-0.04408 0.06693,-0.04408 h 0.208981 c 0.191019,0 0.360815,-0.1551027 0.360815,-0.3461227 V 6.9864219 C 13.572619,6.7970345 13.402823,6.6403 13.211804,6.6403 Z m 0.0147,1.1379594 h -0.223672 c -0.169794,0 -0.321634,0.1012246 -0.386936,0.2579598 -0.0653,0.156735 -0.02942,0.3346928 0.09144,0.4555098 l 0.148575,0.1485717 -0.56,0.56 -0.148575,-0.1485719 c -0.07836,-0.078367 -0.184488,-0.1224488 -0.295507,-0.1224488 -0.05548,0 -0.109383,0.011429 -0.16,0.031019 -0.156732,0.065307 -0.257964,0.2155099 -0.257964,0.3853065 v 0.223673 H 10.640429 V 9.3455774 c 0,-0.1697964 -0.101223,-0.3200007 -0.257952,-0.3853067 -0.05057,-0.021222 -0.104493,-0.031017 -0.16,-0.031017 -0.11102,0 -0.217148,0.044082 -0.295509,0.1224489 L 9.77839,9.2002737 9.21839,8.6402738 9.366968,8.4917027 C 9.486149,8.3725184 9.522062,8.1929269 9.456768,8.0361918 9.391478,7.8794574 9.239628,7.778233 9.06983,7.778233 H 8.846154 V 6.9863954 h 0.223671 c 0.169798,0 0.321636,-0.1012236 0.386938,-0.2579587 0.0653,-0.1567345 0.02941,-0.3346944 -0.0898,-0.4555109 l -0.148578,-0.1485709 0.56,-0.56 0.148578,0.1485708 c 0.07836,0.078367 0.18449,0.122449 0.295511,0.122449 0.05549,0 0.109384,-0.011431 0.16,-0.032657 0.156728,-0.065307 0.257952,-0.2155094 0.257952,-0.3853054 V 5.1872077 h 0.791835 v 0.2302048 c 0,0.169796 0.101225,0.3216327 0.25796,0.3853053 0.05057,0.021222 0.104488,0.032659 0.16,0.032659 0.111018,0 0.217141,-0.044079 0.295508,-0.1224491 l 0.148578,-0.1485707 0.56,0.5599999 -0.148578,0.1485709 c -0.120813,0.119184 -0.155094,0.2987764 -0.09144,0.4555109 0.0653,0.1567349 0.217145,0.2579588 0.386933,0.2579588 h 0.223677 v 0.7918373 z"
       id="path12-3-7-3"
       style="fill:#eff0f1;fill-opacity:1;stroke-width:0.016327" />
  </g>
  <metadata
     id="metadata18">
    <rdf:RDF>
      <cc:Work
         rdf:about="">
        <dc:format>image/svg+xml</dc:format>
        <dc:type
           rdf:resource="http://purl.org/dc/dcmitype/StillImage" />
        <dc:title></dc:title>
      </cc:Work>
    </rdf:RDF>
  </metadata>
  <defs
     id="defs16" />
  <sodipodi:namedview
     pagecolor="#ffffff"
     bordercolor="#000000"
     borderopacity="1"
     objecttolerance="10"
     gridtolerance="10"
     guidetolerance="10"
     inkscape:pageopacity="0"
     inkscape:pageshadow="2"
     inkscape:window-width="1920"
     inkscape:window-height="1007"
     id="namedview14"
     showgrid="false"
     inkscape:zoom="6.9384853"
     inkscape:cx="36.514223"
     inkscape:cy="14.460147"
     inkscape:window-x="0"
     inkscape:window-y="0"
     inkscape:window-maximized="1"
     inkscape:current-layer="svg12"
     inkscape:document-rotation="0"
     inkscape:lockguides="false"
     inkscape:showpageshadow="false">
    <inkscape:grid
       type="xygrid"
       id="grid907"
       originx="32.000001"
       originy="10.000001" />
  </sodipodi:namedview>
  <g
     id="akonadi">
    <path
       style="opacity:0.00100002"
       d="M 0,0 H 32.000001 V 32.000001 H 0 Z"
       id="path7" />
    <path
       d="m 14.81167,17.415015 c 0.9574,0.4526 1.375921,0.4526 2.414408,0 l 10.876608,-4.889018 c 0.803075,-0.37407 0.826595,-1.961679 0,-2.4144 L 17.228701,4.3698978 c -0.858001,-0.507387 -1.457029,-0.4788 -2.414414,0 L 3.93505,10.111597 c -0.826594,0.53377 -0.855375,1.96184 0,2.4144 z M 16.02018,5.3429398 27.124395,11.317438 16.02018,15.999796 4.91074,11.317438 Z m 0,21.3400532 -11.10944,-5.121849 c 0.03923,0.02704 -0.980919,-0.439299 -1.70812,-0.852669 0,0.619909 0.156952,1.752617 0.729809,2.061279 l 10.876619,4.888869 c 0.957382,0.455168 1.375942,0.455168 2.414423,0 l 10.873995,-4.888869 c 0.536263,-0.253959 0.732421,-1.425649 0.732421,-2.061279 -0.698402,0.347719 -1.689796,0.847337 -1.713359,0.852669 z m -1.20851,-4.146098 c 0.9574,0.452499 1.375921,0.452499 2.414408,0 l 10.876608,-4.88908 c 0.536256,-0.25118 0.732442,-1.425599 0.732442,-2.061188 -0.698421,0.350419 -1.689828,0.847549 -1.713361,0.855379 L 16.02018,21.561144 4.908132,16.442006 c 0.03921,0.0214 -0.980917,-0.43937 -1.708132,-0.855379 0,0.620019 0.156945,1.755249 0.729821,2.061188 z"
       id="path4"
       style="fill:#eff0f1;fill-opacity:1;stroke-width:0.0261587"
       inkscape:connector-curvature="0" />
    <path
       d="m 16.005708,9.000001 c -0.869388,0 -1.574695,0.705307 -1.574695,1.572246 0,0.866939 0.705307,1.572245 1.574695,1.572245 0.869388,0 1.574694,-0.705306 1.574694,-1.572245 0,-0.866939 -0.707755,-1.572246 -1.574694,-1.572246 z m 0,2.627756 c -0.582858,0 -1.055511,-0.472653 -1.055511,-1.053061 0,-0.580409 0.472653,-1.053062 1.055511,-1.053062 0.582857,0 1.05551,0.472653 1.05551,1.053062 0,0.580408 -0.475102,1.053061 -1.05551,1.053061 z M 19.267749,9.46041 H 18.95428 c -0.04408,0 -0.08327,-0.02694 -0.100409,-0.06612 -0.01714,-0.03918 -0.0073,-0.08571 0.02449,-0.117551 l 0.222857,-0.222857 c 0.200817,-0.200816 0.200817,-0.531429 0,-0.732245 l -0.84,-0.84 C 18.16081,7.381229 18.026116,7.3298 17.893871,7.3298 c -0.132245,0 -0.266939,0.05143 -0.367347,0.151837 l -0.222857,0.222857 c -0.01959,0.01959 -0.04898,0.03184 -0.07592,0.03184 -0.01469,0 -0.02694,-0.0024 -0.04163,-0.0073 -0.03918,-0.01714 -0.06612,-0.05633 -0.06612,-0.100408 v -0.31347 c 0,-0.284081 -0.232654,-0.55102 -0.519184,-0.55102 h -1.190205 c -0.28653,0 -0.519183,0.266939 -0.519183,0.55102 v 0.31347 c 0,0.04408 -0.02694,0.08327 -0.06612,0.100408 -0.01225,0.0049 -0.02694,0.0073 -0.04163,0.0073 -0.02694,0 -0.05633,-0.0098 -0.07592,-0.03184 L 14.484898,7.481637 C 14.38449,7.381229 14.249796,7.3298 14.117551,7.3298 c -0.132245,0 -0.266939,0.05143 -0.367347,0.151837 l -0.842449,0.84 c -0.203265,0.200816 -0.203265,0.531429 0,0.732245 l 0.222857,0.222857 c 0.03184,0.03184 0.03918,0.07837 0.02449,0.117551 -0.01714,0.03918 -0.05633,0.06612 -0.100408,0.06612 h -0.31347 C 12.454694,9.46041 12.2,9.693063 12.2,9.979593 v 1.187756 c 0,0.284081 0.254694,0.519184 0.541224,0.519184 h 0.31347 c 0.04408,0 0.08327,0.02694 0.100408,0.06612 0.01714,0.03918 0.0073,0.08571 -0.02449,0.117551 l -0.222857,0.222857 c -0.203265,0.200817 -0.203265,0.531429 0,0.732245 l 0.84,0.84 c 0.100408,0.100409 0.235102,0.151837 0.367347,0.151837 0.132245,0 0.266939,-0.05143 0.367347,-0.151837 l 0.222857,-0.222857 c 0.01959,-0.01959 0.04898,-0.03184 0.07592,-0.03184 0.01469,0 0.02694,0.0024 0.04163,0.0073 0.03918,0.01714 0.06612,0.05633 0.06612,0.100409 v 0.313469 c 0,0.284082 0.232653,0.541225 0.519184,0.541225 h 1.190204 c 0.28653,0 0.519184,-0.254694 0.519184,-0.541225 V 13.51837 c 0,-0.04408 0.02694,-0.08327 0.06612,-0.100409 0.01224,-0.0049 0.02694,-0.0073 0.04163,-0.0073 0.02694,0 0.05633,0.0098 0.07592,0.03184 l 0.222857,0.222857 c 0.100408,0.100409 0.235102,0.151837 0.367347,0.151837 0.132245,0 0.266939,-0.05143 0.367347,-0.151837 l 0.84,-0.84 c 0.200817,-0.200816 0.200817,-0.531428 0,-0.732245 l -0.222857,-0.222857 c -0.03184,-0.03184 -0.03918,-0.07592 -0.02204,-0.117551 0.01714,-0.03918 0.05633,-0.06612 0.100409,-0.06612 h 0.313469 c 0.286531,0 0.541225,-0.232654 0.541225,-0.519184 V 9.979645 c 0,-0.284081 -0.254694,-0.519183 -0.541225,-0.519183 z m 0.02204,1.706939 h -0.33551 c -0.254694,0 -0.48245,0.151837 -0.580409,0.386939 -0.09796,0.235102 -0.04408,0.50204 0.137143,0.683265 l 0.222857,0.222857 -0.84,0.84 -0.222857,-0.222857 c -0.11755,-0.117551 -0.276734,-0.183673 -0.443264,-0.183673 -0.08327,0 -0.164082,0.01714 -0.24,0.04653 -0.235102,0.09796 -0.386939,0.323266 -0.386939,0.57796 v 0.33551 h -1.190205 v -0.33551 c 0,-0.254694 -0.151836,-0.480001 -0.386938,-0.57796 -0.07592,-0.03184 -0.156735,-0.04653 -0.24,-0.04653 -0.166531,0 -0.325715,0.06612 -0.443266,0.183673 l -0.222857,0.222857 -0.84,-0.84 0.222857,-0.222857 c 0.178776,-0.178776 0.232653,-0.448163 0.134694,-0.683265 -0.09796,-0.235102 -0.325714,-0.386939 -0.580408,-0.386939 H 12.719176 V 9.979593 h 0.335511 c 0.254694,0 0.482449,-0.151836 0.580408,-0.386938 0.09796,-0.235102 0.04408,-0.502041 -0.134694,-0.683266 l -0.222857,-0.222857 0.84,-0.84 0.222857,0.222857 c 0.117551,0.117551 0.276735,0.183674 0.443266,0.183674 0.08327,0 0.164081,-0.01714 0.24,-0.04898 0.235102,-0.09796 0.386938,-0.323265 0.386938,-0.577959 V 7.280817 h 1.187756 v 0.345307 c 0,0.254694 0.151837,0.482449 0.386939,0.577959 0.07592,0.03184 0.156734,0.04898 0.24,0.04898 0.16653,0 0.325714,-0.06612 0.443265,-0.183674 l 0.222857,-0.222857 0.84,0.84 -0.222857,0.222857 c -0.181224,0.178776 -0.232653,0.448164 -0.137143,0.683266 0.09796,0.235102 0.325715,0.386938 0.580409,0.386938 h 0.33551 v 1.187756 z"
       id="path12-3"
       style="fill:#eff0f1;fill-opacity:1;stroke-width:0.0244898" />
  </g>
</svg>
