<?xml version="1.0" encoding="UTF-8" standalone="no"?>
<svg
   xmlns:dc="http://purl.org/dc/elements/1.1/"
   xmlns:cc="http://creativecommons.org/ns#"
   xmlns:rdf="http://www.w3.org/1999/02/22-rdf-syntax-ns#"
   xmlns:svg="http://www.w3.org/2000/svg"
   xmlns="http://www.w3.org/2000/svg"
   xmlns:xlink="http://www.w3.org/1999/xlink"
   xmlns:sodipodi="http://sodipodi.sourceforge.net/DTD/sodipodi-0.dtd"
   xmlns:inkscape="http://www.inkscape.org/namespaces/inkscape"
   width="22"
   height="22"
   version="1.1"
   id="svg12"
   sodipodi:docname="bookmarks.svg"
   inkscape:version="1.0.2 (e86c870879, 2021-01-15)">
  <g
     id="22-22-bookmarks">
    <rect
       y="0"
       x="0"
       height="22"
       width="22"
       id="rect820-6"
       style="clip-rule:evenodd;fill:#2020ff;fill-opacity:0;fill-rule:evenodd;stroke-width:0.6875;stroke-linejoin:round;stroke-miterlimit:1.41421" />
    <path
       style="color:#31363b;fill:none;fill-opacity:1;stroke:url(#linearGradient853-3);stroke-width:1.33629;stroke-linecap:round;stroke-miterlimit:4;stroke-dasharray:none;stroke-opacity:1;stop-color:#31363b"
       class="ColorScheme-Text"
       sodipodi:type="arc"
       sodipodi:cx="-11.000182"
       sodipodi:cy="11.0018"
       sodipodi:rx="9.331934"
       sodipodi:ry="9.3325758"
       sodipodi:start="2.8446178"
       sodipodi:end="2.4946261"
       sodipodi:open="true"
       sodipodi:arc-type="arc"
       transform="rotate(-90)"
       id="path24-53"
       d="M -19.923621,13.73278 A 9.331934,9.3325758 0 0 1 -14.500315,2.3505363 9.331934,9.3325758 0 0 1 -2.6884707,6.7588147 9.331934,9.3325758 0 0 1 -6.0473896,18.911505 9.331934,9.3325758 0 0 1 -18.446281,16.627185" />
    <path
       d="m 16.307624,19.034 c 0,0 -2.24162,-1.43194 -3.012805,-1.971177 L 11.030702,15.627929 8.7222416,17.081383 C 7.5850566,17.90763 6.807283,17.590137 6.443538,17.326075 6.0797872,17.062027 5.5386404,16.421527 5.9708642,15.087096 L 6.6275767,12.346318 4.5346459,10.656247 C 3.3934137,9.829128 3.4549529,8.9898809 3.5939225,8.562021 3.7328932,8.1341605 4.1755196,7.4208671 5.5811113,7.4208671 v 0 L 8.3180462,7.2391491 9.330708,4.7075233 C 9.765526,3.3704961 10.581434,3.17 11.030702,3.17 c 0.449271,0 1.265192,0.2004961 1.699435,1.5372349 l 1.012657,2.5316248 2.73694,0.1817189 v 0 c 1.405589,0 1.849088,0.7141604 1.98718,1.1411523 0.138112,0.4269936 0.200218,1.2653871 -0.937253,2.0913391 l -2.100732,1.75044 0.175367,0.745372 c 0.176064,0.749749 -0.948991,1.01438 -1.125038,0.264629 l -0.25714,-1.0929 c -0.05023,-0.213122 0.02439,-0.43626 0.192695,-0.576355 l 2.390525,-1.991969 c 0.01091,-0.0097 0.02173,-0.01734 0.03271,-0.02541 C 17.130983,9.516261 17.460927,9.205408 17.367596,8.9179553 17.274257,8.6304981 16.83858,8.5744517 16.463852,8.5750302 h -0.04129 L 13.322143,8.3701896 C 13.094972,8.3577385 12.894632,8.2172424 12.805546,8.0079099 L 11.64986,5.1189158 c -0.0045,-0.012898 -0.01024,-0.025904 -0.0139,-0.039007 -0.109794,-0.3446577 -0.303956,-0.7543163 -0.605308,-0.7543163 -0.301331,0 -0.495486,0.4096586 -0.605276,0.7534476 -0.0039,0.013103 -0.0098,0.026106 -0.0139,0.039007 L 9.2558836,8.0070422 C 9.168105,8.2263891 8.9556313,8.3702047 8.7193581,8.3701889 L 5.6380348,8.575019 h -0.04129 C 5.2278016,8.573239 4.7860408,8.631064 4.6930079,8.9179438 4.5999899,9.204817 4.9296345,9.51568 5.2225996,9.726865 c 0.0086,0.0059 0.017332,0.01297 0.025686,0.01957 l 2.3890709,1.929282 c 0.1733951,0.140079 0.2507466,0.367397 0.1987746,0.58415 l -0.746566,3.118974 c -0.00366,0.01589 -0.0081,0.0315 -0.013312,0.0468 -0.1132585,0.34263 -0.197335,0.788118 0.046553,0.965208 0.2438477,0.177091 0.6416875,-0.04008 0.9326306,-0.253655 0.011278,-0.009 0.022515,-0.01588 0.034079,-0.02346 L 10.72273,14.455763 c 0.188204,-0.118547 0.427758,-0.118547 0.615976,0 l 2.63322,1.656837 c 0.0115,0.0064 0.03399,0.02346 0.03399,0.02346 0.307409,0.20307 0.869413,0.551517 0.869413,0.551517 l 1.779661,1.128348 v 0 z"
       id="path4-5"
       style="fill:url(#linearGradient876);fill-opacity:1;stroke-width:0.288907"
       sodipodi:nodetypes="ccccsccccscccscccscccccccccsccccccsccccccsccccccccccccccccc" />
  </g>
  <metadata
     id="metadata18">
    <rdf:RDF>
      <cc:Work
         rdf:about="">
        <dc:format>image/svg+xml</dc:format>
        <dc:type
           rdf:resource="http://purl.org/dc/dcmitype/StillImage" />
        <dc:title />
      </cc:Work>
    </rdf:RDF>
  </metadata>
  <defs
     id="defs16">
    <linearGradient
       inkscape:collect="always"
       id="linearGradient849">
      <stop
         style="stop-color:#ffe680;stop-opacity:1"
         offset="0"
         id="stop845" />
      <stop
         style="stop-color:#80e5ff;stop-opacity:1"
         offset="1"
         id="stop847" />
    </linearGradient>
    <linearGradient
       inkscape:collect="always"
       xlink:href="#linearGradient849"
       id="linearGradient853"
       gradientUnits="userSpaceOnUse"
       x1="-15"
       y1="3"
       x2="-15"
       y2="29"
       gradientTransform="matrix(0.99975232,0,0,0.99979752,-7.62e-4,5.87e-4)" />
    <linearGradient
       inkscape:collect="always"
       xlink:href="#linearGradient849"
       id="linearGradient853-3"
       gradientUnits="userSpaceOnUse"
       x1="-15"
       y1="3"
       x2="-15"
       y2="29"
       gradientTransform="matrix(0.76905895,0,0,0.76911211,1.3050766,-1.3056323)" />
    <linearGradient
       inkscape:collect="always"
       xlink:href="#linearGradient849"
       id="linearGradient860"
       x1="6.3493018"
       y1="16.184803"
       x2="25.583733"
       y2="16.184803"
       gradientUnits="userSpaceOnUse" />
    <linearGradient
       inkscape:collect="always"
       xlink:href="#linearGradient849"
       id="linearGradient868"
       x1="6.1645293"
       y1="16.237122"
       x2="25.768509"
       y2="16.237122"
       gradientUnits="userSpaceOnUse" />
    <linearGradient
       inkscape:collect="always"
       xlink:href="#linearGradient849"
       id="linearGradient876"
       x1="4.3200169"
       y1="11.129881"
       x2="17.636469"
       y2="11.129881"
       gradientUnits="userSpaceOnUse"
       gradientTransform="matrix(1.1279655,0,0,1.1279655,-1.3528285,-1.4521156)" />
  </defs>
  <sodipodi:namedview
     pagecolor="#ffffff"
     bordercolor="#000000"
     borderopacity="1"
     objecttolerance="10"
     gridtolerance="10"
     guidetolerance="10"
     inkscape:pageopacity="0"
     inkscape:pageshadow="2"
     inkscape:window-width="1920"
     inkscape:window-height="1007"
     id="namedview14"
     showgrid="false"
     inkscape:zoom="8.0000005"
     inkscape:cx="5.9817787"
     inkscape:cy="4.4017298"
     inkscape:window-x="0"
     inkscape:window-y="0"
     inkscape:window-maximized="1"
     inkscape:current-layer="svg12"
     inkscape:document-rotation="0"
     inkscape:showpageshadow="false">
    <inkscape:grid
       type="xygrid"
       id="grid857"
       originx="-32"
       originy="-10" />
  </sodipodi:namedview>
  <g
     id="g997"
     transform="translate(-32,-10)" />
  <g
     id="g999" />
  <g
     id="bookmarks"
     transform="translate(-32,-10)">
    <rect
       y="0"
       x="0"
       height="32"
       width="32"
       id="rect820"
       style="clip-rule:evenodd;fill:#2020ff;fill-opacity:0;fill-rule:evenodd;stroke-linejoin:round;stroke-miterlimit:1.41421" />
    <path
       style="color:#31363b;fill:none;fill-opacity:1;stroke:url(#linearGradient853);stroke-width:1.73715;stroke-linecap:round;stroke-miterlimit:4;stroke-dasharray:none;stroke-opacity:1;stop-color:#31363b"
       class="ColorScheme-Text"
       sodipodi:type="arc"
       sodipodi:cx="-15.997211"
       sodipodi:cy="15.99947"
       sodipodi:rx="12.131218"
       sodipodi:ry="12.131766"
       sodipodi:start="2.9054936"
       sodipodi:end="2.5133494"
       sodipodi:open="true"
       sodipodi:arc-type="arc"
       transform="rotate(-90)"
       id="path24"
       d="M -27.791883,18.837232 A 12.131218,12.131766 0 0 1 -19.975671,4.5386592 12.131218,12.131766 0 0 1 -4.9813557,10.91816 12.131218,12.131766 0 0 1 -9.8623077,26.465573 12.131218,12.131766 0 0 1 -25.81211,23.129604" />
    <path
       d="m 22.724438,26.342337 c 0,0 -2.870502,-1.833719 -3.858022,-2.524257 l -2.899306,-1.83749 -2.956098,1.861258 c -1.456218,1.05808 -2.452193,0.651498 -2.917985,0.313358 -0.465798,-0.338145 -1.158764,-1.15834 -0.60528,-2.867174 L 10.328696,17.778239 7.648602,15.613986 C 6.187201,14.5548 6.266007,13.480072 6.443962,12.932163 6.621922,12.384255 7.188725,11.470829 8.98865,11.470829 v 0 l 3.504773,-0.232704 1.296758,-3.2419402 C 14.346988,6.2840195 15.3918,6.027269 15.96711,6.027269 c 0.575314,0 1.620118,0.2567505 2.176192,1.9685458 l 1.296764,3.2419402 3.504766,0.232705 v 0 c 1.799928,0 2.36784,0.914535 2.544682,1.461333 0.176851,0.546798 0.256393,1.620418 -1.200194,2.678124 l -2.690089,2.241573 0.224577,0.954494 c 0.225453,0.960115 -1.215229,1.298996 -1.440683,0.338881 L 20.05385,17.745317 c -0.06422,-0.272904 0.03132,-0.558663 0.246771,-0.73807 l 3.061173,-2.550856 c 0.01371,-0.0115 0.02774,-0.02219 0.04179,-0.03254 0.375158,-0.269702 0.797663,-0.667777 0.678164,-1.035882 -0.119501,-0.368111 -0.677423,-0.439881 -1.157282,-0.439141 h -0.05289 l -3.970201,-0.262315 c -0.290901,-0.01595 -0.547443,-0.195861 -0.661511,-0.463928 L 16.759967,8.5230048 c -0.0065,-0.016525 -0.01238,-0.033174 -0.01774,-0.049944 -0.140615,-0.4413597 -0.38924,-0.9659599 -0.775124,-0.9659599 -0.385881,0 -0.634501,0.5246002 -0.775094,0.9648501 -0.0056,0.016772 -0.01151,0.03342 -0.01774,0.049944 l -1.47991,3.699578 c -0.1124,0.28089 -0.38449,0.465059 -0.687046,0.465038 l -3.945775,0.262301 h -0.05289 c -0.472451,-0.0023 -1.038145,0.07177 -1.157277,0.439141 -0.119134,0.367364 0.303011,0.765439 0.678166,1.035881 0.0111,0.0084 0.02219,0.01665 0.03289,0.02513 l 3.059316,2.470579 c 0.222041,0.179382 0.321093,0.470481 0.254542,0.748054 l -0.95601,3.994062 c -0.0048,0.02034 -0.01034,0.0403 -0.01705,0.05995 -0.145032,0.438769 -0.252695,1.009246 0.0596,1.236029 0.312258,0.226786 0.821711,-0.0514 1.194277,-0.324823 0.0144,-0.01034 0.02883,-0.02035 0.04364,-0.02999 l 3.371951,-2.123186 c 0.241011,-0.151815 0.547773,-0.151815 0.788784,0 l 3.371951,2.121706 c 0.0148,0.0093 0.04364,0.02999 0.04364,0.02999 0.393648,0.26005 1.11332,0.706272 1.11332,0.706272 l 2.278933,1.444928 v 0 z"
       id="path4"
       style="fill:url(#linearGradient868);fill-opacity:1;stroke:url(#linearGradient860);stroke-width:0.369966"
       sodipodi:nodetypes="ccccsccccscccscccscccccccccsccccccsccccccsccccccccccccccccc" />
  </g>
</svg>
