<?xml version="1.0" encoding="UTF-8" standalone="no"?>
<svg
   xmlns:dc="http://purl.org/dc/elements/1.1/"
   xmlns:cc="http://creativecommons.org/ns#"
   xmlns:rdf="http://www.w3.org/1999/02/22-rdf-syntax-ns#"
   xmlns:svg="http://www.w3.org/2000/svg"
   xmlns="http://www.w3.org/2000/svg"
   xmlns:xlink="http://www.w3.org/1999/xlink"
   xmlns:sodipodi="http://sodipodi.sourceforge.net/DTD/sodipodi-0.dtd"
   xmlns:inkscape="http://www.inkscape.org/namespaces/inkscape"
   width="32"
   height="32"
   version="1.1"
   id="svg12"
   sodipodi:docname="compass.svg"
   inkscape:version="1.0.2 (e86c870879, 2021-01-15)">
  <g
     id="22-22-compass"
     transform="translate(32,9.9999997)">
    <path
       d="M 3.3293327,13.484527 1.6155327,12.628 C 2.2982673,16.5858 5.4142,19.701727 9.372,20.384473 l -0.8565326,-1.7138 C 6.0639327,17.875 4.125,15.936073 3.3293327,13.484527 Z"
       id="path2-6"
       style="fill:url(#linearGradient891);fill-opacity:1;stroke-width:0.733327" />
    <path
       d="M 13.484527,18.6714 12.628,20.384473 C 16.5858,19.701727 19.701727,16.5858 20.384473,12.628 L 18.6714,13.484527 C 17.875,15.936073 15.936073,17.875 13.484527,18.6714 Z"
       id="path4-7"
       style="fill:url(#linearGradient883);fill-opacity:1;stroke-width:0.733327" />
    <path
       d="M 18.670673,8.5154674 20.384473,9.372 C 19.701727,5.4142 16.5858,2.2982673 12.628,1.6155327 l 0.856527,1.7138 C 15.936073,4.125 17.875,6.0639327 18.670673,8.5154674 Z"
       id="path6-5"
       style="fill:url(#linearGradient870);fill-opacity:1;stroke-width:0.733327" />
    <path
       d="M 8.5154674,3.3293327 9.372,1.6155327 C 5.4142,2.2982673 2.2982673,5.4142 1.6155327,9.372 l 1.7138,-0.8565326 C 4.125,6.0639327 6.0639327,4.125 8.5154674,3.3293327 Z"
       id="path8-3"
       style="fill:url(#linearGradient867);fill-opacity:1;stroke-width:0.733327" />
    <path
       d="M 22,11 14.666673,7.3333327 11,0 7.3333327,7.3333327 0,11 7.3333327,14.666673 11,22 14.666673,14.666673 Z M 14.811127,8.2258 20.360273,11 H 12.036927 Z M 11,1.6397327 V 9.963073 L 8.2258,7.1888674 Z M 7.1888674,13.7742 1.6397327,11 H 9.963073 Z M 11,20.360273 v -8.323346 l 2.7742,2.7742 z"
       id="path10-5"
       style="fill:url(#linearGradient858);fill-opacity:1;stroke-width:0.733327" />
    <path
       style="clip-rule:evenodd;fill:#ffffc1;fill-opacity:0;fill-rule:evenodd;stroke-width:0.688964;stroke-linejoin:round;stroke-miterlimit:1.41421"
       d="M 0,0 V 22 H 22 V 0 Z"
       id="rect817-5"
       inkscape:connector-curvature="0" />
  </g>
  <metadata
     id="metadata18">
    <rdf:RDF>
      <cc:Work
         rdf:about="">
        <dc:format>image/svg+xml</dc:format>
        <dc:type
           rdf:resource="http://purl.org/dc/dcmitype/StillImage" />
        <dc:title />
      </cc:Work>
    </rdf:RDF>
  </metadata>
  <defs
     id="defs16">
    <linearGradient
       inkscape:collect="always"
       id="linearGradient861">
      <stop
         style="stop-color:#abffee;stop-opacity:1"
         offset="0"
         id="stop857" />
      <stop
         style="stop-color:#33d6ff;stop-opacity:1"
         offset="1"
         id="stop859" />
    </linearGradient>
    <linearGradient
       inkscape:collect="always"
       xlink:href="#linearGradient861"
       id="linearGradient850"
       x1="3"
       y1="16"
       x2="29"
       y2="16"
       gradientUnits="userSpaceOnUse"
       gradientTransform="matrix(1.0769232,0,0,1.0769232,-33.230769,-11.230769)" />
    <linearGradient
       inkscape:collect="always"
       xlink:href="#linearGradient861"
       id="linearGradient866"
       x1="4.9092665"
       y1="9.4926338"
       x2="14.076"
       y2="9.4926338"
       gradientUnits="userSpaceOnUse"
       gradientTransform="matrix(1.0769232,0,0,1.0769232,-33.230769,-11.230769)" />
    <linearGradient
       inkscape:collect="always"
       xlink:href="#linearGradient861"
       id="linearGradient882"
       x1="4.9092665"
       y1="22.507366"
       x2="14.076"
       y2="22.507366"
       gradientUnits="userSpaceOnUse"
       gradientTransform="matrix(1.0769232,0,0,1.0769232,-33.230769,-11.230769)" />
    <linearGradient
       inkscape:collect="always"
       xlink:href="#linearGradient861"
       id="linearGradient890"
       x1="17.924"
       y1="22.507366"
       x2="27.090733"
       y2="22.507366"
       gradientUnits="userSpaceOnUse"
       gradientTransform="matrix(1.0769232,0,0,1.0769232,-33.230769,-11.230769)" />
    <linearGradient
       inkscape:collect="always"
       xlink:href="#linearGradient861"
       id="linearGradient858"
       x1="1"
       y1="11"
       x2="21"
       y2="11"
       gradientUnits="userSpaceOnUse"
       gradientTransform="matrix(1.0999999,0,0,1.0999999,-1.1,-1.1)" />
    <linearGradient
       inkscape:collect="always"
       xlink:href="#linearGradient861"
       id="linearGradient867"
       x1="2.4686668"
       y1="5.9943333"
       x2="9.5200005"
       y2="5.9943333"
       gradientUnits="userSpaceOnUse"
       gradientTransform="matrix(1.0999999,0,0,1.0999999,-1.1,-1.1)" />
    <linearGradient
       inkscape:collect="always"
       xlink:href="#linearGradient861"
       id="linearGradient883"
       x1="12.48"
       y1="16.005667"
       x2="19.531334"
       y2="16.005667"
       gradientUnits="userSpaceOnUse"
       gradientTransform="matrix(1.0999999,0,0,1.0999999,-1.1,-1.1)" />
    <linearGradient
       inkscape:collect="always"
       xlink:href="#linearGradient861"
       id="linearGradient891"
       x1="2.4686668"
       y1="16.005667"
       x2="9.5200005"
       y2="16.005667"
       gradientUnits="userSpaceOnUse"
       gradientTransform="matrix(1.0999999,0,0,1.0999999,-1.1,-1.1)" />
    <linearGradient
       inkscape:collect="always"
       xlink:href="#linearGradient861"
       id="linearGradient862"
       x1="-13.928"
       y1="-1.0079334"
       x2="-4.0561271"
       y2="-1.0079334"
       gradientUnits="userSpaceOnUse" />
    <linearGradient
       inkscape:collect="always"
       xlink:href="#linearGradient861"
       id="linearGradient870"
       x1="12.628"
       y1="5.4937663"
       x2="20.384474"
       y2="5.4937663"
       gradientUnits="userSpaceOnUse" />
  </defs>
  <sodipodi:namedview
     pagecolor="#ffffff"
     bordercolor="#000000"
     borderopacity="1"
     objecttolerance="10"
     gridtolerance="10"
     guidetolerance="10"
     inkscape:pageopacity="0"
     inkscape:pageshadow="2"
     inkscape:window-width="1920"
     inkscape:window-height="1007"
     id="namedview14"
     showgrid="false"
     inkscape:zoom="8"
     inkscape:cx="5.447167"
     inkscape:cy="30.859937"
     inkscape:window-x="0"
     inkscape:window-y="0"
     inkscape:window-maximized="1"
     inkscape:current-layer="svg12"
     inkscape:document-rotation="0"
     inkscape:lockguides="false"
     inkscape:showpageshadow="false">
    <inkscape:grid
       type="xygrid"
       id="grid880"
       originx="32"
       originy="9.9999997" />
  </sodipodi:namedview>
  <g
     id="compass"
     transform="translate(32,9.9999997)">
    <path
       style="clip-rule:evenodd;fill:#ffffc1;fill-opacity:0;fill-rule:evenodd;stroke-width:1.00213;stroke-linejoin:round;stroke-miterlimit:1.41421"
       d="M -32,-9.9999997 V 22 H 0 V -9.9999997 Z"
       id="rect817"
       inkscape:connector-curvature="0" />
    <path
       d="m -25.762667,9.1621273 -2.1812,-1.090127 C -27.074933,13.1092 -23.1092,17.074927 -18.072,17.943873 l -1.090127,-2.1812 C -22.282273,14.75 -24.75,12.282273 -25.762667,9.1621273 Z"
       id="path2"
       style="fill:url(#linearGradient882);fill-opacity:1;stroke-width:0.933327" />
    <path
       d="M -12.837873,15.7636 -13.928,17.943873 C -8.8908,17.074927 -4.925073,13.1092 -4.056127,8.0720003 L -6.2364,9.1621273 C -7.25,12.282273 -9.717727,14.75 -12.837873,15.7636 Z"
       id="path4"
       style="fill:url(#linearGradient890);fill-opacity:1;stroke-width:0.933327" />
    <path
       d="m -6.237327,2.8378733 2.1812,1.090127 C -4.925073,-1.1091997 -8.8908,-5.0749324 -13.928,-5.943867 l 1.090127,2.1812 c 3.120146,1.0126673 5.587873,3.4803943 6.600546,6.6005403 z"
       id="path6"
       style="fill:url(#linearGradient862);fill-opacity:1;stroke-width:0.933327" />
    <path
       d="m -19.162127,-3.762667 1.090127,-2.1812 c -5.0372,0.8689346 -9.002933,4.8346673 -9.871867,9.8718673 l 2.1812,-1.090127 c 1.012667,-3.120146 3.480394,-5.587873 6.60054,-6.6005403 z"
       id="path8"
       style="fill:url(#linearGradient866);fill-opacity:1;stroke-width:0.933327" />
    <path
       d="M -2,6.0000003 -11.333327,1.3333273 -16,-7.9999997 -20.666673,1.3333273 -30,6.0000003 -20.666673,10.666673 -16,20 l 4.666673,-9.333327 z m -9.149473,-3.5308 7.062546,3.5308 H -14.680273 Z M -16,-5.913067 V 4.6802733 l -3.5308,-3.5308 z m -4.850527,15.4438673 -7.06254,-3.5308 h 10.59334 z M -16,17.913073 V 7.3197273 l 3.5308,3.5307997 z"
       id="path10"
       style="fill:url(#linearGradient850);fill-opacity:1;stroke-width:0.933327" />
  </g>
</svg>
