<?xml version="1.0" encoding="UTF-8" standalone="no"?>
<svg
   xmlns:dc="http://purl.org/dc/elements/1.1/"
   xmlns:cc="http://creativecommons.org/ns#"
   xmlns:rdf="http://www.w3.org/1999/02/22-rdf-syntax-ns#"
   xmlns:svg="http://www.w3.org/2000/svg"
   xmlns="http://www.w3.org/2000/svg"
   xmlns:sodipodi="http://sodipodi.sourceforge.net/DTD/sodipodi-0.dtd"
   xmlns:inkscape="http://www.inkscape.org/namespaces/inkscape"
   sodipodi:docname="kdeconnect.svg"
   height="31.999973"
   width="32.000015"
   inkscape:version="1.0.2 (e86c870879, 2021-01-15)"
   version="1.1"
   id="svg"
   viewBox="0 0 32.000013 31.999973">
  <defs
     id="defs81">
    <style
       type="text/css"
       id="current-color-scheme" />
    <style
       id="current-color-scheme-9"
       type="text/css" />
  </defs>
  <metadata
     id="metadata34">
    <rdf:RDF>
      <cc:Work
         rdf:about="">
        <dc:format>image/svg+xml</dc:format>
        <dc:type
           rdf:resource="http://purl.org/dc/dcmitype/StillImage" />
        <dc:title></dc:title>
      </cc:Work>
    </rdf:RDF>
  </metadata>
  <sodipodi:namedview
     inkscape:document-rotation="0"
     fit-margin-bottom="0"
     fit-margin-right="0"
     fit-margin-left="0"
     fit-margin-top="0"
     inkscape:snap-bbox-midpoints="true"
     inkscape:snap-bbox="true"
     inkscape:guide-bbox="true"
     showguides="false"
     borderlayer="false"
     inkscape:current-layer="svg"
     inkscape:window-maximized="1"
     inkscape:window-y="0"
     inkscape:window-x="0"
     inkscape:cy="50.640044"
     inkscape:cx="9.0492249"
     inkscape:zoom="5.6568543"
     showgrid="false"
     id="namedview32"
     inkscape:window-height="1007"
     inkscape:window-width="1920"
     inkscape:pageshadow="2"
     inkscape:pageopacity="0.11372549"
     guidetolerance="10"
     gridtolerance="10"
     objecttolerance="10"
     borderopacity="1"
     bordercolor="#000000"
     pagecolor="#ffffff"
     inkscape:lockguides="false"
     inkscape:showpageshadow="false">
    <inkscape:grid
       spacingy="1.0666667"
       spacingx="1.0666666"
       originy="-31.966645"
       originx="-51.16666"
       snapvisiblegridlinesonly="true"
       enabled="true"
       visible="true"
       empspacing="5"
       id="grid3046"
       type="xygrid" />
  </sodipodi:namedview>
  <g
     id="kdeconnect"
     transform="translate(8.0624752,73.081215)">
    <rect
       width="32.000015"
       height="31.999973"
       rx="0"
       ry="0"
       x="-8.0624752"
       y="-73.081215"
       id="rect3860"
       style="opacity:0.01;fill:#eff0f1;fill-opacity:0;stroke:none" />
    <path
       d="M 13.358439,-69.081212 H 2.6585534 c -0.8914286,0 -1.6210286,0.728914 -1.6210286,1.621029 v 20.757257 c 0,0.892114 0.7296,1.621714 1.6210286,1.621714 H 13.358439 c 0.891429,0 1.621029,-0.728228 1.621029,-1.621028 v -20.757943 c 0,-0.892115 -0.7296,-1.621029 -1.621029,-1.621029 z m -7.0614856,1.168457 h 3.4230857 c 0.1083429,0 0.1961143,0.08777 0.1961143,0.1968 0,0.108343 -0.087771,0.196114 -0.1961143,0.196114 H 6.2969534 c -0.1083429,0 -0.1961143,-0.08777 -0.1961143,-0.196114 0,-0.109028 0.087771,-0.1968 0.1961143,-0.1968 z m 1.7115429,22.021029 c -0.4477715,0 -0.8105143,-0.362743 -0.8105143,-0.8112 0,-0.448457 0.3627428,-0.810514 0.8105143,-0.810514 0.4477714,0 0.8105143,0.362057 0.8105143,0.810514 0,0.448457 -0.3627429,0.8112 -0.8105143,0.8112 z m 5.8429717,-2.189486 H 2.1655248 V -66.510469 H 13.851468 Z"
       id="path2"
       style="fill:#eff0f1;fill-opacity:1;stroke-width:0.685714" />
    <path
       d="m 13.010336,-60.768215 0.786189,-1.37975 c -3.13161,-3.103 -8.4274416,-3.103 -11.5590002,0 l 0.7860585,1.37975 c 2.7534441,-2.727913 7.2332897,-2.727913 9.9867527,0 z"
       id="path2-3"
       style="fill:#eff0f1;fill-opacity:1;stroke-width:0.482918"
       sodipodi:nodetypes="ccccc" />
    <path
       d="m 12.710525,-59.168215 c -1.147184,-1.299271 -2.9613244,-1.872 -4.6928839,-1.872 -1.7315061,0 -3.5471653,0.521325 -4.6941163,1.872 l 0.8180165,1.435716 c 1.0362146,-1.026827 2.4140015,-1.592404 3.8795592,-1.592404 1.4655585,0 2.8433915,0.565577 3.8796175,1.592404 z"
       id="path4"
       style="fill:#eff0f1;fill-opacity:1;stroke-width:0.495565"
       sodipodi:nodetypes="csccscc" />
    <path
       d="m 11.058525,-56.208372 c -0.804272,-0.796825 -1.9731038,-1.235843 -3.1103586,-1.235843 -1.137205,0 -2.2063642,0.439018 -3.0106416,1.235843 l 0.7460602,1.239156 c 0.6047567,-0.59953 1.4091332,-0.929999 2.2645814,-0.929999 0.8555041,0 1.6598721,0.330469 2.2646286,0.929999 z"
       id="path6-67"
       style="fill:#eff0f1;fill-opacity:1;stroke-width:0.525119"
       sodipodi:nodetypes="csccscc" />
    <path
       d="m 8.0119148,-53.776215 c -0.69584,0 -1.261867,0.56089 -1.261867,1.250406 0,0.689523 0.566028,1.25041 1.261867,1.25041 0.695884,0 1.261914,-0.560887 1.261914,-1.25041 0,-0.689516 -0.56603,-1.250406 -1.261914,-1.250406 z m 0,0.833605 z"
       id="path10-5"
       style="fill:#eff0f1;fill-opacity:1;stroke-width:0.418718"
       sodipodi:nodetypes="sssssccccc" />
  </g>
  <g
     id="22-22-kdeconnect">
    <path
       d="m 15.072101,49.677435 0.396471,0.392928 c 0.354647,-0.351141 0.931427,-0.351141 1.286052,0 l 0.396494,-0.392928 c -0.573164,-0.567939 -1.505854,-0.567939 -2.079017,0 z"
       id="path8-1"
       style="fill:#eff0f1;fill-opacity:1;stroke-width:0.27914" />
    <path
       d="m 16.111592,50.917934 c -0.463893,0 -0.84124,0.373924 -0.84124,0.833602 0,0.459681 0.377347,0.833606 0.84124,0.833606 0.463927,0 0.841274,-0.373925 0.841274,-0.833606 0,-0.459678 -0.377347,-0.833602 -0.841274,-0.833602 z m 0,1.111469 c -0.15458,0 -0.280419,-0.124679 -0.280419,-0.277867 0,-0.153173 0.125839,-0.277863 0.280419,-0.277863 0.154626,0 0.280454,0.12469 0.280454,0.277863 0,0.153188 -0.125827,0.277867 -0.280454,0.277867 z"
       id="path10-5-2"
       style="fill:#eff0f1;stroke-width:0.27914;fill-opacity:1" />
    <rect
       style="fill:#000000;fill-opacity:0;stroke:none"
       id="rect3841"
       width="22"
       height="22"
       x="5.2620001"
       y="38.381004" />
    <path
       d="m 19.675943,41.381003 h -7.133257 c -0.594286,0 -1.080686,0.485943 -1.080686,1.080686 V 56.29986 c 0,0.594743 0.4864,1.081143 1.080686,1.081143 h 7.133257 c 0.594286,0 1.080686,-0.485486 1.080686,-1.080686 V 42.461689 c 0,-0.594743 -0.4864,-1.080686 -1.080686,-1.080686 z m -4.707657,0.778971 h 2.282057 c 0.07223,0 0.130743,0.05851 0.130743,0.1312 0,0.07223 -0.05851,0.130743 -0.130743,0.130743 h -2.282057 c -0.07223,0 -0.130743,-0.05851 -0.130743,-0.130743 0,-0.07268 0.05851,-0.1312 0.130743,-0.1312 z m 1.141028,14.680686 c -0.298514,0 -0.540343,-0.241828 -0.540343,-0.5408 0,-0.298971 0.241829,-0.540343 0.540343,-0.540343 0.298515,0 0.540343,0.241372 0.540343,0.540343 0,0.298972 -0.241828,0.5408 -0.540343,0.5408 z m 3.895315,-1.459657 H 12.214 V 43.094832 h 7.790629 z"
       id="path2-5"
       style="fill:#eff0f1;fill-opacity:1;stroke-width:0.457143" />
    <path
       d="m 18.997981,47.656643 0.396575,-0.392918 c -1.810203,-1.793665 -4.755716,-1.793665 -6.565891,0 l 0.396576,0.392918 c 1.591599,-1.57684 4.181132,-1.57684 5.77274,0 z"
       id="path2-3-6"
       style="fill:#eff0f1;fill-opacity:1;stroke-width:0.27914" />
    <path
       d="m 18.693489,48.087569 c -0.689544,-0.683411 -1.606535,-1.059785 -2.581897,-1.059785 -0.975324,0 -1.892326,0.376374 -2.581851,1.059785 l 0.396555,0.392919 c 0.583683,-0.578394 1.359777,-0.896977 2.185296,-0.896977 0.825527,0 1.601645,0.318583 2.185334,0.896977 z"
       id="path4-2"
       style="fill:#eff0f1;fill-opacity:1;stroke-width:0.27914" />
    <path
       d="m 17.712025,48.796207 c -0.427538,-0.423587 -0.995881,-0.656952 -1.600433,-0.656952 -0.604518,0 -1.172871,0.233365 -1.6004,0.656952 l 0.396592,0.392917 c 0.321481,-0.318702 0.749068,-0.494131 1.203808,-0.494131 0.454777,0 0.882362,0.175429 1.203839,0.494131 z"
       id="path6-67-9"
       style="fill:#eff0f1;fill-opacity:1;stroke-width:0.27914" />
  </g>
  <g
     id="16-16-kdeconnect">
    <path
       d="m 17.98609,80.11114 c -0.517153,-0.512559 -1.2049,-0.794839 -1.936422,-0.794839 -0.731489,0 -1.419246,0.28228 -1.936382,0.794839 l 0.29741,0.294689 c 0.43776,-0.433796 1.01984,-0.672733 1.638972,-0.672733 0.619149,0 1.201237,0.238937 1.639003,0.672733 z"
       id="path4-2-0"
       style="fill:#eff0f1;fill-opacity:1;stroke-width:0.209351" />
    <path
       d="m 17.249993,80.642618 c -0.320656,-0.31769 -0.746904,-0.492714 -1.200325,-0.492714 -0.453387,0 -0.879652,0.175024 -1.200293,0.492714 l 0.297442,0.294688 c 0.241113,-0.239026 0.561796,-0.370598 0.902851,-0.370598 0.341086,0 0.661773,0.131572 0.902879,0.370598 z"
       id="path6-67-9-6"
       style="fill:#eff0f1;fill-opacity:1;stroke-width:0.209351" />
    <rect
       style="fill:#566060;fill-opacity:0;stroke:none"
       id="rect3889"
       width="16"
       height="16"
       x="8.0624752"
       y="73.081215"
       ry="2.9278411e-07" />
    <path
       d="m 15.270057,81.303539 0.297351,0.294696 c 0.265979,-0.263355 0.698569,-0.263355 0.964532,0 l 0.297374,-0.294696 c -0.429873,-0.425954 -1.129385,-0.425954 -1.559257,0 z"
       id="path8-1-7"
       style="fill:#eff0f1;fill-opacity:1;stroke-width:0.209351" />
    <path
       d="m 16.049668,82.233914 c -0.347921,0 -0.630925,0.280442 -0.630925,0.6252 0,0.344759 0.283004,0.625203 0.630925,0.625203 0.347949,0 0.630954,-0.280444 0.630954,-0.625203 0,-0.344758 -0.283005,-0.6252 -0.630954,-0.6252 z m 0,0.833601 c -0.115935,0 -0.21031,-0.09351 -0.21031,-0.208401 0,-0.114879 0.09436,-0.208395 0.21031,-0.208395 0.115975,0 0.210339,0.09352 0.210339,0.208395 0,0.114893 -0.09435,0.208401 -0.210339,0.208401 z"
       id="path10-5-2-0"
       style="fill:#eff0f1;stroke-width:0.209351;fill-opacity:1" />
    <path
       d="M 18.722932,75.081215 H 13.37299 c -0.445715,0 -0.810515,0.364457 -0.810515,0.810514 v 10.378629 c 0,0.446057 0.3648,0.810857 0.810515,0.810857 h 5.349942 c 0.445715,0 0.810515,-0.364114 0.810515,-0.810514 V 75.891729 c 0,-0.446057 -0.3648,-0.810514 -0.810515,-0.810514 z m -3.530742,0.584229 h 1.711542 c 0.05417,0 0.09806,0.04389 0.09806,0.0984 0,0.05417 -0.04389,0.09806 -0.09806,0.09806 H 15.19219 c -0.05417,0 -0.09806,-0.04389 -0.09806,-0.09806 0,-0.05452 0.04389,-0.0984 0.09806,-0.0984 z m 0.855771,11.010514 c -0.223886,0 -0.405257,-0.181372 -0.405257,-0.4056 0,-0.224229 0.181371,-0.405257 0.405257,-0.405257 0.223886,0 0.405257,0.181028 0.405257,0.405257 0,0.224228 -0.181371,0.4056 -0.405257,0.4056 z m 2.921486,-1.094743 h -5.842972 v -9.214629 h 5.842972 z"
       id="path2-5-3"
       style="fill:#eff0f1;fill-opacity:1;stroke-width:0.342857" />
    <path
       d="m 18.214457,79.787945 0.29744,-0.294688 c -1.357656,-1.345249 -3.566792,-1.345249 -4.924425,0 l 0.297434,0.294688 c 1.193699,-1.18263 3.135852,-1.18263 4.329551,0 z"
       id="path2-3-6-6"
       style="fill:#eff0f1;fill-opacity:1;stroke-width:0.209351" />
  </g>
</svg>
