<?xml version="1.0" encoding="UTF-8" standalone="no"?>
<svg
   xmlns:dc="http://purl.org/dc/elements/1.1/"
   xmlns:cc="http://creativecommons.org/ns#"
   xmlns:rdf="http://www.w3.org/1999/02/22-rdf-syntax-ns#"
   xmlns:svg="http://www.w3.org/2000/svg"
   xmlns="http://www.w3.org/2000/svg"
   xmlns:sodipodi="http://sodipodi.sourceforge.net/DTD/sodipodi-0.dtd"
   xmlns:inkscape="http://www.inkscape.org/namespaces/inkscape"
   sodipodi:docname="update.svg"
   inkscape:version="1.0.2 (e86c870879, 2021-01-15)"
   id="svg846"
   version="1.1"
   viewBox="0 0 8.4666665 8.4666699"
   height="32.000011"
   width="32">
  <defs
     id="defs840" />
  <sodipodi:namedview
     inkscape:document-rotation="0"
     inkscape:snap-midpoints="true"
     inkscape:object-paths="true"
     inkscape:snap-intersection-paths="true"
     inkscape:snap-smooth-nodes="true"
     inkscape:window-maximized="1"
     inkscape:window-y="0"
     inkscape:window-x="0"
     inkscape:window-height="1007"
     inkscape:window-width="1920"
     units="px"
     showgrid="false"
     inkscape:current-layer="layer1"
     inkscape:document-units="px"
     inkscape:cy="10.583516"
     inkscape:cx="64.055877"
     inkscape:zoom="6.425022"
     inkscape:pageshadow="2"
     inkscape:pageopacity="0.0"
     borderopacity="1"
     bordercolor="#000000"
     pagecolor="#ffffff"
     id="base"
     inkscape:lockguides="false"
     showguides="false"
     inkscape:showpageshadow="false">
    <inkscape:grid
       id="grid1394"
       type="xygrid"
       originx="8.0999996e-06"
       originy="-5.8208153" />
  </sodipodi:namedview>
  <metadata
     id="metadata843">
    <rdf:RDF>
      <cc:Work
         rdf:about="">
        <dc:format>image/svg+xml</dc:format>
        <dc:type
           rdf:resource="http://purl.org/dc/dcmitype/StillImage" />
        <dc:title></dc:title>
      </cc:Work>
    </rdf:RDF>
  </metadata>
  <style
     type="text/css"
     id="current-color-scheme" />
  <g
     transform="translate(0,-297)"
     id="layer1"
     inkscape:groupmode="layer"
     inkscape:label="Layer 1">
    <g
       id="22-22-update-none">
      <rect
         style="opacity:0.003;fill:#000000;fill-opacity:1;stroke:none;stroke-width:0.10795;stroke-miterlimit:4;stroke-dasharray:none;stroke-opacity:1"
         id="rect1396"
         width="5.8208332"
         height="5.8208332"
         x="0"
         y="291.17914"
         ry="1.2988289e-06" />
      <path
         d="m 4.3375469,292.61835 0.911361,0.46356 -0.275377,0.1351 c 0.113504,0.26812 0.177199,0.56271 0.177199,0.87254 0,1.24177 -1.006662,2.24897 -2.248955,2.24897 -0.397969,0 -0.771513,-0.10447 -1.095733,-0.28597 l 0.227482,-0.22743 c 0.261479,0.13123 0.555532,0.20687 0.868251,0.20687 1.072759,0 1.941977,-0.86968 1.941977,-1.94197 0,-0.28779 -0.06657,-0.55888 -0.179116,-0.80456 z m -1.466566,0.47722 z m 0,0 z m 0.03129,-0.94848 c -1.072752,0 -1.9419659,0.86973 -1.9419659,1.94246 0,0.28782 0.06656,0.5589 0.1791109,0.8045 l 0.327566,0.66669 -0.9113569,-0.46357 0.275373,-0.13511 c -0.113504,-0.26812 -0.177199,-0.56272 -0.177199,-0.87251 -4.78e-4,-1.24184 1.0066699,-2.24895 2.2484719,-2.24895 0.397971,0 0.77152,0.10436 1.095739,0.28585 l -0.227477,0.22753 c -0.261486,-0.1312 -0.556014,-0.20689 -0.868265,-0.20689 z"
         id="path4-9-9-9"
         sodipodi:nodetypes="cccssccsscccccccccccccccccccccccccccsscccccscc"
         style="fill:#eff0f1;fill-opacity:1;stroke-width:0.00478907" />
      <polygon
         points="13,7 16.1,7 10,0 3.9,7 7,7 7,14 13,14 "
         id="polygon4-7-3-4"
         style="fill:#eff0f1;fill-opacity:1"
         transform="matrix(0.18434191,0,0,0.13540654,1.0543179,292.74957)" />
      <rect
         x="2.3470352"
         y="294.78067"
         width="1.0976685"
         height="0.27081305"
         id="rect6-5-6-7"
         style="fill:#eff0f1;fill-opacity:1;stroke-width:0.157392" />
      <rect
         x="2.3470352"
         y="295.18695"
         width="1.0976685"
         height="0.27081305"
         id="rect8-3-06-8"
         style="fill:#eff0f1;fill-opacity:1;stroke-width:0.157393" />
    </g>
    <g
       id="22-22-update-high">
      <rect
         style="opacity:0.003;fill:#000000;fill-opacity:1;stroke:none;stroke-width:0.10795;stroke-miterlimit:4;stroke-dasharray:none;stroke-opacity:1"
         id="rect1396-3"
         width="5.8208332"
         height="5.8208332"
         x="5.8208332"
         y="291.17914"
         ry="1.2988288e-06" />
      <path
         d="m 10.15838,292.61835 0.911361,0.46356 -0.275377,0.1351 c 0.113504,0.26812 0.177199,0.56271 0.177199,0.87254 0,1.24177 -1.0066621,2.24897 -2.2489549,2.24897 -0.397969,0 -0.771513,-0.10447 -1.095733,-0.28597 l 0.227482,-0.22743 c 0.261479,0.13123 0.555532,0.20687 0.868251,0.20687 1.072759,0 1.9419769,-0.86968 1.9419769,-1.94197 0,-0.28779 -0.06657,-0.55888 -0.179116,-0.80456 z m -1.4665659,0.47722 z m 0,0 z m 0.03129,-0.94848 c -1.072752,0 -1.9419659,0.86973 -1.9419659,1.94246 0,0.28782 0.06656,0.5589 0.179111,0.8045 l 0.327566,0.66669 -0.911357,-0.46357 0.275373,-0.13511 c -0.113504,-0.26812 -0.177199,-0.56272 -0.177199,-0.87251 -4.78e-4,-1.24184 1.00667,-2.24895 2.2484719,-2.24895 0.397971,0 0.77152,0.10436 1.095739,0.28585 l -0.227477,0.22753 c -0.261486,-0.1312 -0.556014,-0.20689 -0.868265,-0.20689 z"
         id="path4-9-9-2-2"
         sodipodi:nodetypes="cccssccsscccccccccccccccccccccccccccsscccccscc"
         style="fill:#eff0f1;fill-opacity:1;stroke-width:0.00478907" />
      <polygon
         points="7,7 7,14 13,14 13,7 16.1,7 10,0 3.9,7 "
         id="polygon4-7-3-6-9"
         style="fill:#bf616a;fill-opacity:1"
         transform="matrix(0.1843419,0,0,0.13540654,6.8751512,292.74957)" />
      <rect
         x="8.1678686"
         y="294.78061"
         width="1.0976685"
         height="0.27081305"
         id="rect6-5-6-1-3"
         style="fill:#eff0f1;fill-opacity:1;stroke-width:0.157392" />
      <rect
         x="8.1678686"
         y="295.18689"
         width="1.0976685"
         height="0.27081305"
         id="rect8-3-06-8-1"
         style="fill:#eff0f1;fill-opacity:1;stroke-width:0.157393" />
    </g>
    <g
       id="22-22-update-medium">
      <rect
         style="opacity:0.003;fill:#000000;fill-opacity:1;stroke:none;stroke-width:0.10795;stroke-miterlimit:4;stroke-dasharray:none;stroke-opacity:1"
         id="rect1396-3-1"
         width="5.8208332"
         height="5.8208332"
         x="11.641666"
         y="291.17914"
         ry="1.2988288e-06" />
      <path
         d="m 15.979213,292.61835 0.911361,0.46356 -0.275377,0.1351 c 0.113504,0.26812 0.177199,0.56271 0.177199,0.87254 0,1.24177 -1.006662,2.24897 -2.248955,2.24897 -0.397969,0 -0.771513,-0.10447 -1.095733,-0.28597 l 0.227482,-0.22743 c 0.261479,0.13123 0.555532,0.20687 0.868251,0.20687 1.072759,0 1.941977,-0.86968 1.941977,-1.94197 0,-0.28779 -0.06657,-0.55888 -0.179116,-0.80456 z m -1.466566,0.47722 z m 0,0 z m 0.03129,-0.94848 c -1.072752,0 -1.941966,0.86973 -1.941966,1.94246 0,0.28782 0.06656,0.5589 0.179111,0.8045 l 0.327566,0.66669 -0.911357,-0.46357 0.275373,-0.13511 c -0.113504,-0.26812 -0.177199,-0.56272 -0.177199,-0.87251 -4.78e-4,-1.24184 1.00667,-2.24895 2.248472,-2.24895 0.397971,0 0.77152,0.10436 1.095739,0.28585 l -0.227477,0.22753 c -0.261486,-0.1312 -0.556014,-0.20689 -0.868265,-0.20689 z"
         id="path4-9-9-7-7"
         sodipodi:nodetypes="cccssccsscccccccccccccccccccccccccccsscccccscc"
         style="fill:#eff0f1;fill-opacity:1;stroke-width:0.00478907" />
      <polygon
         points="10,0 3.9,7 7,7 7,14 13,14 13,7 16.1,7 "
         id="polygon4-7-3-9-3"
         style="fill:#d08770;fill-opacity:1"
         transform="matrix(0.18434191,0,0,0.13540654,12.695984,292.74957)" />
      <rect
         x="13.988702"
         y="294.78064"
         width="1.0976685"
         height="0.27081305"
         id="rect6-5-6-2-6"
         style="fill:#eff0f1;fill-opacity:1;stroke-width:0.157392" />
      <rect
         x="13.988702"
         y="295.18692"
         width="1.0976685"
         height="0.27081305"
         id="rect8-3-06-0-1"
         style="fill:#eff0f1;fill-opacity:1;stroke-width:0.157393" />
    </g>
    <g
       id="22-22-update-low">
      <rect
         style="opacity:0.003;fill:#000000;fill-opacity:1;stroke:none;stroke-width:0.10795;stroke-miterlimit:4;stroke-dasharray:none;stroke-opacity:1"
         id="rect1396-3-2"
         width="5.8208332"
         height="5.8208332"
         x="17.4625"
         y="291.17914"
         ry="1.2988288e-06" />
      <path
         d="m 21.800047,292.61835 0.911361,0.46356 -0.275377,0.1351 c 0.113504,0.26812 0.177199,0.56271 0.177199,0.87254 0,1.24177 -1.006662,2.24897 -2.248955,2.24897 -0.397969,0 -0.771513,-0.10447 -1.095733,-0.28597 l 0.227482,-0.22743 c 0.261479,0.13123 0.555532,0.20687 0.868251,0.20687 1.072759,0 1.941977,-0.86968 1.941977,-1.94197 0,-0.28779 -0.06657,-0.55888 -0.179116,-0.80456 z m -1.466566,0.47722 z m 0,0 z m 0.03129,-0.94848 c -1.072752,0 -1.941966,0.86973 -1.941966,1.94246 0,0.28782 0.06656,0.5589 0.179111,0.8045 l 0.327566,0.66669 -0.911357,-0.46357 0.275373,-0.13511 c -0.113504,-0.26812 -0.177199,-0.56272 -0.177199,-0.87251 -4.78e-4,-1.24184 1.00667,-2.24895 2.248472,-2.24895 0.397971,0 0.77152,0.10436 1.095739,0.28585 l -0.227477,0.22753 c -0.261486,-0.1312 -0.556014,-0.20689 -0.868265,-0.20689 z"
         id="path4-9-9-23"
         sodipodi:nodetypes="cccssccsscccccccccccccccccccccccccccsscccccscc"
         style="fill:#eff0f1;fill-opacity:1;stroke-width:0.00478907" />
      <polygon
         points="13,7 16.1,7 10,0 3.9,7 7,7 7,14 13,14 "
         id="polygon4-7-3-7"
         style="fill:#81a1c1;fill-opacity:1"
         transform="matrix(0.18434191,0,0,0.13540654,18.516818,292.74957)" />
      <rect
         x="19.809534"
         y="294.78064"
         width="1.0976685"
         height="0.27081305"
         id="rect6-5-6-5"
         style="fill:#eff0f1;fill-opacity:1;stroke-width:0.157392" />
      <rect
         x="19.809534"
         y="295.18692"
         width="1.0976685"
         height="0.27081305"
         id="rect8-3-06-9"
         style="fill:#eff0f1;fill-opacity:1;stroke-width:0.157393" />
    </g>
    <g
       id="update-low">
      <rect
         style="opacity:0.003;fill:#000000;fill-opacity:1;stroke:none;stroke-width:0.157018;stroke-miterlimit:4;stroke-dasharray:none;stroke-opacity:1"
         id="rect1396-6-9-1"
         width="8.4666672"
         height="8.46667"
         x="25.4"
         y="296.99997"
         ry="1.8892064e-06" />
      <path
         d="m 31.665205,299.15638 1.286619,0.65436 -0.388757,0.19074 c 0.160236,0.37847 0.250157,0.79441 0.250157,1.23185 0,1.75301 -1.421164,3.17497 -3.174969,3.17497 -0.56184,0 -1.089198,-0.14751 -1.546918,-0.40372 l 0.321147,-0.32107 c 0.369152,0.1852 0.784277,0.29208 1.225771,0.29208 1.514466,0 2.741588,-1.22781 2.741588,-2.74165 0,-0.40625 -0.09398,-0.78904 -0.25286,-1.13579 z m -2.02627,-0.6654 c -1.514466,0 -2.741589,1.22791 -2.741589,2.74235 0,0.40626 0.09398,0.78898 0.252862,1.13573 l 0.462453,0.94116 -1.286619,-0.65445 0.388758,-0.1907 c -0.160237,-0.37858 -0.250158,-0.79442 -0.250158,-1.23174 -6.77e-4,-1.75325 1.421164,-3.17503 3.174293,-3.17503 0.561839,0 1.089199,0.14734 1.546919,0.40357 l -0.321148,0.32121 c -0.369151,-0.18524 -0.784953,-0.2921 -1.225771,-0.2921 z"
         id="path4-9-1-2"
         sodipodi:nodetypes="cccssccssccccccccccccc"
         style="fill:#eff0f1;fill-opacity:1;stroke-width:0.00676095" />
      <polygon
         points="13,14 13,7 16.1,7 10,0 3.9,7 7,7 7,14 "
         id="polygon4-7-2-2"
         style="fill:#81a1c1;fill-opacity:1"
         transform="matrix(0.2602459,0,0,0.19116107,27.030085,299.34155)" />
      <rect
         x="28.855083"
         y="302.20889"
         width="1.5496407"
         height="0.38232213"
         id="rect6-5-7-8"
         style="fill:#eff0f1;fill-opacity:1;stroke-width:0.222197" />
      <rect
         x="28.855083"
         y="302.78241"
         width="1.5496407"
         height="0.38232213"
         id="rect8-3-0-9"
         style="fill:#eff0f1;fill-opacity:1;stroke-width:0.222198" />
    </g>
    <g
       id="update-high">
      <rect
         style="opacity:0.003;fill:#000000;fill-opacity:1;stroke:none;stroke-width:0.157018;stroke-miterlimit:4;stroke-dasharray:none;stroke-opacity:1"
         id="rect1396-6-9"
         width="8.4666672"
         height="8.46667"
         x="8.4666672"
         y="296.99997"
         ry="1.8892064e-06" />
      <path
         d="m 14.731873,299.15638 1.286619,0.65436 -0.388757,0.19074 c 0.160235,0.37847 0.250157,0.79441 0.250157,1.23185 0,1.75301 -1.421164,3.17497 -3.17497,3.17497 -0.561839,0 -1.089198,-0.14751 -1.546917,-0.40372 l 0.321147,-0.32107 c 0.369152,0.1852 0.784277,0.29208 1.22577,0.29208 1.514467,0 2.741589,-1.22781 2.741589,-2.74165 0,-0.40625 -0.09398,-0.78904 -0.252861,-1.13579 z m -2.07043,0.67362 z m 0,0 z m 0.04416,-1.33902 c -1.514466,0 -2.741587,1.22791 -2.741587,2.74235 0,0.40626 0.09398,0.78898 0.25286,1.13573 l 0.462453,0.94116 -1.2866201,-0.65445 0.3887591,-0.1907 c -0.1602371,-0.37858 -0.2501581,-0.79442 -0.2501581,-1.23174 -6.77e-4,-1.75325 1.4211641,-3.17503 3.1742931,-3.17503 0.561839,0 1.089199,0.14734 1.546918,0.40357 l -0.321148,0.32121 c -0.36915,-0.18524 -0.784952,-0.2921 -1.22577,-0.2921 z"
         id="path4-9-36"
         sodipodi:nodetypes="cccssccsscccccccccccccccccccccccccccsscccccscc"
         style="fill:#eff0f1;fill-opacity:1;stroke-width:0.00676095" />
      <polygon
         points="7,7 7,14 13,14 13,7 16.1,7 10,0 3.9,7 "
         id="polygon4-7-7"
         style="fill:#bf616a;fill-opacity:1"
         transform="matrix(0.26024589,0,0,0.19116107,10.096753,299.34155)" />
      <rect
         x="11.921749"
         y="302.20898"
         width="1.5496405"
         height="0.38232213"
         id="rect6-5-5"
         style="fill:#eff0f1;fill-opacity:1;stroke-width:0.222197" />
      <rect
         x="11.921749"
         y="302.7825"
         width="1.5496405"
         height="0.38232213"
         id="rect8-3-3"
         style="fill:#eff0f1;fill-opacity:1;stroke-width:0.222198" />
    </g>
    <g
       id="update-none">
      <rect
         style="opacity:0.003;fill:#000000;fill-opacity:1;stroke:none;stroke-width:0.157018;stroke-miterlimit:4;stroke-dasharray:none;stroke-opacity:1"
         id="rect1396-6"
         width="8.4666672"
         height="8.46667"
         x="0"
         y="297"
         ry="1.8892064e-06" />
      <path
         d="m 6.2652054,299.14316 1.2866189,0.65436 -0.3887572,0.19074 c 0.1602356,0.37847 0.250157,0.79441 0.250157,1.23185 0,1.75301 -1.4211639,3.17497 -3.1749695,3.17497 -0.5618393,0 -1.0891979,-0.14751 -1.5469175,-0.40372 l 0.3211468,-0.32107 c 0.369152,0.1852 0.7842771,0.29208 1.2257707,0.29208 1.5144666,0 2.7415886,-1.22781 2.7415886,-2.74165 0,-0.40625 -0.093983,-0.78904 -0.2528606,-1.13579 z m -2.0704305,0.67362 z m 0,0 z m 0.04416,-1.33902 c -1.5144654,0 -2.7415884,1.22791 -2.7415884,2.74235 0,0.40626 0.093981,0.78898 0.2528617,1.13573 l 0.4624533,0.94116 -1.28661983,-0.65445 0.38875823,-0.1907 c -0.1602367,-0.37858 -0.2501582,-0.79442 -0.2501582,-1.23174 -6.763e-4,-1.75325 1.4211642,-3.17503 3.1742932,-3.17503 0.5618395,0 1.0891994,0.14734 1.5469189,0.40357 l -0.321148,0.32121 c -0.3691506,-0.18524 -0.7849526,-0.2921 -1.2257709,-0.2921 z"
         id="path4-9"
         sodipodi:nodetypes="cccssccsscccccccccccccccccccccccccccsscccccscc"
         style="fill:#eff0f1;fill-opacity:1;stroke-width:0.00676095" />
      <polygon
         points="3.9,7 7,7 7,14 13,14 13,7 16.1,7 10,0 "
         id="polygon4-7"
         style="fill:#eff0f1;fill-opacity:1"
         transform="matrix(0.2602459,0,0,0.19116107,1.6300855,299.32833)" />
      <rect
         x="3.4550841"
         y="302.19574"
         width="1.5496407"
         height="0.38232213"
         id="rect6-5"
         style="fill:#eff0f1;fill-opacity:1;stroke-width:0.222197" />
      <rect
         x="3.4550841"
         y="302.76926"
         width="1.5496407"
         height="0.38232213"
         id="rect8-3"
         style="fill:#eff0f1;fill-opacity:1;stroke-width:0.222198" />
    </g>
    <g
       id="update-medium">
      <rect
         style="opacity:0.003;fill:#000000;fill-opacity:1;stroke:none;stroke-width:0.157018;stroke-miterlimit:4;stroke-dasharray:none;stroke-opacity:1"
         id="rect1396-6-9-5"
         width="8.4666672"
         height="8.46667"
         x="16.933332"
         y="296.99997"
         ry="1.8892064e-06" />
      <path
         d="m 23.198537,299.15638 1.286619,0.65436 -0.388757,0.19074 c 0.160236,0.37847 0.250157,0.79441 0.250157,1.23185 0,1.75301 -1.421164,3.17497 -3.174969,3.17497 -0.56184,0 -1.089198,-0.14751 -1.546918,-0.40372 l 0.321147,-0.32107 c 0.369152,0.1852 0.784277,0.29208 1.225771,0.29208 1.514466,0 2.741588,-1.22781 2.741588,-2.74165 0,-0.40625 -0.09398,-0.78904 -0.25286,-1.13579 z m -2.07043,0.67362 z m 0,0 z m 0.04416,-1.33902 c -1.514466,0 -2.741588,1.22791 -2.741588,2.74235 0,0.40626 0.09398,0.78898 0.252861,1.13573 l 0.462454,0.94116 -1.28662,-0.65445 0.388758,-0.1907 c -0.160237,-0.37858 -0.250158,-0.79442 -0.250158,-1.23174 -6.77e-4,-1.75325 1.421164,-3.17503 3.174293,-3.17503 0.561839,0 1.089199,0.14734 1.546919,0.40357 l -0.321148,0.32121 c -0.369151,-0.18524 -0.784953,-0.2921 -1.225771,-0.2921 z"
         id="path4-9-5"
         sodipodi:nodetypes="cccssccsscccccccccccccccccccccccccccsscccccscc"
         style="fill:#eff0f1;fill-opacity:1;stroke-width:0.00676095" />
      <polygon
         points="16.1,7 10,0 3.9,7 7,7 7,14 13,14 13,7 "
         id="polygon4-7-6"
         style="fill:#d08770;fill-opacity:1"
         transform="matrix(0.2602459,0,0,0.19116107,18.563418,299.34155)" />
      <rect
         x="20.388416"
         y="302.20898"
         width="1.5496407"
         height="0.38232213"
         id="rect6-5-2"
         style="fill:#eff0f1;fill-opacity:1;stroke-width:0.222197" />
      <rect
         x="20.388416"
         y="302.7825"
         width="1.5496407"
         height="0.38232213"
         id="rect8-3-9"
         style="fill:#eff0f1;fill-opacity:1;stroke-width:0.222198" />
    </g>
  </g>
</svg>
