<?xml version="1.0" encoding="UTF-8" standalone="no"?>
<svg
   width="64"
   version="1.1"
   height="64"
   id="svg15"
   sodipodi:docname="folder-Arch.svg"
   inkscape:version="1.2.1 (9c6d41e410, 2022-07-14)"
   xmlns:inkscape="http://www.inkscape.org/namespaces/inkscape"
   xmlns:sodipodi="http://sodipodi.sourceforge.net/DTD/sodipodi-0.dtd"
   xmlns:xlink="http://www.w3.org/1999/xlink"
   xmlns="http://www.w3.org/2000/svg"
   xmlns:svg="http://www.w3.org/2000/svg"
   xmlns:rdf="http://www.w3.org/1999/02/22-rdf-syntax-ns#"
   xmlns:cc="http://creativecommons.org/ns#"
   xmlns:dc="http://purl.org/dc/elements/1.1/">
  <sodipodi:namedview
     pagecolor="#ffffff"
     bordercolor="#666666"
     borderopacity="1"
     objecttolerance="10"
     gridtolerance="10"
     guidetolerance="10"
     inkscape:pageopacity="0"
     inkscape:pageshadow="2"
     inkscape:window-width="1920"
     inkscape:window-height="1002"
     id="namedview17"
     showgrid="true"
     inkscape:zoom="4.90625"
     inkscape:cx="4.7898089"
     inkscape:cy="38.420382"
     inkscape:window-x="0"
     inkscape:window-y="0"
     inkscape:window-maximized="1"
     inkscape:current-layer="layer1"
     inkscape:document-rotation="0"
     showguides="false"
     inkscape:showpageshadow="2"
     inkscape:pagecheckerboard="0"
     inkscape:deskcolor="#d1d1d1">
    <inkscape:grid
       type="xygrid"
       id="grid919" />
  </sodipodi:namedview>
  <defs
     id="defs5455">
    <linearGradient
       inkscape:collect="always"
       id="linearGradient843">
      <stop
         style="stop-color:#434c5e;stop-opacity:1"
         offset="0"
         id="stop839" />
      <stop
         style="stop-color:#a2adbc;stop-opacity:1"
         offset="1"
         id="stop841" />
    </linearGradient>
    <linearGradient
       inkscape:collect="always"
       xlink:href="#linearGradient847"
       id="linearGradient859"
       x1="197.81151"
       y1="281.25015"
       x2="486.28662"
       y2="281.25015"
       gradientUnits="userSpaceOnUse"
       gradientTransform="matrix(0.12132762,0,0,0.12349046,385.57143,484.06629)" />
    <linearGradient
       inkscape:collect="always"
       id="linearGradient847">
      <stop
         style="stop-color:#8fbcbb;stop-opacity:1"
         offset="0"
         id="stop843" />
      <stop
         style="stop-color:#88c0d0;stop-opacity:1"
         offset="1"
         id="stop845" />
    </linearGradient>
    <linearGradient
       inkscape:collect="always"
       xlink:href="#linearGradient843"
       id="linearGradient845"
       x1="424.10419"
       y1="503.78211"
       x2="443.6132"
       y2="503.78211"
       gradientUnits="userSpaceOnUse" />
  </defs>
  <metadata
     id="metadata5458">
    <rdf:RDF>
      <cc:Work
         rdf:about="">
        <dc:format>image/svg+xml</dc:format>
        <dc:type
           rdf:resource="http://purl.org/dc/dcmitype/StillImage" />
      </cc:Work>
    </rdf:RDF>
  </metadata>
  <g
     inkscape:label="Capa 1"
     inkscape:groupmode="layer"
     id="layer1"
     transform="translate(-384.57143,-483.798)">
    <path
       style="fill:#81a1c1;fill-opacity:1;stroke-width:0.122405"
       d="m 418.27991,496.76498 c 1.00234,1.00832 2.35492,1.57376 3.76434,1.57376 h 2.08431 5.41297 c -1.40942,0 -2.76196,-0.56544 -3.76434,-1.57376 l -3.37309,-3.39306 c -1.00265,-1.00849 -2.35506,-1.57392 -3.76429,-1.57392 h -7.49732 c 1.40923,0 2.76181,0.56543 3.76434,1.57392 z"
       id="path2" />
    <path
       style="fill:#5e81ac;fill-opacity:1;stroke-width:0.122405"
       d="m 407.40937,493.37192 3.37327,3.39306 c 1.00233,1.00832 2.35487,1.57376 3.76429,1.57376 h 2.08436 5.41296 c -1.40942,0 -2.762,-0.56544 -3.76434,-1.57376 l -3.37308,-3.39306 c -1.00265,-1.00849 -2.35511,-1.57392 -3.76434,-1.57392 h -7.36358 -0.13375 c 1.40942,0 2.76182,0.56556 3.76421,1.57392 z"
       id="path4" />
    <path
       style="fill:url(#linearGradient859);fill-opacity:1;stroke-width:0.114828"
       d="m 444.47801,497.55407 h -12.85238 -2.08437 -5.41295 -2.08431 -5.41271 -2.08436 c -1.40942,0 -2.76196,-0.4976 -3.76429,-1.38504 l -3.37327,-2.98601 c -1.00251,-0.88742 -2.35492,-1.38502 -3.76432,-1.38502 h -7.36334 -7.49714 c -1.7745,0 -3.21314,1.28851 -3.21314,2.87804 v 5.75606 0.95938 35.49546 c 0,1.58953 1.43864,2.87804 3.21314,2.87804 h 55.69344 c 1.7745,0 3.21314,-1.28851 3.21314,-2.87804 V 500.4321 c 0,-1.58964 -1.43864,-2.87803 -3.21314,-2.87803 z m -20.34958,5.75596 v 0 0 0 z m 19.27871,0.95937 c 0,1.05956 -0.959,1.91865 -2.14214,1.91865 h -14.99442 c -1.18314,0 -2.14215,-0.85909 -2.14215,-1.91865 v -0.95937 c 0,-1.05956 0.95901,-1.91865 2.14215,-1.91865 h 14.99429 c 1.18315,0 2.14214,0.85909 2.14214,1.91865 v 0.95937 z"
       id="path6"
       sodipodi:nodetypes="scccccsccscssccssssssccccccccccssssssscc" />
    <path
       style="opacity:1;fill:url(#linearGradient845);fill-opacity:1;stroke-width:0.122405"
       d="m 441.26487,501.05685 h -14.99429 c -1.18314,0 -2.16639,0.97609 -2.16639,2.18013 v 1.09026 c 0,1.20403 0.98325,2.18014 2.16639,2.18014 h 14.99429 c 1.18315,0 2.29726,-0.97643 2.32413,-2.18014 l 0.0242,-1.09026 c 1.2e-4,-1.20404 -1.16511,-2.18013 -2.34837,-2.18013 z"
       id="path8"
       sodipodi:nodetypes="ssssssscs" />
    <g
       id="start-here-kde-3"
       transform="matrix(0.12034545,0,0,0.12034545,393.33008,512.46647)"
       inkscape:label="#start-here-kde"
       style="fill:#434c5e;fill-opacity:1">
      <g
         id="22-22-start-here-kde-3-7-2-6"
         style="fill:#434c5e;fill-opacity:1">
        <g
           transform="translate(-50.6,-139.51)"
           id="g6-5-9-1"
           style="fill:#434c5e;fill-opacity:1">
          <g
             transform="matrix(0.87464,0,0,0.87464,14.731,23.409)"
             id="g4-3-1-2"
             style="fill:#434c5e;fill-opacity:1">
            <path
               transform="matrix(1.1433,0,0,1.1433,22.92,121.64)"
               d="M 105.81,16.625 C 98.4131,34.76 93.952,46.623 85.716,64.219 90.7654,69.5713 96.963,75.804 107.028,82.844 96.207,78.3912 88.825,73.9206 83.309,69.282 c -10.54,21.993 -27.053,53.321 -60.562,113.53 26.338,-15.205 46.754,-24.579 65.781,-28.156 -0.81703,-3.514 -1.2816,-7.3152 -1.25,-11.281 l 0.03125,-0.84375 c 0.41792,-16.874 9.1957,-29.85 19.594,-28.969 10.398,0.88104 18.48,15.282 18.062,32.156 -0.0786,3.1751 -0.43674,6.2296 -1.0625,9.0625 18.821,3.6816 39.019,13.032 65,28.031 -5.123,-9.4318 -9.6957,-17.934 -14.062,-26.031 -6.8784,-5.3312 -14.053,-12.27 -28.688,-19.781 10.059,2.6138 17.261,5.6293 22.875,9 -44.398,-82.662 -47.994,-93.646 -63.219,-129.38 z"
               id="path2-5-2-9"
               style="fill:#434c5e;fill-opacity:1" />
          </g>
        </g>
      </g>
    </g>
  </g>
</svg>
