<?xml version="1.0" encoding="UTF-8" standalone="no"?>
<svg
   xmlns:dc="http://purl.org/dc/elements/1.1/"
   xmlns:cc="http://creativecommons.org/ns#"
   xmlns:rdf="http://www.w3.org/1999/02/22-rdf-syntax-ns#"
   xmlns:svg="http://www.w3.org/2000/svg"
   xmlns="http://www.w3.org/2000/svg"
   xmlns:xlink="http://www.w3.org/1999/xlink"
   xmlns:sodipodi="http://sodipodi.sourceforge.net/DTD/sodipodi-0.dtd"
   xmlns:inkscape="http://www.inkscape.org/namespaces/inkscape"
   width="32"
   height="32"
   version="1.1"
   id="svg12"
   sodipodi:docname="akregator.svg"
   inkscape:version="1.0.2 (e86c870879, 2021-01-15)">
  <metadata
     id="metadata18">
    <rdf:RDF>
      <cc:Work
         rdf:about="">
        <dc:format>image/svg+xml</dc:format>
        <dc:type
           rdf:resource="http://purl.org/dc/dcmitype/StillImage" />
        <dc:title></dc:title>
      </cc:Work>
    </rdf:RDF>
  </metadata>
  <defs
     id="defs16">
    <linearGradient
       inkscape:collect="always"
       xlink:href="#linearGradient855"
       id="linearGradient873"
       x1="3.0619521"
       y1="16.631489"
       x2="8.1415768"
       y2="16.631489"
       gradientUnits="userSpaceOnUse"
       gradientTransform="matrix(1.3750003,0,0,1.3750003,-31.210187,-9.3848437)" />
    <linearGradient
       inkscape:collect="always"
       id="linearGradient855">
      <stop
         style="stop-color:#00cccc;stop-opacity:1"
         offset="0"
         id="stop851" />
      <stop
         style="stop-color:#008080;stop-opacity:1"
         offset="1"
         id="stop853" />
    </linearGradient>
  </defs>
  <sodipodi:namedview
     pagecolor="#ffffff"
     bordercolor="#000000"
     borderopacity="1"
     objecttolerance="10"
     gridtolerance="10"
     guidetolerance="10"
     inkscape:pageopacity="0"
     inkscape:pageshadow="2"
     inkscape:window-width="1920"
     inkscape:window-height="1007"
     id="namedview14"
     showgrid="false"
     inkscape:zoom="8"
     inkscape:cx="46.193875"
     inkscape:cy="20.447041"
     inkscape:window-x="0"
     inkscape:window-y="0"
     inkscape:window-maximized="1"
     inkscape:current-layer="svg12"
     inkscape:document-rotation="0"
     inkscape:lockguides="false"
     inkscape:showpageshadow="false">
    <inkscape:grid
       type="xygrid"
       id="grid894"
       originx="0"
       originy="-2.779541e-07" />
  </sodipodi:namedview>
  <g
     id="akregator">
    <rect
       style="opacity:0.00100002"
       width="32"
       height="32"
       x="0"
       y="0"
       id="rect7" />
    <path
       d="m 26.635906,24.546541 c -0.87405,0 -1.58106,-0.704627 -1.58106,-1.575741 0,-8.722703 -7.120581,-15.8193259 -15.872708,-15.8193259 -0.87405,0 -1.581061,-0.7046277 -1.581061,-1.5757359 0,-0.8711085 0.703137,-1.5757386 1.577165,-1.5757386 10.496346,0 19.034829,8.5097574 19.034829,18.9708004 0.0025,0.871114 -0.703111,1.575741 -1.577165,1.575741 z M 7.601077,5.5757382 l -0.0015,0.00257 -9.96e-4,0.00248 0.0033,0.00141 -5.76e-4,-0.00669 v 0 0 z M 4,23.447002 C 4,25.959675 6.04721,28 8.568364,28 c 2.521132,0 4.568354,-2.040325 4.568354,-4.552998 0,-2.512654 -2.047222,-4.552991 -4.568354,-4.552991 C 6.043324,18.894011 4,20.934348 4,23.447002 Z m 17.989865,1.025969 c -0.652641,0 -1.180941,-0.526538 -1.180941,-1.176962 0,-6.61268 -5.39968,-11.998059 -12.038558,-11.998059 -0.65262,0 -1.180935,-0.52654 -1.180935,-1.176965 0,-0.6504261 0.528315,-1.1769625 1.180935,-1.1769625 7.940237,0.00395 14.396531,6.4384575 14.396531,14.3481265 0,0.654284 -0.524419,1.180822 -1.177032,1.180822 z m -4.560605,0 c -0.652611,0 -1.180935,-0.526538 -1.180935,-1.176962 0,-4.107758 -3.352463,-7.448934 -7.474073,-7.448934 -0.652626,0 -1.180935,-0.526531 -1.180935,-1.176963 0,-0.65043 0.528309,-1.176962 1.180935,-1.176962 5.422984,0 9.832072,4.398122 9.832072,9.798999 0,0.654284 -0.524442,1.180822 -1.177064,1.180822 z"
       id="path4"
       style="fill:#eff0f1;fill-opacity:1;stroke-width:0.0387804"
       sodipodi:nodetypes="ccccsccsssscscscccccscccssscsssssc" />
  </g>
  <g
     id="22-22-akregator"
     transform="translate(32,10.000006)">
    <rect
       style="opacity:0.00100002"
       width="22"
       height="22"
       x="0"
       y="-2.7795411e-07"
       id="rect2" />
    <path
       d="m 15.138779,17.72163 c -0.212246,0 -0.419597,-0.101224 -0.548576,-0.288974 -0.207347,-0.303677 -0.130608,-0.716735 0.173064,-0.922454 1.173877,-0.803263 2.076735,-1.98367 2.540405,-3.320814 0.120824,-0.347756 0.501229,-0.527347 0.845718,-0.409793 0.347754,0.119182 0.530611,0.499587 0.409792,0.845709 -0.555101,1.603265 -1.637548,3.017143 -3.044895,3.980411 -0.115918,0.08 -0.246526,0.115915 -0.375508,0.115915 z m 3.196728,-6.057135 c -0.367341,0 -0.664485,-0.297151 -0.664485,-0.664495 0,-3.678367 -2.992654,-6.67102 -6.671022,-6.67102 -0.367344,0 -0.664495,-0.297145 -0.664495,-0.664485 C 10.335505,3.297144 10.63102,3 10.998367,3 c 4.411432,0 8.000002,3.58857 8.000002,8 0.0018,0.367344 -0.295512,0.664495 -0.662862,0.664495 z M 11,19 C 6.58857,19 3,15.411431 3,11 3,7.667761 5.099595,4.652241 8.221223,3.49633 8.565714,3.370612 8.947759,3.54367 9.0751,3.889798 9.202447,4.234286 9.02773,4.61633 8.681632,4.743671 6.077553,5.706939 4.327344,8.221223 4.327344,11 c 0,3.678367 2.992656,6.671022 6.671023,6.671022 0.367346,0 0.664489,0.298772 0.664489,0.664485 C 11.664656,18.70286 11.367344,19 11,19 Z M 8.822041,11.200818 c 0,1.059586 0.860406,1.92 1.92,1.92 1.059592,0 1.92,-0.860414 1.92,-1.92 0,-1.059595 -0.860408,-1.92 -1.92,-1.92 -1.061223,0 -1.92,0.860405 -1.92,1.92 z m 7.560817,0.43265 c -0.274287,0 -0.496324,-0.222037 -0.496324,-0.496324 0,-2.788575 -2.26939,-5.059591 -5.059595,-5.059591 -0.274283,0 -0.496327,-0.222048 -0.496327,-0.49633 0,-0.274284 0.222044,-0.496324 0.496327,-0.496324 3.33714,0.0018 6.050614,2.715101 6.050614,6.050606 0,0.275926 -0.220409,0.497963 -0.494695,0.497963 z m -1.916737,0 c -0.274286,0 -0.496324,-0.222037 -0.496324,-0.496324 0,-1.732245 -1.408979,-3.141225 -3.141227,-3.141225 -0.274284,0 -0.496329,-0.222041 -0.496329,-0.496324 0,-0.274291 0.222045,-0.496329 0.496329,-0.496329 2.279189,0 4.132248,1.854693 4.132248,4.132239 0,0.275926 -0.220411,0.497963 -0.494697,0.497963 z"
       id="path4-3"
       style="fill:#eff0f1;stroke-width:0.0163266;fill-opacity:1" />
  </g>
</svg>
