<?xml version="1.0" encoding="UTF-8" standalone="no"?>
<svg
   xmlns:dc="http://purl.org/dc/elements/1.1/"
   xmlns:cc="http://creativecommons.org/ns#"
   xmlns:rdf="http://www.w3.org/1999/02/22-rdf-syntax-ns#"
   xmlns:svg="http://www.w3.org/2000/svg"
   xmlns="http://www.w3.org/2000/svg"
   xmlns:sodipodi="http://sodipodi.sourceforge.net/DTD/sodipodi-0.dtd"
   xmlns:inkscape="http://www.inkscape.org/namespaces/inkscape"
   id="svg7384"
   width="22"
   height="22"
   enable-background="new"
   inkscape:version="1.0.2 (e86c870879, 2021-01-15)"
   sodipodi:docname="disk.svg"
   version="1.1">
  <metadata
     id="metadata32">
    <rdf:RDF>
      <cc:Work
         rdf:about="">
        <dc:format>image/svg+xml</dc:format>
        <dc:type
           rdf:resource="http://purl.org/dc/dcmitype/StillImage" />
        <dc:title />
      </cc:Work>
    </rdf:RDF>
  </metadata>
  <sodipodi:namedview
     id="namedview10"
     bordercolor="#000000"
     borderopacity="1"
     gridtolerance="10"
     guidetolerance="10"
     inkscape:bbox-nodes="true"
     inkscape:current-layer="svg7384"
     inkscape:cx="49.894798"
     inkscape:cy="16.405471"
     inkscape:pageopacity="0"
     inkscape:pageshadow="2"
     inkscape:snap-bbox="true"
     inkscape:snap-bbox-edge-midpoints="true"
     inkscape:window-height="1004"
     inkscape:window-maximized="1"
     inkscape:window-width="1920"
     inkscape:window-x="0"
     inkscape:window-y="0"
     inkscape:zoom="5.656854"
     objecttolerance="10"
     pagecolor="#ffffff"
     showgrid="false"
     inkscape:document-rotation="0"
     inkscape:lockguides="false">
    <inkscape:grid
       id="grid39"
       type="xygrid"
       originx="0"
       originy="0" />
  </sodipodi:namedview>
  <defs
     id="defs7386">
    <style
       id="current-color-scheme"
       type="text/css">.ColorScheme-Text { color:#dedede; } .ColorScheme-Highlight { color:#5294e2; } .ColorScheme-ButtonBackground { color:#dedede; }</style>
  </defs>
  <g
     id="g23"
     fill="#dedede" />
  <g
     id="disk-quota">
    <path
       id="path19"
       d="M 0,0 H 22 V 22 H 0 Z"
       opacity="0"
       inkscape:connector-curvature="0" />
    <path
       d="M 15.6407,3 H 6.253489 C 5.5915703,3 5.05,3.6 5.05,4.3333329 V 17.666664 C 5.05,18.4 5.5915703,19 6.253489,19 H 15.6407 c 0.661919,0 1.20349,-0.6 1.20349,-1.333336 V 4.3333329 C 16.84419,3.6 16.302619,3 15.6407,3 Z m 0.601745,14.666664 c 0,0.366665 -0.270786,0.666665 -0.601745,0.666665 H 6.253489 c -0.3309594,0 -0.6017445,-0.3 -0.6017445,-0.666665 V 4.3333329 c 0,-0.3666665 0.2707851,-0.6666664 0.6017445,-0.6666664 H 15.6407 c 0.330959,0 0.601745,0.2999999 0.601745,0.6666664 z"
       id="path2"
       style="fill:#eff0f1;fill-opacity:1;stroke-width:0.316688" />
    <path
       d="m 11.05,7.375 c -1.9391893,0 -3.5,1.5608107 -3.5,3.5 0,1.939179 1.5608107,3.5 3.5,3.5 1.939179,0 3.5,-1.560821 3.5,-3.5 0,-1.9391893 -1.560821,-3.5 -3.5,-3.5 z m 0,6.216 c -0.710664,0 -1.2285535,-0.185758 -1.679222,-0.527345 C 8.7566721,12.598191 8.334,11.843393 8.334,10.875 8.334,9.983234 8.700291,9.3601598 9.2261471,8.8897983 9.6903895,8.4745497 10.262718,8.236778 11.05,8.236778 c 0.715719,0 1.173235,0.2065638 1.625026,0.5528135 0.608096,0.4660365 1.013194,1.12208 1.013194,2.0854085 0,0.745144 -0.287797,1.369778 -0.672,1.831401 C 12.5469,13.270317 11.973265,13.591 11.05,13.591 Z"
       id="path4"
       style="fill:#eff0f1;fill-opacity:1;stroke-width:0.236495"
       sodipodi:nodetypes="ssssssssssssss" />
    <path
       d="m 11,9.75 c -0.656618,0 -1.175,0.518382 -1.175,1.175 0,0.656618 0.518382,1.175 1.175,1.175 0.656618,0 1.175,-0.518382 1.175,-1.175 C 12.175,10.268382 11.656618,9.75 11,9.75 Z m 0.016,1.175 z"
       id="path6"
       style="fill:#eff0f1;fill-opacity:1;stroke-width:0.345588"
       sodipodi:nodetypes="ssssscccc" />
    <path
       d="m 7.925,16.25 h 6.15 C 14.3,16.25 14.45,16.1 14.45,15.875 14.45,15.65 14.3,15.5 14.075,15.5 H 7.925 C 7.7,15.5 7.55,15.65 7.55,15.875 7.55,16.1 7.7,16.25 7.925,16.25 Z"
       id="path10"
       style="fill:#eff0f1;fill-opacity:1;stroke-width:0.375" />
  </g>
  <g
     id="disk-quota-high">
    <path
       id="path19-6-0"
       d="m 59.094317,0.0324236 h 22 V 22.032424 h -22 z"
       opacity="0"
       inkscape:connector-curvature="0" />
    <path
       d="m 74.735017,3.0324236 h -9.387213 c -0.661919,0 -1.203487,0.6 -1.203487,1.333333 V 17.699085 c 0,0.733339 0.541569,1.333339 1.203487,1.333339 h 9.387213 c 0.661918,0 1.203487,-0.6 1.203487,-1.333339 V 4.3657566 c 0,-0.733333 -0.541569,-1.333333 -1.203487,-1.333333 z m 0.60174,14.6666614 c 0,0.366669 -0.270781,0.666669 -0.60174,0.666669 h -9.387213 c -0.33096,0 -0.601745,-0.3 -0.601745,-0.666669 V 4.3657566 c 0,-0.3666669 0.270785,-0.6666669 0.601745,-0.6666669 h 9.387213 c 0.330959,0 0.60174,0.3 0.60174,0.6666669 z"
       id="path2-7-9"
       style="fill:#eff0f1;fill-opacity:1;stroke-width:0.316685" />
    <path
       d="m 70.144317,7.4074236 c -1.939188,0 -3.5,1.5608104 -3.5,3.5000004 0,1.939182 1.560812,3.5 3.5,3.5 1.939182,0 3.5,-1.560818 3.5,-3.5 0,-1.93919 -1.560818,-3.5000004 -3.5,-3.5000004 z m 0,6.2934484 c -0.885098,0 -1.535445,-0.309666 -2.026357,-0.848464 -0.44036,-0.483326 -0.767665,-1.151027 -0.767665,-1.944984 0,-0.9516366 0.436308,-1.7218541 1.05233,-2.2106026 0.470876,-0.3735913 1.014276,-0.5827274 1.741692,-0.5827274 0.901105,0 1.562202,0.3209331 2.053083,0.8778617 0.423801,0.4808119 0.740445,1.1375203 0.740445,1.9154683 0,0.898683 -0.4064,1.644894 -0.975332,2.139322 -0.479058,0.416322 -1.050668,0.654126 -1.818196,0.654126 z"
       id="path4-5-3"
       style="fill:#daa190;fill-opacity:1;stroke-width:0.236494"
       sodipodi:nodetypes="ssssssssssssss" />
    <path
       d="m 70.094317,9.7824236 c -0.656618,0 -1.175,0.5183824 -1.175,1.1750004 0,0.656618 0.518382,1.175 1.175,1.175 0.656618,0 1.175,-0.518382 1.175,-1.175 0,-0.656618 -0.518382,-1.1750004 -1.175,-1.1750004 z m 0,1.6588244 c -0.27647,0 -0.483824,-0.207354 -0.483824,-0.483824 0,-0.27647 0.207354,-0.483824 0.483824,-0.483824 0.27647,0 0.483824,0.207354 0.483824,0.483824 0,0.27647 -0.207354,0.483824 -0.483824,0.483824 z"
       id="path6-3-6"
       style="fill:#daa190;fill-opacity:1;stroke-width:0.345588" />
    <path
       d="m 67.019317,16.282424 h 6.15 c 0.225,0 0.375,-0.15 0.375,-0.375 0,-0.225 -0.15,-0.375 -0.375,-0.375 h -6.15 c -0.225,0 -0.375,0.15 -0.375,0.375 0,0.225 0.15,0.375 0.375,0.375 z"
       id="path10-6-6"
       style="fill:#daa190;fill-opacity:1;stroke-width:0.375" />
  </g>
  <g
     id="disk-quota-critical">
    <path
       id="path19-6-0-9"
       d="M 86.056461,0.07996173 H 108.05646 V 22.079962 H 86.056461 Z"
       opacity="0"
       inkscape:connector-curvature="0" />
    <path
       d="m 101.69718,3.0799617 h -9.387233 c -0.661919,0 -1.203486,0.6 -1.203486,1.3333328 V 17.746622 c 0,0.73334 0.541567,1.33334 1.203486,1.33334 h 9.387233 c 0.66188,0 1.20345,-0.6 1.20345,-1.33334 V 4.4132945 c 0,-0.7333328 -0.54157,-1.3333328 -1.20345,-1.3333328 z m 0.60165,14.6666603 c 0,0.366668 -0.2707,0.666668 -0.60165,0.666668 h -9.387233 c -0.330961,0 -0.601744,-0.3 -0.601744,-0.666668 V 4.4132945 c 0,-0.3666668 0.270783,-0.6666658 0.601744,-0.6666658 h 9.387233 c 0.33095,0 0.60165,0.299999 0.60165,0.6666658 z"
       id="path2-7-9-2"
       style="fill:#eff0f1;fill-opacity:1;stroke-width:0.316683" />
    <path
       d="m 97.106461,7.4549617 c -1.939186,0 -3.5,1.5608104 -3.5,3.5000003 0,1.939179 1.560814,3.5 3.5,3.5 1.939179,0 3.499999,-1.560821 3.499999,-3.5 0,-1.9391899 -1.56082,-3.5000003 -3.499999,-3.5000003 z m 0,6.2938043 c -0.818141,0 -1.424185,-0.26467 -1.910581,-0.730327 -0.511815,-0.490005 -0.88278,-1.202568 -0.88278,-2.063477 0,-0.896235 0.39518,-1.6316694 0.94656,-2.1226208 0.481611,-0.4288273 1.063974,-0.6711272 1.846801,-0.6711272 0.828625,0 1.441812,0.2714821 1.929305,0.7483008 0.500334,0.4893653 0.864094,1.1950172 0.864094,2.0454472 0,0.814513 -0.347215,1.503862 -0.821318,1.994035 -0.489444,0.506033 -1.119177,0.799769 -1.972081,0.799769 z"
       id="path4-5-3-0"
       style="fill:#cc0052;fill-opacity:1;stroke-width:0.236495"
       sodipodi:nodetypes="ssssssssssssss" />
    <path
       d="m 97.056461,9.8299617 c -0.656618,0 -1.175,0.5183823 -1.175,1.1750003 0,0.656618 0.518382,1.175 1.175,1.175 0.656618,0 1.175,-0.518382 1.175,-1.175 0,-0.656618 -0.518382,-1.1750003 -1.175,-1.1750003 z m 0,1.6588243 c -0.27647,0 -0.483824,-0.207354 -0.483824,-0.483824 0,-0.27647 0.207354,-0.483824 0.483824,-0.483824 0.27647,0 0.483824,0.207354 0.483824,0.483824 0,0.27647 -0.207354,0.483824 -0.483824,0.483824 z"
       id="path6-3-6-2"
       style="fill:#cc0052;fill-opacity:1;stroke-width:0.345588" />
    <path
       d="m 93.981461,16.329962 h 6.149999 c 0.225,0 0.375,-0.15 0.375,-0.375 0,-0.225 -0.15,-0.375 -0.375,-0.375 h -6.149999 c -0.225,0 -0.375,0.15 -0.375,0.375 0,0.225 0.15,0.375 0.375,0.375 z"
       id="path10-6-6-7"
       style="fill:#cb0051;fill-opacity:1;stroke-width:0.375" />
  </g>
  <g
     id="disk-quota-low">
    <path
       id="path19-6"
       d="m 32.063,0.031 h 22 v 22 h -22 z"
       opacity="0"
       inkscape:connector-curvature="0" />
    <path
       d="M 47.703699,3.031 H 38.316491 C 37.654572,3.031 37.113,3.631 37.113,4.3643332 V 17.697668 c 0,0.733332 0.541572,1.333332 1.203491,1.333332 h 9.387208 c 0.661919,0 1.203494,-0.6 1.203494,-1.333332 V 4.3643332 C 48.907193,3.631 48.365618,3.031 47.703699,3.031 Z m 0.601749,14.666668 c 0,0.366664 -0.270787,0.666664 -0.601749,0.666664 h -9.387208 c -0.330964,0 -0.601749,-0.3 -0.601749,-0.666664 V 4.3643332 c 0,-0.3666664 0.270785,-0.6666664 0.601749,-0.6666664 h 9.387208 c 0.330962,0 0.601749,0.3 0.601749,0.6666664 z"
       id="path2-7"
       style="fill:#eff0f1;fill-opacity:1;stroke-width:0.316685" />
    <path
       d="m 43.113,7.406 c -1.93919,0 -3.5,1.5608107 -3.5,3.5 0,1.939184 1.56081,3.5 3.5,3.5 1.939184,0 3.5,-1.560816 3.5,-3.5 0,-1.9391893 -1.560816,-3.5 -3.5,-3.5 z m 0,6.29378 c -0.845934,0 -1.543856,-0.345977 -2.032913,-0.861082 C 40.598434,12.331394 40.31922,11.739123 40.31922,10.906 c 0,-0.969198 0.517981,-1.7615083 1.147223,-2.2582103 0.460868,-0.3637931 0.909237,-0.5690117 1.619097,-0.5690117 0.883333,0 1.553961,0.3300126 2.06524,0.8872871 0.460565,0.5020002 0.806553,1.1884169 0.806553,1.9841379 0,0.823764 -0.261877,1.36693 -0.758703,1.866422 -0.501579,0.504268 -1.24211,0.883155 -2.08563,0.883155 z"
       id="path4-5"
       style="fill:#ebcb8b;fill-opacity:1;stroke-width:0.236497"
       sodipodi:nodetypes="ssssssssssssss" />
    <path
       d="m 43.063,9.781 c -0.656618,0 -1.175,0.518382 -1.175,1.175 0,0.656618 0.518382,1.175 1.175,1.175 0.656618,0 1.175,-0.518382 1.175,-1.175 0,-0.656618 -0.518382,-1.175 -1.175,-1.175 z m 0,1.658824 c -0.27647,0 -0.483824,-0.207354 -0.483824,-0.483824 0,-0.27647 0.207354,-0.483824 0.483824,-0.483824 0.27647,0 0.483824,0.207354 0.483824,0.483824 0,0.27647 -0.207354,0.483824 -0.483824,0.483824 z"
       id="path6-3"
       style="fill:#ebcb8b;fill-opacity:1;stroke-width:0.345588" />
    <path
       d="m 39.988,16.281 h 6.15 c 0.225,0 0.375,-0.15 0.375,-0.375 0,-0.225 -0.15,-0.375 -0.375,-0.375 h -6.15 c -0.225,0 -0.375,0.15 -0.375,0.375 0,0.225 0.15,0.375 0.375,0.375 z"
       id="path10-6"
       style="fill:#ebcb8b;fill-opacity:1;stroke-width:0.375" />
  </g>
</svg>
