<?xml version="1.0" encoding="UTF-8" standalone="no"?>
<svg
   xmlns:dc="http://purl.org/dc/elements/1.1/"
   xmlns:cc="http://creativecommons.org/ns#"
   xmlns:rdf="http://www.w3.org/1999/02/22-rdf-syntax-ns#"
   xmlns:svg="http://www.w3.org/2000/svg"
   xmlns="http://www.w3.org/2000/svg"
   xmlns:sodipodi="http://sodipodi.sourceforge.net/DTD/sodipodi-0.dtd"
   xmlns:inkscape="http://www.inkscape.org/namespaces/inkscape"
   width="32"
   height="32"
   version="1.1"
   id="svg32"
   sodipodi:docname="kalarm.svg"
   inkscape:version="1.0.2 (e86c870879, 2021-01-15)">
  <g
     id="22-22-kalarm-disabled"
     transform="translate(32,-22)">
    <rect
       style="opacity:0.00100002"
       width="22"
       height="22"
       x="0"
       y="0"
       id="rect7" />
    <path
       d="m 3.5058448,11.439921 a 7.4906439,7.4906439 0 0 0 0.32268,2.247202 0.57620345,0.57620345 0 0 0 0.77212,0.386054 v 0 a 0.57620345,0.57620345 0 0 0 0.33995,-0.685678 6.3382379,6.3382379 0 1 1 12.2731452,-0.628068 6.2575671,6.2575671 0 0 1 -2.88102,4.148665 6.3958603,6.3958603 0 0 1 -6.1135252,0.305382 0.57620345,0.57620345 0 0 0 -0.72602,0.23625 v 0 a 0.57620345,0.57620345 0 0 0 0.25354,0.818213 A 7.4906439,7.4906439 0 1 0 9.959325,4.0875718 7.5425009,7.5425009 0 0 0 3.5058448,11.439921 Z"
       id="path6-6-0-0-2"
       style="fill:#bf616a;fill-opacity:1;stroke-width:0.576213" />
    <path
       d="m 2.8293148,7.7465728 a 0.57134889,0.57458571 0 0 0 0.74847,-0.258567 8.3188339,8.3659634 0 0 1 3.16527,-3.206182 0.57579725,0.57905928 0 1 0 -0.57135,-1.005529 9.4443934,9.4978976 0 0 0 -3.59378,3.660114 0.57134889,0.57458571 0 0 0 0.25139,0.810164 z"
       id="path10-9-6-0"
       style="fill:#bf616a;fill-opacity:1;stroke-width:0.572977" />
    <path
       d="m 14.853309,3.5293184 a 0.57458571,0.57134889 0 0 0 0.25856,0.748467 8.3659634,8.3188339 0 0 1 3.2062,3.165265 0.57905834,0.57579625 0 1 0 1.00552,-0.571348 9.4978976,9.4443934 0 0 0 -3.66011,-3.593775 0.57458571,0.57134889 0 0 0 -0.81017,0.251391 z"
       id="path10-7-3-2-2"
       style="fill:#bf616a;fill-opacity:1;stroke-width:0.572977" />
    <path
       d="M 11.57269,11.797173 V 7.1875428 a 0.57620348,0.57620348 0 1 0 -1.1524,0 v 4.6096302 a 0.57620348,0.57620348 0 0 0 1.1524,0 z"
       id="path4-3-7-6-3"
       style="fill:#bf616a;fill-opacity:1;stroke-width:0.576213" />
  </g>
  <metadata
     id="metadata38">
    <rdf:RDF>
      <cc:Work
         rdf:about="">
        <dc:format>image/svg+xml</dc:format>
        <dc:type
           rdf:resource="http://purl.org/dc/dcmitype/StillImage" />
        <dc:title></dc:title>
      </cc:Work>
    </rdf:RDF>
  </metadata>
  <defs
     id="defs36" />
  <sodipodi:namedview
     pagecolor="#ffffff"
     bordercolor="#000000"
     borderopacity="1"
     objecttolerance="10"
     gridtolerance="10"
     guidetolerance="10"
     inkscape:pageopacity="0"
     inkscape:pageshadow="2"
     inkscape:window-width="1920"
     inkscape:window-height="1007"
     id="namedview34"
     showgrid="false"
     inkscape:zoom="4.9062502"
     inkscape:cx="40.05013"
     inkscape:cy="-2.0551839"
     inkscape:window-x="0"
     inkscape:window-y="0"
     inkscape:window-maximized="1"
     inkscape:current-layer="svg32"
     inkscape:document-rotation="0"
     inkscape:lockguides="false"
     inkscape:showpageshadow="false">
    <inkscape:grid
       type="xygrid"
       id="grid883"
       originx="0"
       originy="0" />
  </sodipodi:namedview>
  <g
     id="kalarm"
     transform="translate(64,-22)">
    <rect
       style="opacity:0.00100002"
       width="32"
       height="32"
       x="-64"
       y="22"
       id="rect17" />
    <path
       d="m -47.140623,39.196093 v -6.914616 a 0.86432725,0.86432725 0 1 0 -1.72865,0 v 6.914616 a 0.86432725,0.86432725 0 0 0 1.72865,0 z"
       id="path4-3"
       style="fill:#eff0f1;fill-opacity:1;stroke-width:0.864337" />
    <path
       d="m -59.241203,38.660207 a 11.23625,11.23625 0 0 0 0.48402,3.370882 0.8643272,0.8643272 0 0 0 1.1582,0.579096 v 0 a 0.8643272,0.8643272 0 0 0 0.50995,-1.028539 9.5075987,9.5075987 0 1 1 18.41018,-0.942126 9.3865898,9.3865898 0 0 1 -4.32165,6.223157 9.5940348,9.5940348 0 0 1 -9.1705,0.458088 0.8643272,0.8643272 0 0 0 -1.08906,0.354377 v 0 a 0.8643272,0.8643272 0 0 0 0.38031,1.227343 11.23625,11.23625 0 1 0 3.31901,-21.271089 11.314038,11.314038 0 0 0 -9.68046,11.028811 z"
       id="path6-6"
       style="fill:#eff0f1;fill-opacity:1;stroke-width:0.864337" />
    <path
       d="m -60.10601,33.020426 a 0.85704512,0.86190052 0 0 0 1.12273,-0.387863 12.47857,12.549265 0 0 1 4.748027,-4.809402 0.86371569,0.86860888 0 1 0 -0.857047,-1.508326 14.166951,14.247211 0 0 0 -5.390806,5.490306 0.85704512,0.86190052 0 0 0 0.377096,1.215285 z"
       id="path10"
       style="fill:#eff0f1;fill-opacity:1;stroke-width:0.859479" />
    <path
       d="m -42.420037,26.69399 a 0.86190052,0.85704512 0 0 0 0.387863,1.12273 12.549265,12.47857 0 0 1 4.809402,4.748027 0.86860888,0.86371569 0 1 0 1.508326,-0.857047 14.247211,14.166951 0 0 0 -5.490306,-5.390806 0.86190052,0.85704512 0 0 0 -1.215285,0.377096 z"
       id="path10-7"
       style="fill:#eff0f1;fill-opacity:1;stroke-width:0.859479" />
  </g>
  <g
     id="kalarm-disabled">
    <rect
       style="opacity:0.00100002"
       width="32"
       height="32"
       x="32"
       y="0"
       id="rect22" />
    <path
       d="m 48.859377,17.196137 v -6.914616 a 0.86432725,0.86432725 0 1 0 -1.72865,0 v 6.914616 a 0.86432725,0.86432725 0 0 0 1.72865,0 z"
       id="path4-3-5"
       style="fill:#bf616a;fill-opacity:1;stroke-width:0.864337" />
    <path
       d="m 36.758797,16.660251 a 11.23625,11.23625 0 0 0 0.48402,3.370882 0.8643272,0.8643272 0 0 0 1.1582,0.579096 v 0 a 0.8643272,0.8643272 0 0 0 0.50995,-1.028539 9.5075987,9.5075987 0 1 1 18.41018,-0.942126 9.3865898,9.3865898 0 0 1 -4.32165,6.223157 9.5940348,9.5940348 0 0 1 -9.1705,0.458088 0.8643272,0.8643272 0 0 0 -1.08906,0.354377 v 0 a 0.8643272,0.8643272 0 0 0 0.38031,1.227343 11.23625,11.23625 0 1 0 3.31901,-21.271089 11.314038,11.314038 0 0 0 -9.68046,11.028811 z"
       id="path6-6-3"
       style="fill:#bf616a;fill-opacity:1;stroke-width:0.864337" />
    <path
       d="m 35.89399,11.020248 a 0.85704512,0.86190052 0 0 0 1.12273,-0.387863 12.47857,12.549265 0 0 1 4.748027,-4.8094018 0.86371569,0.86860888 0 1 0 -0.857048,-1.508326 14.166951,14.247211 0 0 0 -5.390805,5.490306 0.85704512,0.86190052 0 0 0 0.377096,1.2152848 z"
       id="path10-5"
       style="fill:#bf616a;fill-opacity:1;stroke-width:0.859479" />
    <path
       d="m 53.579963,4.6939896 a 0.86190052,0.85704512 0 0 0 0.387863,1.12273 12.549265,12.47857 0 0 1 4.809402,4.7480274 0.86860888,0.86371569 0 1 0 1.508326,-0.8570474 14.247211,14.166951 0 0 0 -5.490306,-5.390806 0.86190052,0.85704512 0 0 0 -1.215285,0.377096 z"
       id="path10-7-6"
       style="fill:#bf616a;fill-opacity:1;stroke-width:0.859479" />
  </g>
  <g
     id="kalarm-partdisabled">
    <rect
       style="opacity:0.00100002"
       width="32"
       height="32"
       x="64"
       y="0"
       id="rect27" />
    <path
       d="m 80.859377,17.196137 v -6.914616 a 0.86432725,0.86432725 0 1 0 -1.72865,0 v 6.914616 a 0.86432725,0.86432725 0 0 0 1.72865,0 z"
       id="path4-3-5-2"
       style="fill:#8fbcbb;fill-opacity:1;stroke-width:0.864337" />
    <path
       d="m 68.758797,16.660251 a 11.23625,11.23625 0 0 0 0.48402,3.370882 0.8643272,0.8643272 0 0 0 1.1582,0.579096 v 0 a 0.8643272,0.8643272 0 0 0 0.50995,-1.028539 9.5075987,9.5075987 0 1 1 18.41018,-0.942126 9.3865898,9.3865898 0 0 1 -4.32165,6.223157 9.5940348,9.5940348 0 0 1 -9.1705,0.458088 0.8643272,0.8643272 0 0 0 -1.08906,0.354377 v 0 a 0.8643272,0.8643272 0 0 0 0.38031,1.227343 11.23625,11.23625 0 1 0 3.31901,-21.271089 11.314038,11.314038 0 0 0 -9.68046,11.028811 z"
       id="path6-6-3-9"
       style="fill:#8fbcbb;fill-opacity:1;stroke-width:0.864337" />
    <path
       d="m 67.89399,11.020248 a 0.85704512,0.86190052 0 0 0 1.12273,-0.387863 12.47857,12.549265 0 0 1 4.748027,-4.8094018 0.86371569,0.86860888 0 1 0 -0.857048,-1.508326 14.166951,14.247211 0 0 0 -5.390805,5.490306 0.85704512,0.86190052 0 0 0 0.377096,1.2152848 z"
       id="path10-5-1"
       style="fill:#8fbcbb;fill-opacity:1;stroke-width:0.859479" />
    <path
       d="m 85.579963,4.6939896 a 0.86190052,0.85704512 0 0 0 0.387863,1.12273 12.549265,12.47857 0 0 1 4.809402,4.7480274 0.86860888,0.86371569 0 1 0 1.508326,-0.8570474 14.247211,14.166951 0 0 0 -5.490306,-5.390806 0.86190052,0.85704512 0 0 0 -1.215285,0.377096 z"
       id="path10-7-6-2"
       style="fill:#8fbcbb;fill-opacity:1;stroke-width:0.859479" />
  </g>
  <g
     id="22-22-kalarm">
    <rect
       style="opacity:0.00100002"
       width="22"
       height="22"
       x="0"
       y="-22"
       id="rect2" />
    <path
       d="m 11.572695,-10.202798 v -4.60963 a 0.57620348,0.57620348 0 1 0 -1.1524,0 v 4.60963 a 0.57620348,0.57620348 0 0 0 1.1524,0 z"
       id="path4-3-7"
       style="fill:#eff0f1;fill-opacity:1;stroke-width:0.576213" />
    <path
       d="m 3.505845,-10.56005 a 7.4906439,7.4906439 0 0 0 0.32268,2.247202 0.57620345,0.57620345 0 0 0 0.77212,0.386054 v 0 a 0.57620345,0.57620345 0 0 0 0.33995,-0.685678 6.3382379,6.3382379 0 1 1 12.27314,-0.628068 6.2575671,6.2575671 0 0 1 -2.88102,4.148665 6.3958603,6.3958603 0 0 1 -6.11352,0.305382 0.57620345,0.57620345 0 0 0 -0.72602,0.23625 v 0 a 0.57620345,0.57620345 0 0 0 0.25354,0.818213 7.4906439,7.4906439 0 1 0 2.21261,-14.180369 7.5425009,7.5425009 0 0 0 -6.45348,7.352349 z"
       id="path6-6-0"
       style="fill:#eff0f1;fill-opacity:1;stroke-width:0.576213" />
    <path
       d="m 2.8293148,-14.253427 a 0.57134889,0.57458571 0 0 0 0.74847,-0.258567 8.3188339,8.3659634 0 0 1 3.16527,-3.206182 0.57579725,0.57905928 0 1 0 -0.57135,-1.005529 9.4443934,9.4978976 0 0 0 -3.59378,3.660114 0.57134889,0.57458571 0 0 0 0.25139,0.810164 z"
       id="path10-9"
       style="fill:#eff0f1;fill-opacity:1;stroke-width:0.572977" />
    <path
       d="m 14.853307,-18.470682 a 0.57458571,0.57134889 0 0 0 0.25857,0.748467 8.3659634,8.3188339 0 0 1 3.20619,3.165265 0.57905834,0.57579625 0 1 0 1.00552,-0.571348 9.4978976,9.4443934 0 0 0 -3.66011,-3.593775 0.57458571,0.57134889 0 0 0 -0.81017,0.251391 z"
       id="path10-7-3"
       style="fill:#eff0f1;fill-opacity:1;stroke-width:0.572977" />
  </g>
  <g
     id="22-22-kalarm-partdisabled">
    <rect
       style="opacity:0.00100002"
       width="22"
       height="22"
       x="64"
       y="-22"
       id="rect12" />
    <path
       d="m 75.572695,-10.202827 v -4.60963 a 0.57620348,0.57620348 0 1 0 -1.1524,0 v 4.60963 a 0.57620348,0.57620348 0 0 0 1.1524,0 z"
       id="path4-3-7-61"
       style="fill:#8fbcbb;fill-opacity:1;stroke-width:0.576213" />
    <path
       d="m 67.505845,-10.560079 a 7.4906439,7.4906439 0 0 0 0.32268,2.247202 0.57620345,0.57620345 0 0 0 0.77212,0.386054 v 0 a 0.57620345,0.57620345 0 0 0 0.33995,-0.685678 6.3382379,6.3382379 0 1 1 12.27314,-0.628068 6.2575671,6.2575671 0 0 1 -2.88102,4.148665 6.3958603,6.3958603 0 0 1 -6.11352,0.305382 0.57620345,0.57620345 0 0 0 -0.72602,0.23625 v 0 a 0.57620345,0.57620345 0 0 0 0.25354,0.818213 7.4906439,7.4906439 0 1 0 2.21261,-14.180369 7.5425009,7.5425009 0 0 0 -6.45348,7.352349 z"
       id="path6-6-0-8"
       style="fill:#8fbcbb;fill-opacity:1;stroke-width:0.576213" />
    <path
       d="m 66.829315,-14.253427 a 0.57134889,0.57458571 0 0 0 0.74847,-0.258567 8.3188339,8.3659634 0 0 1 3.16527,-3.206182 0.57579725,0.57905928 0 1 0 -0.57135,-1.005529 9.4443934,9.4978976 0 0 0 -3.59378,3.660114 0.57134889,0.57458571 0 0 0 0.25139,0.810164 z"
       id="path10-9-7"
       style="fill:#8fbcbb;fill-opacity:1;stroke-width:0.572977" />
    <path
       d="m 78.853307,-18.470682 a 0.57458571,0.57134889 0 0 0 0.25857,0.748467 8.3659634,8.3188339 0 0 1 3.20619,3.165265 0.57905834,0.57579625 0 1 0 1.00552,-0.571348 9.4978976,9.4443934 0 0 0 -3.66011,-3.593775 0.57458571,0.57134889 0 0 0 -0.81017,0.251391 z"
       id="path10-7-3-9"
       style="fill:#8fbcbb;fill-opacity:1;stroke-width:0.572977" />
  </g>
</svg>
