<?xml version="1.0" encoding="UTF-8" standalone="no"?>
<svg
   xmlns:dc="http://purl.org/dc/elements/1.1/"
   xmlns:cc="http://creativecommons.org/ns#"
   xmlns:rdf="http://www.w3.org/1999/02/22-rdf-syntax-ns#"
   xmlns:svg="http://www.w3.org/2000/svg"
   xmlns="http://www.w3.org/2000/svg"
   xmlns:sodipodi="http://sodipodi.sourceforge.net/DTD/sodipodi-0.dtd"
   xmlns:inkscape="http://www.inkscape.org/namespaces/inkscape"
   width="32"
   height="32"
   version="1.1"
   id="svg12"
   sodipodi:docname="kteatime.svg"
   inkscape:version="1.0.2 (e86c870879, 2021-01-15)">
  <metadata
     id="metadata18">
    <rdf:RDF>
      <cc:Work
         rdf:about="">
        <dc:format>image/svg+xml</dc:format>
        <dc:type
           rdf:resource="http://purl.org/dc/dcmitype/StillImage" />
        <dc:title></dc:title>
      </cc:Work>
    </rdf:RDF>
  </metadata>
  <defs
     id="defs16" />
  <sodipodi:namedview
     pagecolor="#ffffff"
     bordercolor="#000000"
     borderopacity="1"
     objecttolerance="10"
     gridtolerance="10"
     guidetolerance="10"
     inkscape:pageopacity="0"
     inkscape:pageshadow="2"
     inkscape:window-width="1920"
     inkscape:window-height="1007"
     id="namedview14"
     showgrid="false"
     inkscape:zoom="11.313709"
     inkscape:cx="37.219102"
     inkscape:cy="15.166011"
     inkscape:window-x="0"
     inkscape:window-y="0"
     inkscape:window-maximized="1"
     inkscape:current-layer="svg12"
     inkscape:document-rotation="0"
     inkscape:lockguides="false"
     inkscape:showpageshadow="false">
    <inkscape:grid
       type="xygrid"
       id="grid857"
       originx="0"
       originy="0" />
  </sodipodi:namedview>
  <g
     id="kteatime">
    <rect
       style="opacity:0.00100002"
       width="32"
       height="32"
       x="0"
       y="0"
       id="rect7" />
    <path
       d="M 17.7201,4 C 11.947255,7.9250984 18.766308,9.202149 15.329815,11.850194 21.213686,9.473274 14.24518,7.0840158 17.7201,4 Z"
       id="path4"
       style="fill:#8fbcbb;fill-opacity:1;stroke-width:0.266667" />
    <path
       d="m 14.015281,4.9220533 c -4.416714,3.0030451 0.80044,3.9800958 -1.82876,6.0060877 4.501661,-1.818541 -0.82985,-3.6465412 1.82876,-6.0060877 z"
       id="path6"
       style="fill:#eff0f1;fill-opacity:1;stroke-width:0.266667" />
    <path
       d="m 5.172247,27.999998 h 19.457764 a 0.67111196,0.67111196 0 0 0 0,-1.342221 H 5.172247 a 0.67111196,0.67111196 0 1 0 0,1.342221 z"
       id="path8"
       style="fill:#eff0f1;fill-opacity:1;stroke-width:0.266667" />
    <path
       d="m 12.409921,16.590166 h 0.394667 a 0.43155998,0.43155998 0 0 1 0.378776,0.224675 l 0.5528,1.011947 a 0.43190664,0.43190664 0 0 1 0.0528,0.206901 v 1.767269 a 0.43158398,0.43158398 0 0 1 -0.431576,0.431573 H 10.578156 A 0.43158398,0.43158398 0 0 1 10.14658,19.800955 V 18.03369 a 0.43124531,0.43124531 0 0 1 0.05286,-0.206901 l 0.552736,-1.011947 a 0.43163731,0.43163731 0 0 1 0.378776,-0.224675 h 0.394667 V 12.901724 H 4.97145 a 0.48647197,0.48647197 0 0 0 -0.470117,0.511538 c 0.123437,4.633694 1.917514,8.65708 4.548373,10.885467 0.01048,0.0089 0.0224,0.0152 0.03311,0.02368 l -0.155894,0.40109 a 0.60789597,0.60789597 0 0 0 0.566603,0.828109 h 8.605794 a 0.60788263,0.60788263 0 0 0 0.566605,-0.828109 l -0.155859,-0.401088 c 0.01067,-0.0085 0.02259,-0.01481 0.03307,-0.02368 a 10.904759,10.904759 0 0 0 2.014211,-2.306134 3.3699491,3.3699491 0 0 0 0.909333,0.963752 c 0.653629,0.417222 1.797477,0.3552 1.793994,-0.579978 -0.0069,-1.857635 2.234456,-2.430192 3.92671,-4.182765 3.634178,-3.763752 -1.103014,-5.857501 -4.163022,-3.659699 0.03192,-0.369645 0.05711,-0.742205 0.0672,-1.12064 A 0.48656264,0.48656264 0 0 0 22.62139,12.901724 H 12.409924 Z m 13.277832,1.564267 c -1.177334,1.122722 -3.068131,1.652769 -4.127539,2.036866 a 16.55338,16.55338 0 0 0 1.316107,-4.419814 c 1.874978,-1.224091 5.348839,-0.0367 2.811437,2.382957 z"
       id="path10"
       style="fill:#eff0f1;fill-opacity:1;stroke-width:0.266667" />
  </g>
  <g
     id="22-22-kteatime"
     transform="translate(32,10)">
    <rect
       style="opacity:0.00100002"
       width="22"
       height="22"
       x="0"
       y="0"
       id="rect2" />
    <path
       d="M 11.813566,3 C 7.9650108,5.61674 12.511039,6.468106 10.220051,8.233454 14.14263,6.648843 9.496952,5.05601 11.813566,3 Z"
       id="path4-3"
       style="fill:#8fbcbb;fill-opacity:1;stroke-width:0.177771" />
    <path
       d="M 9.343691,3.614709 C 6.3992148,5.61674 9.877316,6.268106 8.1245158,7.618751 11.125623,6.4064 7.5712808,5.187729 9.343691,3.614709 Z"
       id="path6-6"
       style="fill:#eff0f1;fill-opacity:1;stroke-width:0.177771" />
    <path
       d="M 3.4483348,18.999999 H 16.420178 a 0.44740796,0.44740796 0 0 0 0,-0.894814 H 3.4483348 a 0.44740796,0.44740796 0 1 0 0,0.894814 z"
       id="path8-7"
       style="fill:#eff0f1;fill-opacity:1;stroke-width:0.177771" />
    <path
       d="m 8.2734508,11.393445 h 0.263109 a 0.28770669,0.28770669 0 0 1 0.25251,0.149781 l 0.3685432,0.674635 a 0.28793771,0.28793771 0 0 1 0.0352,0.137933 v 1.178179 A 0.28772269,0.28772269 0 0 1 8.905092,13.821689 H 7.0522648 A 0.28772269,0.28772269 0 0 1 6.7645578,13.53397 v -1.178176 a 0.28749694,0.28749694 0 0 1 0.03526,-0.137933 l 0.36849,-0.674635 a 0.28775828,0.28775828 0 0 1 0.252528,-0.149781 h 0.263102 V 8.934493 H 3.3144908 A 0.32431468,0.32431468 0 0 0 3.0010728,9.27551 c 0.08225,3.089129 1.278352,5.771385 3.03226,7.256977 0.006,0.006 0.01489,0.01009 0.02214,0.01579 l -0.103935,0.267393 a 0.40526397,0.40526397 0 0 0 0.377744,0.552073 h 5.7371952 a 0.40525509,0.40525509 0 0 0 0.377707,-0.552073 l -0.103897,-0.267391 c 0.0062,-0.0057 0.015,-0.0098 0.02214,-0.01579 a 7.26984,7.26984 0 0 0 1.342813,-1.537422 2.2466334,2.2466334 0 0 0 0.606226,0.642501 c 0.435748,0.278147 1.198313,0.2368 1.195998,-0.386653 -0.0044,-1.238423 1.489632,-1.620128 2.617806,-2.788511 2.422772,-2.509156 -0.735348,-3.904994 -2.775352,-2.439801 0.0212,-0.246432 0.03814,-0.494794 0.0448,-0.747091 A 0.32437504,0.32437504 0 0 0 15.08127,8.934493 H 8.2735778 Z m 8.8518902,1.042844 c -0.784896,0.748481 -2.045422,1.101846 -2.75169,1.357912 a 11.035586,11.035586 0 0 0 0.8774,-2.94654 c 1.249987,-0.816076 3.565889,-0.02439 1.874293,1.588633 z"
       id="path10-5"
       style="fill:#eff0f1;fill-opacity:1;stroke-width:0.177771" />
  </g>
</svg>
