<?xml version="1.0" encoding="UTF-8" standalone="no"?>
<svg
   xmlns:dc="http://purl.org/dc/elements/1.1/"
   xmlns:cc="http://creativecommons.org/ns#"
   xmlns:rdf="http://www.w3.org/1999/02/22-rdf-syntax-ns#"
   xmlns:svg="http://www.w3.org/2000/svg"
   xmlns="http://www.w3.org/2000/svg"
   xmlns:sodipodi="http://sodipodi.sourceforge.net/DTD/sodipodi-0.dtd"
   xmlns:inkscape="http://www.inkscape.org/namespaces/inkscape"
   width="32"
   height="32"
   version="1.1"
   id="svg12"
   sodipodi:docname="ktorrent.svg"
   inkscape:version="1.0.2 (e86c870879, 2021-01-15)">
  <metadata
     id="metadata18">
    <rdf:RDF>
      <cc:Work
         rdf:about="">
        <dc:format>image/svg+xml</dc:format>
        <dc:type
           rdf:resource="http://purl.org/dc/dcmitype/StillImage" />
        <dc:title></dc:title>
      </cc:Work>
    </rdf:RDF>
  </metadata>
  <defs
     id="defs16" />
  <sodipodi:namedview
     pagecolor="#ffffff"
     bordercolor="#000000"
     borderopacity="1"
     objecttolerance="10"
     gridtolerance="10"
     guidetolerance="10"
     inkscape:pageopacity="0"
     inkscape:pageshadow="2"
     inkscape:window-width="1920"
     inkscape:window-height="1007"
     id="namedview14"
     showgrid="false"
     inkscape:zoom="9.8125"
     inkscape:cx="29.648788"
     inkscape:cy="22.275724"
     inkscape:window-x="0"
     inkscape:window-y="0"
     inkscape:window-maximized="1"
     inkscape:current-layer="svg12"
     inkscape:document-rotation="0"
     inkscape:lockguides="false"
     inkscape:showpageshadow="false">
    <inkscape:grid
       type="xygrid"
       id="grid848"
       originx="0"
       originy="-4.6325683e-08" />
  </sodipodi:namedview>
  <g
     id="ktorrent">
    <rect
       style="opacity:0.00100002"
       width="32"
       height="32"
       x="0"
       y="0"
       id="rect7" />
    <path
       d="m 23.673872,18.384001 c 2.455441,0 4.453128,-1.969259 4.453128,-4.389756 0,-1.695561 -0.991986,-3.226216 -2.514629,-3.951943 C 25.554792,9.1661163 25.19618,8.3466486 24.576563,7.6943633 23.606816,6.6736172 22.122299,6.2452327 20.729954,6.6214511 19.762,5.010155 17.995308,4 16.0635,4 14.131692,4 12.364999,5.010155 11.397045,6.6214975 10.005267,6.2453721 8.520891,6.6734315 7.550862,7.6940846 6.931242,8.3460447 6.572495,9.1656518 6.514721,10.042302 4.992129,10.767936 4,12.298684 4,13.994245 c 0,2.420497 1.997688,4.389756 4.453128,4.389756 h 4.886049 l -4.8e-5,0.802931 h -2.303657 c -0.568399,0 -0.904435,0.63022 -0.582301,1.091725 l 5.690644,7.721342 v 0 0 0 0 0 0 0 0 0 0 0 0 0 l 5.530059,-7.721806 c 0.322229,-0.461645 -0.01408,-1.091865 -0.582437,-1.091772 l -2.304037,4.18e-4 4.8e-5,-0.802792 h 4.886424 z M 8.453128,16.990428 c -1.675931,0 -3.039436,-1.344102 -3.039436,-2.996183 0,-1.273216 0.819516,-2.410232 2.039297,-2.829233 C 7.75302,11.06198 7.946414,10.774207 7.925727,10.461675 7.880867,9.784166 8.114125,9.1396384 8.582528,8.6468244 9.352377,7.8367401 10.515421,7.6833076 11.434226,8.1170342 c 0.360587,0.1701088 0.793176,0.011706 0.953159,-0.3498334 0.638093,-1.4419305 2.081047,-2.3736273 3.676115,-2.3736273 1.595068,0 3.038023,0.9316968 3.676115,2.3736273 0.159889,0.3611678 0.592149,0.520128 0.953159,0.3498334 0.919606,-0.4340517 2.082838,-0.2796902 2.851933,0.5299295 0.468499,0.4931392 0.701758,1.1375273 0.656662,1.8144793 -0.02077,0.312578 0.172561,0.600537 0.472691,0.703569 1.219684,0.419047 2.039247,1.556017 2.039247,2.829233 0,1.652081 -1.363503,2.996183 -3.039435,2.996183 h -4.886376 l 2.83e-4,-5.533695 c 0,-0.384626 -0.316526,-0.696833 -0.706896,-0.696833 l -4.03453,2.32e-4 c -0.390368,0 -0.706801,0.311975 -0.706801,0.69674 l -3.31e-4,5.533556 z m 11.293791,3.589798 -3.683938,5.277417 -3.683184,-5.277138 h 1.666129 c 0.390368,0 0.706848,-0.311928 0.706848,-0.69674 4.4e-5,-0.764654 3.75e-4,-6.971723 4.23e-4,-7.730106 l 2.620841,-1.39e-4 c -4.7e-5,0.757035 -3.74e-4,6.967542 -4.23e-4,7.730152 0,0.38458 0.316525,0.696926 0.706988,0.696833 z"
       id="path2"
       sodipodi:nodetypes="cscccscscssccscccccccccccccccccccccsscccccscccccssccccccscccscccccc"
       style="fill:#eff0f1;stroke-width:0.0467865;fill-opacity:1" />
  </g>
  <g
     id="22-22-ktorrent"
     transform="translate(32,10.000001)">
    <rect
       style="opacity:0.00100002"
       width="22"
       height="22"
       x="0"
       y="0"
       id="rect2" />
    <path
       d="m 16.11592,12.589338 c 1.63696,0 2.96875,-1.312836 2.96875,-2.926509 0,-1.130378 -0.661333,-2.150804 -1.67643,-2.634628 C 17.36986,6.44408 17.130793,5.897769 16.717707,5.462912 16.071217,4.782417 15.081527,4.496828 14.153309,4.747634 13.508001,3.673435 12.3302,3 11.042328,3 9.754465,3 8.576669,3.673435 7.931365,4.747657 7.003507,4.496915 6.013931,4.782247 5.36724,5.462725 4.95416,5.89736 4.714998,6.44376 4.676481,7.028201 3.661413,7.511959 3,8.532451 3,9.662829 c 0,1.613673 1.331791,2.926509 2.968752,2.926509 h 3.257369 l -3.2e-5,0.535279 H 7.69032 c -0.378932,0 -0.602963,0.420148 -0.3882,0.727822 L 11.09588,19 v 0 0 0 0 0 0 0 0 0 0 0 0 0 l 3.686709,-5.147874 c 0.21481,-0.30776 -0.0092,-0.727903 -0.388295,-0.727847 l -1.536025,2.81e-4 3.4e-5,-0.5352 H 16.11592 Z M 5.968752,11.66028 c -1.117292,0 -2.026287,-0.896057 -2.026287,-1.997451 0,-0.848812 0.546343,-1.606816 1.359535,-1.886148 C 5.502008,7.708041 5.630947,7.516132 5.617156,7.307779 5.587266,6.85611 5.742754,6.426429 6.055013,6.097879 6.568245,5.557833 7.343609,5.455544 7.956146,5.744691 c 0.2404,0.113412 0.528785,0.008 0.635452,-0.233227 0.425391,-0.961287 1.387362,-1.582423 2.45073,-1.582423 1.063384,0 2.025356,0.621136 2.450751,1.582423 0.106586,0.240776 0.394766,0.346749 0.635441,0.233227 0.613061,-0.289372 1.388556,-0.186467 1.901285,0.35329 0.312338,0.328762 0.467838,0.75835 0.437778,1.209646 -0.01381,0.208394 0.11504,0.400353 0.315118,0.469054 0.813124,0.279359 1.359499,1.037336 1.359499,1.886148 0,1.101394 -0.909,1.997451 -2.02628,1.997451 h -3.257596 l 1.95e-4,-3.689123 c 0,-0.256414 -0.211022,-0.464556 -0.471259,-0.464556 L 9.697565,7.50676 c -0.260243,0 -0.471201,0.207983 -0.471201,0.464489 l -2.1e-4,3.689031 z m 7.529197,2.393204 -2.455955,3.518279 -2.455465,-3.518088 h 1.110757 c 0.260236,0 0.471235,-0.207956 0.471235,-0.464495 3e-5,-0.509771 2.4e-4,-4.64782 2.76e-4,-5.153413 l 1.747232,-8.7e-5 c -3.7e-5,0.504692 -2.57e-4,4.645032 -2.81e-4,5.153434 0,0.25639 0.211013,0.464615 0.471324,0.464561 z"
       id="path2-3-6"
       sodipodi:nodetypes="cscccscscssccscccccccccccccccccccccsscccccscccccssccccccscccscccccc"
       style="fill:#eff0f1;stroke-width:0.0311918;fill-opacity:1" />
  </g>
</svg>
