<?xml version="1.0" encoding="UTF-8" standalone="no"?>
<svg
   xmlns:dc="http://purl.org/dc/elements/1.1/"
   xmlns:cc="http://creativecommons.org/ns#"
   xmlns:rdf="http://www.w3.org/1999/02/22-rdf-syntax-ns#"
   xmlns:svg="http://www.w3.org/2000/svg"
   xmlns="http://www.w3.org/2000/svg"
   xmlns:sodipodi="http://sodipodi.sourceforge.net/DTD/sodipodi-0.dtd"
   xmlns:inkscape="http://www.inkscape.org/namespaces/inkscape"
   width="32"
   height="32"
   version="1.1"
   id="svg12"
   sodipodi:docname="qbittorrent.svg"
   inkscape:version="1.0.2 (e86c870879, 2021-01-15)">
  <metadata
     id="metadata18">
    <rdf:RDF>
      <cc:Work
         rdf:about="">
        <dc:format>image/svg+xml</dc:format>
        <dc:type
           rdf:resource="http://purl.org/dc/dcmitype/StillImage" />
        <dc:title></dc:title>
      </cc:Work>
    </rdf:RDF>
  </metadata>
  <defs
     id="defs16" />
  <sodipodi:namedview
     pagecolor="#ffffff"
     bordercolor="#000000"
     borderopacity="1"
     objecttolerance="10"
     gridtolerance="10"
     guidetolerance="10"
     inkscape:pageopacity="0"
     inkscape:pageshadow="2"
     inkscape:window-width="1920"
     inkscape:window-height="1007"
     id="namedview14"
     showgrid="false"
     inkscape:zoom="6.9384855"
     inkscape:cx="28.542355"
     inkscape:cy="11.735504"
     inkscape:window-x="0"
     inkscape:window-y="0"
     inkscape:window-maximized="1"
     inkscape:current-layer="svg12"
     inkscape:document-rotation="0"
     inkscape:lockguides="false"
     inkscape:showpageshadow="false">
    <inkscape:grid
       type="xygrid"
       id="grid901"
       originx="32.000001"
       originy="10.000001" />
  </sodipodi:namedview>
  <g
     id="g11">
    <g
       id="qbittorrent-tray">
      <rect
         style="opacity:0.00100002"
         width="32"
         height="32"
         x="0"
         y="0"
         id="rect2" />
      <path
         d="M 24.485297,7.514746 C 22.218817,5.248193 19.2051,4 16,4 12.7949,4 9.78117,5.248193 7.5149,7.514746 5.24821,9.781298 4,12.794774 4,16.000001 c 0,3.205227 1.24821,6.218695 3.5149,8.485253 2.26627,2.266409 5.28,3.514747 8.4851,3.514747 3.2053,0 6.218817,-1.248338 8.485297,-3.514747 2.26634,-2.266558 3.5147,-5.280026 3.5147,-8.485253 0,-3.205227 -1.24836,-6.21885 -3.5147,-8.485255 z M 23.115,23.814651 c -2.209523,1.874207 -3.991502,2.760223 -7.115,2.73735 -3.315977,-0.02428 -4.545955,-0.647314 -7.115,-2.738 C 6.79759,21.726746 5.448,18.951957 5.448,16.000001 5.448,13.047904 6.840416,9.9095706 8.885,8.185 11.178791,6.169405 13.090681,5.470038 16,5.448 c 2.951865,-0.02236 4.927587,0.91947 7.115,2.737205 2.08737,2.087403 3.437,4.862699 3.437,7.814796 0,2.951956 -1.34963,5.727395 -3.437,7.81465 z"
         id="path2-36-912-3-5"
         style="fill:#eff0f1;fill-opacity:1;stroke-width:0.0374999"
         sodipodi:nodetypes="cscscscsccscscscsc" />
      <path
         d="m 11.682468,18.750337 q 1.290441,0 1.881219,-0.691883 0.590804,-0.691835 0.629669,-2.332085 v -0.287625 q 0,-1.787923 -0.606326,-2.573063 -0.60634,-0.785133 -1.92009,-0.785133 -1.134972,0 -1.741294,0.886203 -0.598581,0.878391 -0.598581,2.487555 0,1.609148 0.590811,2.456452 0.598564,0.839548 1.764592,0.839548 z m -0.194342,1.080516 q -1.64798,0 -2.573061,-1.158258 -0.925064,-1.158281 -0.925064,-3.233851 0,-2.091087 0.932846,-3.264915 0.932812,-1.173828 2.596384,-1.173828 1.749062,0 2.689674,1.321516 h 0.07 l 0.186554,-1.166039 h 1.018356 v 12.344523 h -1.290439 v -3.645819 q 0,-0.777376 0.08555,-1.321516 H 14.17786 q -0.893961,1.298187 -2.689692,1.298187 z"
         id="path15"
         style="fill:#eff0f1;fill-opacity:1;stroke-width:0.0251908" />
      <path
         d="m 20.637521,11.043498 q 1.644686,0 2.550783,1.126879 0.91367,1.119304 0.91367,3.175135 0,2.055827 -0.921322,3.197987 -0.913672,1.134502 -2.543131,1.134502 -0.814737,0 -1.492387,-0.296947 -0.670042,-0.304575 -1.126901,-0.928951 h -0.09137 L 17.66039,19.525714 H 16.754258 V 7.678001 h 1.26397 v 2.87821 q 0,0.966996 -0.06091,1.73603 h 0.06097 q 0.883224,-1.248743 2.619256,-1.248743 z m -0.182744,1.058365 q -1.294384,0 -1.865464,0.746181 -0.57108,0.738591 -0.57108,2.497468 0,1.758878 0.586301,2.520316 0.586274,0.753788 1.880696,0.753788 1.164974,0 1.736054,-0.845182 0.571048,-0.852781 0.571048,-2.444144 0,-1.629466 -0.571048,-2.428952 -0.57108,-0.799475 -1.766507,-0.799475 z"
         id="path13"
         style="fill:#8fbcbb;fill-opacity:1;stroke-width:0.0246739" />
    </g>
  </g>
  <g
     id="22-22-qbittorrent-tray"
     transform="translate(32.000001,10.000001)">
    <rect
       style="opacity:0.00100002"
       width="22"
       height="22"
       x="0"
       y="0"
       id="rect7" />
    <path
       d="M 16.656869,5.343159 C 15.145877,3.832126 13.136727,3 11,3 8.863272,3 6.8541155,3.832126 5.3432667,5.343159 3.8321399,6.854198 3,8.863179 3,11 3,13.136821 3.8321399,15.145799 5.3432667,16.656838 6.8541155,18.167772 8.863272,19 11,19 13.136872,19 15.145877,18.167772 16.656869,16.656838 18.16776,15.145799 18.999996,13.136821 18.999996,11 c 0,-2.136821 -0.832236,-4.145896 -2.343127,-5.656841 z M 15.743332,16.209768 C 14.27032,17.459241 13.082325,18.049915 11,18.034664 8.789355,18.018464 7.9693595,17.60312 6.2566659,16.209338 4.8650601,14.817835 3.9653338,12.96797 3.9653338,11 3.9653338,9.031931 4.89361,6.939718 6.2566659,5.79 7.7858582,4.446272 9.060453,3.980027 11,3.965339 12.967917,3.950389 14.285054,4.57832 15.743332,5.790143 17.134916,7.181735 18.03466,9.031931 18.03466,11 c 0,1.96797 -0.899744,3.818265 -2.291328,5.209768 z"
       id="path2-36-912-3-5-3"
       style="fill:#eff0f1;fill-opacity:1;stroke-width:0.0249998"
       sodipodi:nodetypes="cscscscsccscscscsc" />
    <path
       d="m 8.121647,12.833557 q 0.860295,0 1.254141,-0.461258 0.393876,-0.461218 0.419786,-1.554723 v -0.19174 q 0,-1.191957 -0.404224,-1.715377 -0.40423,-0.523431 -1.280063,-0.523431 -0.756646,0 -1.160855,0.590812 -0.3990539,0.585594 -0.3990539,1.658365 0,1.072768 0.3938718,1.637635 0.3990446,0.559693 1.1763971,0.559693 z m -0.1295675,0.720342 q -1.0986498,0 -1.7153691,-0.772171 -0.6167096,-0.772192 -0.6167096,-2.155892 0,-1.394071 0.6218967,-2.17662 0.6218721,-0.782554 1.7309265,-0.782554 1.166035,0 1.793117,0.881015 h 0.04668 L 9.976997,7.77032 h 0.678905 V 16 H 9.795608 v -2.43054 q 0,-0.518255 0.05699,-0.881021 h -0.06741 q -0.595978,0.86546 -1.7931284,0.86546 z"
       id="path15-6"
       style="fill:#eff0f1;fill-opacity:1;stroke-width:0.0167935" />
    <path
       d="m 14.09168,7.695659 q 1.096453,0 1.700523,0.751262 0.609117,0.7462 0.609117,2.116751 0,1.370548 -0.614216,2.131987 Q 15.177992,13.452 14.09168,13.452 q -0.543157,0 -0.994926,-0.197966 -0.446695,-0.203054 -0.751263,-0.619293 h -0.06097 L 12.106872,13.35048 H 11.502799 V 5.452001 h 0.842645 V 7.3708 q 0,0.644668 -0.04064,1.157361 h 0.04069 Q 12.93431,7.695659 14.091662,7.695659 Z m -0.121836,0.70558 q -0.862913,0 -1.243638,0.497454 -0.380715,0.4924 -0.380715,1.664979 0,1.172584 0.390869,1.680215 0.390847,0.502528 1.2538,0.502528 0.77664,0 1.157364,-0.563455 0.380701,-0.568521 0.380701,-1.62944 0,-1.086299 -0.380701,-1.619301 -0.380724,-0.53298 -1.17768,-0.53298 z"
       id="path13-7"
       style="fill:#8fbcbb;fill-opacity:1;stroke-width:0.0164498" />
  </g>
</svg>
