<?xml version="1.0" encoding="UTF-8" standalone="no"?>
<svg
   xmlns:dc="http://purl.org/dc/elements/1.1/"
   xmlns:cc="http://creativecommons.org/ns#"
   xmlns:rdf="http://www.w3.org/1999/02/22-rdf-syntax-ns#"
   xmlns:svg="http://www.w3.org/2000/svg"
   xmlns="http://www.w3.org/2000/svg"
   xmlns:sodipodi="http://sodipodi.sourceforge.net/DTD/sodipodi-0.dtd"
   xmlns:inkscape="http://www.inkscape.org/namespaces/inkscape"
   width="8"
   height="8"
   version="1.1"
   id="svg32"
   sodipodi:docname="window.svg"
   inkscape:version="1.0.2 (e86c870879, 2021-01-15)">
  <metadata
     id="metadata38">
    <rdf:RDF>
      <cc:Work
         rdf:about="">
        <dc:format>image/svg+xml</dc:format>
        <dc:type
           rdf:resource="http://purl.org/dc/dcmitype/StillImage" />
        <dc:title></dc:title>
      </cc:Work>
    </rdf:RDF>
  </metadata>
  <defs
     id="defs36" />
  <sodipodi:namedview
     pagecolor="#ffffff"
     bordercolor="#000000"
     borderopacity="1"
     objecttolerance="10"
     gridtolerance="10"
     guidetolerance="10"
     inkscape:pageopacity="0"
     inkscape:pageshadow="2"
     inkscape:window-width="1920"
     inkscape:window-height="1007"
     id="namedview34"
     showgrid="false"
     inkscape:zoom="5.6568543"
     inkscape:cx="46.530429"
     inkscape:cy="27.165261"
     inkscape:window-x="0"
     inkscape:window-y="0"
     inkscape:window-maximized="1"
     inkscape:current-layer="svg32"
     inkscape:document-rotation="0"
     inkscape:lockguides="false"
     inkscape:showpageshadow="false"
     showguides="false" />
  <g
     id="window-list"
     transform="translate(4.616809,6.0200402)">
    <rect
       style="opacity:0.00100002"
       width="32"
       height="32"
       x="16"
       y="-16"
       ry="0"
       id="rect12" />
    <path
       style="opacity:1;fill:#eceff4;fill-opacity:1"
       d="m 22.5,-12 c -1.385,0 -2.5,1.115 -2.5,2.5 v 5 c 0,1.385 1.115,2.5 2.5,2.5 h 5 c 1.385,0 2.5,-1.115 2.5,-2.5 v -5 c 0,-1.385 -1.115,-2.5 -2.5,-2.5 z m 14,0 c -1.385,0 -2.5,1.115 -2.5,2.5 v 5 c 0,1.385 1.115,2.5 2.5,2.5 h 5 c 1.385,0 2.5,-1.115 2.5,-2.5 v -5 c 0,-1.385 -1.115,-2.5 -2.5,-2.5 z m -14,1 h 5 c 0.848297,0 1.5,0.651703 1.5,1.5 v 5 c 0,0.8482972 -0.651703,1.5 -1.5,1.5 h -5 C 21.651703,-3 21,-3.6517028 21,-4.5 v -5 c 0,-0.848297 0.651703,-1.5 1.5,-1.5 z m 14,0 h 5 c 0.848297,0 1.5,0.651703 1.5,1.5 v 5 c 0,0.8482972 -0.651703,1.5 -1.5,1.5 h -5 C 35.651703,-3 35,-3.6517028 35,-4.5 v -5 c 0,-0.848297 0.651703,-1.5 1.5,-1.5 z M 22.5,2 C 21.115,2 20,3.115 20,4.5 v 5 c 0,1.385 1.115,2.5 2.5,2.5 h 5 C 28.885,12 30,10.885 30,9.5 v -5 C 30,3.115 28.885,2 27.5,2 Z m 14,0 C 35.115,2 34,3.115 34,4.5 v 5 c 0,1.385 1.115,2.5 2.5,2.5 h 5 C 42.885,12 44,10.885 44,9.5 v -5 C 44,3.115 42.885,2 41.5,2 Z m -14,1 h 5 C 28.348297,3 29,3.651703 29,4.5 v 5 c 0,0.848297 -0.651703,1.5 -1.5,1.5 h -5 C 21.651703,11 21,10.348297 21,9.5 v -5 C 21,3.651703 21.651703,3 22.5,3 Z m 14,0 h 5 C 42.348297,3 43,3.651703 43,4.5 v 5 c 0,0.848297 -0.651703,1.5 -1.5,1.5 h -5 C 35.651703,11 35,10.348297 35,9.5 v -5 C 35,3.651703 35.651703,3 36.5,3 Z"
       id="path14" />
  </g>
  <g
     id="window-pin"
     transform="translate(-8)">
    <rect
       style="opacity:0.00100002"
       width="8"
       height="8"
       x="8"
       y="4.0578001e-07"
       id="rect2" />
    <path
       d="M 12.089481,0.700029 C 10.383139,0.700029 9,2.055331 9,3.7616841 9,4.313933 9.1456331,4.8973283 9.3995064,5.2528045 h -0.0014 l 0.036373,0.089034 c 0.00603,0.01034 0.012162,0.03464 0.018444,0.04477 L 10.823462,8 11.491827,6.517 c 0.193369,0.03788 0.393048,0.16 0.597533,0.16 1.706341,0 3.089482,-1.1821159 3.089482,-2.8883971 C 15.178842,2.0822513 13.795701,0.7 12.08936,0.7 Z m 0,4.5493735 c -0.806313,0 -1.459784,-0.6535896 -1.459784,-1.4598841 0,-0.806072 0.653471,-1.4596608 1.459784,-1.4596608 0.806184,0 1.459778,0.6535888 1.459778,1.4596608 0,0.8062945 -0.653594,1.4598841 -1.459778,1.4598841 z"
       id="path2-36"
       style="fill:#eceff4;fill-opacity:1;stroke-width:0.0136729"
       sodipodi:nodetypes="csccccccssccsssss" />
  </g>
  <g
     id="window-unpin"
     transform="translate(-8)">
    <rect
       style="opacity:0.00100002;stroke-width:1.01858"
       width="8"
       height="8.3000002"
       x="-4.5019533e-07"
       y="-4.0578001e-07"
       id="rect9" />
    <path
       d="M 4.0895567,0.7000241 C 2.3831743,0.7000241 1,2.0553267 1,3.7616801 1,4.313929 1.145637,4.8973247 1.3995159,5.2528014 h -0.0014 l 0.036375,0.089034 c 0.00604,0.01034 0.012163,0.03464 0.018447,0.04477 L 2.8235103,8.1 3.4918973,6.517 c 0.1933699,0.03788 0.393057,0.16 0.5975452,0.16 C 5.7958257,6.677 7.179,5.4948836 7.179,3.7886013 7.1790001,2.0822515 5.7958256,0.7 4.0894426,0.7 Z m 0,4.5493753 c -0.8063275,0 -1.459822,-0.6535898 -1.459822,-1.4598844 0,-0.8060728 0.6534945,-1.4596615 1.459822,-1.4596615 0.8062044,0 1.4598221,0.6535887 1.4598221,1.4596615 0,0.8062946 -0.6536177,1.4598844 -1.4598221,1.4598844 z"
       id="path2-36-7"
       style="fill:#eceff4;fill-opacity:1;stroke-width:0.0136731"
       sodipodi:nodetypes="csccccccssccsssss" />
  </g>
  <g
     id="22-22-window-close"
     transform="translate(20.616809,-9.9799598)">
    <rect
       style="opacity:0.00100002"
       width="22"
       height="22"
       x="64"
       y="10"
       id="rect18" />
    <path
       style="fill:#eceff4;fill-opacity:1;stroke-width:1.53093"
       d="m 70.004081,15.800206 h 1.311985 c 0.01277,-1.58e-4 0.02724,-4.55e-4 0.04111,0 0.334502,0.01925 0.668951,0.16887 0.902005,0.410188 l 2.992967,2.994179 3.033974,-2.994179 c 0.348506,-0.302427 0.58604,-0.401001 0.902001,-0.410188 h 1.312 v 1.312531 c 0,0.375907 -0.04497,0.722816 -0.32801,0.984276 l -2.992968,2.994198 2.951976,2.953108 c 0.246889,0.246743 0.368984,0.595193 0.369002,0.943118 v 1.312531 h -1.312002 c -0.348071,-1.7e-5 -0.696132,-0.121096 -0.943,-0.369011 l -2.99298,-2.994233 -2.992965,2.994233 c -0.246873,0.246865 -0.594943,0.369011 -0.943,0.369011 h -1.312003 v -1.312531 c -6e-6,-0.347925 0.122049,-0.696375 0.368987,-0.943118 l 2.992969,-2.953108 -2.992969,-2.994198 c -0.276496,-0.255457 -0.39775,-0.615859 -0.368989,-0.984276 z"
       id="path20"
       inkscape:connector-curvature="0" />
  </g>
  <g
     id="16-16-window-close"
     transform="translate(20.616809,-9.9799598)">
    <rect
       style="opacity:0.00100002"
       width="16"
       height="16"
       x="86"
       y="16"
       id="rect27" />
    <path
       style="fill:#eceff4;fill-opacity:1;stroke-width:1.17163"
       d="m 90.002929,20.200209 h 0.937127 c 0.0097,-1.25e-4 0.01947,-4.13e-4 0.0293,0 0.238929,0.01125 0.477813,0.120496 0.644279,0.293016 l 2.137827,2.13855 2.16711,-2.13855 c 0.248916,-0.216143 0.418585,-0.286454 0.64427,-0.293016 h 0.937126 v 0.937473 c 0,0.268642 -0.0322,0.516222 -0.234281,0.703104 l -2.137827,2.138775 2.108537,2.109314 c 0.176353,0.176394 0.263562,0.424912 0.263571,0.673655 v 0.937472 h -0.93713 c -0.24862,-1.2e-5 -0.497227,-0.0875 -0.673564,-0.263692 l -2.137821,-2.138512 -2.137825,2.138512 c -0.176329,0.176445 -0.424943,0.263692 -0.673553,0.263692 H 90.002943 V 26.76253 c -4e-6,-0.24873 0.08722,-0.497261 0.263567,-0.673655 l 2.137828,-2.109314 -2.137828,-2.138775 c -0.197489,-0.182282 -0.284092,-0.439925 -0.263559,-0.703104 z"
       id="path29"
       inkscape:connector-curvature="0" />
  </g>
  <g
     transform="matrix(1.7493122,0,0,1.7499488,-17.096739,-1336.9405)"
     id="g44"
     style="opacity:0.2" />
  <g
     id="window-close"
     transform="translate(20.616809,-9.9799598)">
    <rect
       width="32"
       height="32"
       x="32"
       y="0"
       style="opacity:0.00100002"
       id="rect36" />
    <path
       d="m 41.709736,10.136222 h 1.499426 c 0.01627,-2.1e-4 0.03117,-4.55e-4 0.04679,0 0.382279,0.02415 0.764511,0.19274 1.030859,0.468619 l 3.420528,3.42213 3.467386,-3.42213 c 0.39829,-0.345405 0.669745,-0.458119 1.030848,-0.468619 h 1.499415 v 1.499847 c 0,0.42977 -0.05153,0.82629 -0.374861,1.125077 l -3.420521,3.42206 3.373677,3.374846 c 0.282155,0.282004 0.421691,0.68017 0.421705,1.077863 v 1.500056 H 52.2056 c -0.397798,-1.7e-5 -0.795588,-0.136321 -1.07772,-0.42179 l -3.420523,-3.421955 -3.42053,3.421955 c -0.282131,0.282004 -0.679921,0.42179 -1.077713,0.42179 h -1.499405 v -1.500056 c 0,-0.397676 0.139647,-0.795859 0.421733,-1.077863 l 3.42053,-3.374846 -3.42053,-3.42206 c -0.315998,-0.291944 -0.454569,-0.703917 -0.421733,-1.125077 z"
       style="fill:#eceff4;fill-opacity:1;stroke-width:1.74963"
       id="path48"
       inkscape:connector-curvature="0" />
  </g>
</svg>
